<svg id="Layer_1" data-name="Layer 1" xmlns="http://www.w3.org/2000/svg" viewBox="0 0 270.38 195.57">
    <defs>
        <style>.cls-1{fill:#999;}.cls-2{font-size:18.43px;}.cls-2,.cls-3,.cls-8,.cls-9{font-family:open sans;}.cls-3{font-size:19.37px;}.cls-4,.cls-8{fill:#f20000;}.cls-5{fill:#00ce00;}.cls-6,.cls-7{fill:none;stroke:#f20000;stroke-miterlimit:10;stroke-width:2px;}.cls-7{stroke-dasharray:6.15 6.15;}.cls-8{font-size:11.5px;}.cls-9{font-size:20px;}</style>
    </defs>
    <title>Average_CASA_Transactions-customer</title>
    <rect class="cls-1" x="22.55" y="12.15" width="0.47" height="163.02"/>
    <rect class="cls-1" x="238.22" y="12.15" width="0.47" height="163.02"/>
    <rect class="cls-1" x="324.19" y="1338.22" width="0.47" height="222.7" transform="translate(-1318.71 495.61) rotate(-90)"/>
    <text class="cls-2" transform="translate(0 15.43)">8<tspan x="0" y="39.54">6</tspan>
        <tspan x="0" y="79.07">4</tspan>
        <tspan x="0" y="118.61">2</tspan>
        <tspan x="0" y="158.15">0</tspan>
    </text>
    <text class="cls-2" transform="translate(246.12 15.43)">8<tspan x="0" y="39.54">6</tspan>
        <tspan x="0" y="79.07">4</tspan>
        <tspan x="0" y="118.61">2</tspan>
        <tspan x="0" y="158.15">0</tspan>
    </text>
    <text class="cls-3" transform="translate(32.28 190.73)">M<tspan x="15.69" y="0">a</tspan>
        <tspan x="25.02" y="0">r</tspan>
        <tspan x="31.16" y="0">ch</tspan>
    </text>
    <text class="cls-3" transform="translate(115.7 190.73)">A<tspan x="11.8" y="0">p</tspan>
        <tspan x="22.82" y="0">r</tspan>
        <tspan x="29.23" y="0">il</tspan>
    </text>
    <text class="cls-3" transform="translate(189.49 190.73)">M<tspan x="15.69" y="0">a</tspan>
        <tspan x="24.87" y="0">y</tspan>
    </text>
    <rect class="cls-1" x="20.71" y="12.15" width="1.9" height="0.47"/>
    <rect class="cls-1" x="20.71" y="51.5" width="1.9" height="0.47"/>
    <rect class="cls-1" x="20.71" y="90.85" width="1.9" height="0.47"/>
    <rect class="cls-1" x="20.71" y="130.67" width="1.9" height="0.47"/>
    <rect class="cls-1" x="238.41" y="12.15" width="1.9" height="0.47"/>
    <rect class="cls-1" x="238.41" y="51.5" width="1.9" height="0.47"/>
    <rect class="cls-1" x="238.41" y="90.85" width="1.9" height="0.47"/>
    <rect class="cls-1" x="238.41" y="130.67" width="1.9" height="0.47"/>
    <rect class="cls-4" x="45.58" y="108.29" width="26.85" height="62.43"/>
    <rect class="cls-5" x="117.09" y="30.29" width="26.85" height="140.43"/>
    <rect class="cls-4" x="189.29" y="130.67" width="26.85" height="40.05"/>
    <line class="cls-6" x1="235.46" y1="90.85" x2="232.46" y2="90.85"/>
    <line class="cls-7" x1="226.3" y1="90.85" x2="32.48" y2="90.85"/>
    <line class="cls-6" x1="29.4" y1="90.85" x2="26.4" y2="90.85"/>
    <text class="cls-8" transform="translate(240.2 77.75)">T<tspan x="4.98" y="0">a</tspan>
        <tspan x="10.52" y="0">r</tspan>
        <tspan x="14.19" y="0">get</tspan>
    </text>
    <text class="cls-9" transform="translate(52.43 103.29)">3</text>
    <text class="cls-9" transform="translate(124.43 22.95)">7</text>
    <text class="cls-9" transform="translate(196.1 125.23)">2</text>
</svg>