<svg id="Layer_1" data-name="Layer 1" xmlns="http://www.w3.org/2000/svg" viewBox="0 0 275.83 205.09">
    <defs>
        <style>.cls-1{fill:#999;}.cls-2{font-size:18.43px;}.cls-2,.cls-3,.cls-8,.cls-9{font-family:open sans;}.cls-3{font-size:19.37px;}.cls-4{fill:#00ce00;}.cls-5,.cls-8{fill:#f20000;}.cls-6,.cls-7{fill:none;stroke:#f20000;stroke-miterlimit:10;stroke-width:2px;}.cls-7{stroke-dasharray:6.15 6.15;}.cls-8{font-size:11.5px;}.cls-9{font-size:20px;}</style>
    </defs>
    <title>Cross_selling_points</title>
    <rect class="cls-1" x="26.01" y="21.67" width="0.47" height="163.02"/>
    <rect class="cls-1" x="241.68" y="21.67" width="0.47" height="163.02"/>
    <rect class="cls-1" x="1045.65" y="1338.22" width="0.47" height="222.7" transform="translate(-1315.26 1226.59) rotate(-90)"/>
    <text class="cls-2" transform="translate(0 24.95)">80<tspan x="0" y="39.54">60</tspan>
        <tspan x="0" y="79.07">40</tspan>
        <tspan x="0" y="118.61">20</tspan>
        <tspan x="9.46" y="158.15">0</tspan>
    </text>
    <text class="cls-2" transform="translate(249.58 24.95)">80<tspan x="0" y="39.54">60</tspan>
        <tspan x="0" y="79.07">40</tspan>
        <tspan x="0" y="118.61">20</tspan>
        <tspan x="0" y="158.15">0</tspan>
    </text>
    <text class="cls-3" transform="translate(39.74 200.25)">M<tspan x="15.69" y="0">a</tspan>
        <tspan x="25.02" y="0">r</tspan>
        <tspan x="31.16" y="0">ch</tspan>
    </text>
    <text class="cls-3" transform="translate(116.15 200.25)">A<tspan x="11.8" y="0">p</tspan>
        <tspan x="22.82" y="0">r</tspan>
        <tspan x="29.23" y="0">il</tspan>
    </text>
    <text class="cls-3" transform="translate(189.95 200.25)">M<tspan x="15.69" y="0">a</tspan>
        <tspan x="24.87" y="0">y</tspan>
    </text>
    <rect class="cls-1" x="24.17" y="21.67" width="1.9" height="0.47"/>
    <rect class="cls-1" x="24.17" y="61.02" width="1.9" height="0.47"/>
    <rect class="cls-1" x="24.17" y="100.37" width="1.9" height="0.47"/>
    <rect class="cls-1" x="24.17" y="140.19" width="1.9" height="0.47"/>
    <rect class="cls-1" x="241.87" y="21.67" width="1.9" height="0.47"/>
    <rect class="cls-1" x="241.87" y="61.02" width="1.9" height="0.47"/>
    <rect class="cls-1" x="241.87" y="100.37" width="1.9" height="0.47"/>
    <rect class="cls-1" x="241.87" y="140.19" width="1.9" height="0.47"/>
    <rect class="cls-4" x="49.03" y="100.19" width="26.85" height="80.05"/>
    <rect class="cls-4" x="120.54" y="29.81" width="26.85" height="150.43"/>
    <rect class="cls-5" x="192.74" y="54.81" width="26.85" height="125.43"/>
    <line class="cls-6" x1="238.91" y1="22.72" x2="235.91" y2="22.72"/>
    <line class="cls-7" x1="229.76" y1="22.72" x2="35.94" y2="22.72"/>
    <line class="cls-6" x1="32.86" y1="22.72" x2="29.86" y2="22.72"/>
    <text class="cls-8" transform="translate(245.66 9.62)">T<tspan x="4.98" y="0">a</tspan>
        <tspan x="10.52" y="0">r</tspan>
        <tspan x="14.19" y="0">get</tspan>
    </text>
    <text class="cls-9" transform="translate(51.62 95.47)">40</text>
    <text class="cls-9" transform="translate(122.62 24.95)">79</text>
    <text class="cls-9" transform="translate(196.29 50.81)">63</text>
</svg>