<svg id="Layer_1" data-name="Layer 1" xmlns="http://www.w3.org/2000/svg" viewBox="0 0 210.66 196.57">
    <defs>
        <style>.cls-1{fill:#999;}.cls-2{font-size:18.43px;}.cls-2,.cls-3,.cls-4,.cls-5{font-family:open sans;}.cls-3{font-size:18.31px;}.cls-4{font-size:20.31px;}.cls-5{font-size:19.37px;}.cls-6{fill:#f20000;}.cls-7{fill:#f9f20d;}.cls-8{fill:none;stroke:#f20000;stroke-miterlimit:10;stroke-width:2px;stroke-dasharray:6;}</style>
    </defs>
    <title>served_by_funding_RORM</title>
    <rect class="cls-1" x="17.55" y="12.15" width="0.47" height="163.02"/>
    <rect class="cls-1" x="193.22" y="12.15" width="0.47" height="163.02"/>
    <rect class="cls-1" x="780.17" y="506.46" width="0.47" height="182.7" transform="translate(-491.95 951.59) rotate(-90)"/>
    <text class="cls-2" transform="translate(0 15.43)">4<tspan x="0" y="39.54">3</tspan>
        <tspan x="0" y="79.07">2</tspan>
        <tspan x="0" y="118.61">1</tspan>
        <tspan x="0" y="158.15">0</tspan>
    </text>
    <text class="cls-2" transform="translate(201.21 15.43)">4<tspan x="0" y="39.54">3</tspan>
        <tspan x="0" y="79.07">2</tspan>
        <tspan x="0" y="118.61">1</tspan>
        <tspan x="0" y="158.15">0</tspan>
    </text>
    <text class="cls-3" transform="translate(157.21 109.38)">10%</text>
    <text class="cls-4" transform="translate(102.82 123.13)">1</text>
    <text class="cls-4" transform="translate(160.32 85.74)">2</text>
    <text class="cls-5" transform="translate(25.8 191.73)">M<tspan x="15.69" y="0">a</tspan>
        <tspan x="25.02" y="0">r</tspan>
        <tspan x="31.16" y="0">ch</tspan>
    </text>
    <text class="cls-5" transform="translate(89.55 191.73)">A<tspan x="11.8" y="0">p</tspan>
        <tspan x="22.82" y="0">r</tspan>
        <tspan x="29.23" y="0">il</tspan>
    </text>
    <text class="cls-5" transform="translate(146.21 191.73)">M<tspan x="15.69" y="0">a</tspan>
        <tspan x="24.87" y="0">y</tspan>
    </text>
    <rect class="cls-1" x="15.71" y="12.15" width="1.9" height="0.47"/>
    <rect class="cls-1" x="15.71" y="51.5" width="1.9" height="0.47"/>
    <rect class="cls-1" x="15.71" y="90.85" width="1.9" height="0.47"/>
    <rect class="cls-1" x="15.71" y="130.67" width="1.9" height="0.47"/>
    <rect class="cls-1" x="193.41" y="12.15" width="1.9" height="0.47"/>
    <rect class="cls-1" x="193.41" y="51.5" width="1.9" height="0.47"/>
    <rect class="cls-1" x="193.41" y="90.85" width="1.9" height="0.47"/>
    <rect class="cls-1" x="193.41" y="130.67" width="1.9" height="0.47"/>
    <rect class="cls-6" x="146.08" y="130.67" width="31.85" height="40.52"/>
    <rect class="cls-7" x="89.58" y="130.67" width="31.85" height="40.52"/>
    <rect class="cls-6" x="34.09" y="130.67" width="31.85" height="40.52"/>
    <text class="cls-4" transform="translate(46.57 89.54)">2</text>
    <polyline class="cls-8" points="50.02 92.16 105.45 129.63 163.71 91.02"/>
</svg>