<svg id="Layer_1" data-name="Layer 1" xmlns="http://www.w3.org/2000/svg" viewBox="0 0 297.68 197.36">
    <defs>
        <style>.cls-1{fill:#999;}.cls-2{font-size:18.43px;}.cls-2,.cls-3,.cls-8,.cls-9{font-family:open sans;}.cls-3{font-size:19.37px;}.cls-4{fill:#00ce00;}.cls-5,.cls-8{fill:#f20000;}.cls-6,.cls-7{fill:none;stroke:#f20000;stroke-miterlimit:10;stroke-width:2px;}.cls-7{stroke-dasharray:6.15 6.15;}.cls-8{font-size:11.5px;}.cls-9{font-size:20px;}</style>
    </defs>
    <title>Term_Loan_Re-instatement</title>
    <rect class="cls-1" x="40.61" y="14.94" width="0.47" height="163.02"/>
    <rect class="cls-1" x="256.28" y="14.94" width="0.47" height="163.02"/>
    <rect class="cls-1" x="684.59" y="1040.22" width="0.47" height="222.7" transform="translate(-1002.66 858.8) rotate(-90)"/>
    <text class="cls-2" transform="translate(0 18.22)">20%<tspan x="0" y="39.54">15%</tspan>
        <tspan x="0" y="79.07">10%</tspan>
        <tspan x="9.46" y="118.61">5%</tspan>
        <tspan x="24.05" y="158.15">0</tspan>
    </text>
    <text class="cls-2" transform="translate(264.18 18.22)">20%<tspan x="0" y="39.54">15%</tspan>
        <tspan x="0" y="79.07">10%</tspan>
        <tspan x="0" y="118.61">5%</tspan>
        <tspan x="0" y="158.15">0</tspan>
    </text>
    <text class="cls-3" transform="translate(54.34 192.51)">M<tspan x="15.69" y="0">a</tspan>
        <tspan x="25.02" y="0">r</tspan>
        <tspan x="31.16" y="0">ch</tspan>
    </text>
    <text class="cls-3" transform="translate(128.75 192.51)">A<tspan x="11.8" y="0">p</tspan>
        <tspan x="22.82" y="0">r</tspan>
        <tspan x="29.23" y="0">il</tspan>
    </text>
    <text class="cls-3" transform="translate(204.55 192.52)">M<tspan x="15.69" y="0">a</tspan>
        <tspan x="24.87" y="0">y</tspan>
    </text>
    <rect class="cls-1" x="38.77" y="14.94" width="1.9" height="0.47"/>
    <rect class="cls-1" x="38.77" y="54.29" width="1.9" height="0.47"/>
    <rect class="cls-1" x="38.77" y="93.64" width="1.9" height="0.47"/>
    <rect class="cls-1" x="38.77" y="133.45" width="1.9" height="0.47"/>
    <rect class="cls-1" x="256.46" y="14.94" width="1.9" height="0.47"/>
    <rect class="cls-1" x="256.46" y="54.29" width="1.9" height="0.47"/>
    <rect class="cls-1" x="256.46" y="93.64" width="1.9" height="0.47"/>
    <rect class="cls-1" x="256.46" y="133.45" width="1.9" height="0.47"/>
    <rect class="cls-4" x="63.63" y="88.54" width="26.85" height="84.97"/>
    <rect class="cls-4" x="135.14" y="20.41" width="26.85" height="153.1"/>
    <rect class="cls-5" x="207.34" y="129.74" width="26.85" height="43.77"/>
    <line class="cls-6" x1="253.51" y1="93.64" x2="250.51" y2="93.64"/>
    <line class="cls-7" x1="244.36" y1="93.64" x2="50.53" y2="93.64"/>
    <line class="cls-6" x1="47.46" y1="93.64" x2="44.46" y2="93.64"/>
    <text class="cls-8" transform="translate(260.26 78.54)">T<tspan x="4.98" y="0">a</tspan>
        <tspan x="10.52" y="0">r</tspan>
        <tspan x="14.19" y="0">get</tspan>
    </text>
    <text class="cls-9" transform="translate(57.48 83.07)">11%</text>
    <text class="cls-9" transform="translate(129.48 16.74)">18%</text>
    <text class="cls-9" transform="translate(205.15 125.74)">6%</text>
</svg>