<svg id="Layer_1" data-name="Layer 1" xmlns="http://www.w3.org/2000/svg" viewBox="0 0 1071.71 319.04">
    <defs>
        <style>.cls-1{font-size:18.43px;font-family:open sans;}.cls-2{white-space:pre;}.cls-3,.cls-4{fill:none;}.cls-3{stroke:#000;}.cls-3,.cls-4,.cls-5{stroke-miterlimit:10;}.cls-4{stroke:#1ab395;stroke-width:4px;}.cls-5{fill:#1ab395;stroke:#fff;}</style>
    </defs>
    <title>Utilization</title>
    <text class="cls-1" transform="translate(13.27 15.43)">30<tspan x="-13.27" y="69.54">22.5</tspan>
        <tspan x="0" y="139.07">15</tspan>
        <tspan x="-3.82" y="208.61">7.5</tspan>
        <tspan x="9.46" y="278.15">0</tspan>
    </text>
    <text class="cls-1" transform="translate(43.18 314.43)">
        <tspan class="cls-2">Jan                                          </tspan>
        <tspan x="190.05" y="0">F</tspan>
        <tspan class="cls-2" x="198.45" y="0">eb                                           </tspan>
        <tspan x="386.19" y="0">M</tspan>
        <tspan class="cls-2" x="401.12" y="0">ar                                         </tspan>
        <tspan x="576.24" y="0">A</tspan>
        <tspan class="cls-2" x="587.46" y="0">pr                                           </tspan>
        <tspan x="772" y="0">M</tspan>
        <tspan x="786.92" y="0">a</tspan>
        <tspan class="cls-2" x="795.66" y="0">y                                                  Jun</tspan>
    </text>
    <line class="cls-3" x1="43.18" y1="288.62" x2="1064.13" y2="288.62"/>
    <line class="cls-3" x1="43.18" y1="218.62" x2="1064.13" y2="218.62"/>
    <line class="cls-3" x1="43.18" y1="149.62" x2="1064.13" y2="149.62"/>
    <line class="cls-3" x1="43.18" y1="79.62" x2="1064.13" y2="79.62"/>
    <line class="cls-3" x1="43.18" y1="10.62" x2="1064.13" y2="10.62"/>
    <path class="cls-4" d="M147,1848s111-48,149-47,113.39,43,143.69,23.49S550,1687,587,1687s115.13,127,150.06,133S912,1814,1021,1800s147,48,147,48" transform="translate(-103.87 -1606.38)"/>
    <circle class="cls-5" cx="46.54" cy="241.62" r="7.07"/>
    <circle class="cls-5" cx="247.06" cy="207.14" r="7.07"/>
    <circle class="cls-5" cx="449.13" cy="100.62" r="7.07"/>
    <circle class="cls-5" cx="627.77" cy="212.21" r="7.07"/>
    <circle class="cls-5" cx="834.18" cy="202.69" r="7.07"/>
    <circle class="cls-5" cx="1064.13" cy="241.62" r="7.07"/>
</svg>