<svg id="Layer_1" data-name="Layer 1" xmlns="http://www.w3.org/2000/svg" viewBox="0 0 225.47 194.9">
    <defs>
        <style>.cls-1{font-size:16.43px;}.cls-1,.cls-3,.cls-4,.cls-5{font-family:open sans;}.cls-2{fill:#999;}.cls-3{font-size:18.31px;}.cls-4{font-size:20.31px;}.cls-5{font-size:19.37px;}.cls-6{fill:#f20000;}.cls-7{fill:#f9f20d;}.cls-8{fill:none;stroke:#f20000;stroke-miterlimit:10;stroke-width:2px;stroke-dasharray:6;}</style>
    </defs>
    <title>served_by_funding_RORM</title>
    <text class="cls-1" transform="translate(0 13.75)">32<tspan x="0" y="39.54">24</tspan>
        <tspan x="0" y="79.07">16</tspan>
        <tspan x="8.43" y="118.61">8</tspan>
        <tspan x="8.43" y="158.15">0</tspan>
    </text>
    <text class="cls-1" transform="translate(208.61 13.75)">32<tspan x="0" y="39.54">24</tspan>
        <tspan x="0" y="79.07">16</tspan>
        <tspan x="0" y="118.61">8</tspan>
        <tspan x="0" y="158.15">0</tspan>
    </text>
    <rect class="cls-2" x="24.57" y="10.47" width="0.47" height="163.02"/>
    <rect class="cls-2" x="200.24" y="10.47" width="0.47" height="163.02"/>
    <rect class="cls-2" x="780.17" y="506.46" width="0.47" height="182.7" transform="translate(-484.93 949.91) rotate(-90)"/>
    <text class="cls-3" transform="translate(164.23 107.71)">10%</text>
    <text class="cls-4" transform="translate(109.84 121.46)">8</text>
    <text class="cls-4" transform="translate(167.34 84.07)">16</text>
    <text class="cls-5" transform="translate(32.82 190.05)">M<tspan x="15.69" y="0">a</tspan>
        <tspan x="25.02" y="0">r</tspan>
        <tspan x="31.16" y="0">ch</tspan>
    </text>
    <text class="cls-5" transform="translate(96.57 190.05)">A<tspan x="11.8" y="0">p</tspan>
        <tspan x="22.82" y="0">r</tspan>
        <tspan x="29.23" y="0">il</tspan>
    </text>
    <text class="cls-5" transform="translate(153.23 190.05)">M<tspan x="15.69" y="0">a</tspan>
        <tspan x="24.87" y="0">y</tspan>
    </text>
    <rect class="cls-2" x="22.73" y="10.47" width="1.9" height="0.47"/>
    <rect class="cls-2" x="22.73" y="49.82" width="1.9" height="0.47"/>
    <rect class="cls-2" x="22.73" y="89.17" width="1.9" height="0.47"/>
    <rect class="cls-2" x="22.73" y="128.99" width="1.9" height="0.47"/>
    <rect class="cls-2" x="200.43" y="10.47" width="1.9" height="0.47"/>
    <rect class="cls-2" x="200.43" y="49.82" width="1.9" height="0.47"/>
    <rect class="cls-2" x="200.43" y="89.17" width="1.9" height="0.47"/>
    <rect class="cls-2" x="200.43" y="128.99" width="1.9" height="0.47"/>
    <rect class="cls-6" x="153.1" y="128.99" width="31.85" height="40.52"/>
    <rect class="cls-7" x="96.6" y="128.99" width="31.85" height="40.52"/>
    <rect class="cls-6" x="41.11" y="128.99" width="31.85" height="40.52"/>
    <text class="cls-4" transform="translate(48.59 87.87)">16</text>
    <polyline class="cls-8" points="57.04 90.48 112.48 127.96 170.73 89.35"/>
</svg>