<svg id="Layer_1" data-name="Layer 1" xmlns="http://www.w3.org/2000/svg" viewBox="0 0 225.47 198.76">
    <defs>
        <style>.cls-1{fill:#999;}.cls-2{font-size:16.43px;}.cls-2,.cls-3,.cls-4{font-family:open sans;}.cls-3{font-size:18.31px;}.cls-4{font-size:17.37px;}.cls-5{fill:#f20000;}.cls-6{fill:#f9f20d;}.cls-7{fill:none;stroke:#f20000;stroke-miterlimit:10;stroke-width:2px;stroke-dasharray:6;}</style>
    </defs>
    <title>Sold_Loan_Bundle_to_NTB</title>
    <rect class="cls-1" x="24.96" y="16.84" width="0.47" height="163.02"/>
    <rect class="cls-1" x="200.63" y="16.84" width="0.47" height="163.02"/>
    <rect class="cls-1" x="271.67" y="506.46" width="0.47" height="182.7" transform="translate(-484.55 447.78) rotate(-90)"/>
    <text class="cls-2" transform="translate(0 20.12)">32<tspan x="0" y="39.54">24</tspan>
        <tspan x="0" y="79.07">16</tspan>
        <tspan x="8.43" y="118.61">8</tspan>
        <tspan x="8.43" y="158.15">0</tspan>
    </text>
    <text class="cls-2" transform="translate(208.61 20.12)">32<tspan x="0" y="39.54">24</tspan>
        <tspan x="0" y="79.07">16</tspan>
        <tspan x="0" y="118.61">8</tspan>
        <tspan x="0" y="158.15">0</tspan>
    </text>
    <text class="cls-3" transform="translate(167.72 127.82)">8</text>
    <text class="cls-3" transform="translate(108.72 93.07)">16</text>
    <text class="cls-3" transform="translate(161.11 108.57)">10%</text>
    <text class="cls-3" transform="translate(53.97 15.32)">32</text>
    <text class="cls-4" transform="translate(34.81 194.42)">M<tspan x="14.07" y="0">a</tspan>
        <tspan x="22.44" y="0">r</tspan>
        <tspan x="27.95" y="0">ch</tspan>
    </text>
    <text class="cls-4" transform="translate(97.93 194.42)">A<tspan x="10.58" y="0">p</tspan>
        <tspan x="20.46" y="0">r</tspan>
        <tspan x="26.21" y="0">il</tspan>
    </text>
    <text class="cls-4" transform="translate(159.37 194.42)">M<tspan x="14.07" y="0">a</tspan>
        <tspan x="22.3" y="0">y</tspan>
    </text>
    <rect class="cls-1" x="23.12" y="16.84" width="1.9" height="0.47"/>
    <rect class="cls-1" x="23.12" y="56.19" width="1.9" height="0.47"/>
    <rect class="cls-1" x="23.12" y="95.54" width="1.9" height="0.47"/>
    <rect class="cls-1" x="23.12" y="135.36" width="1.9" height="0.47"/>
    <rect class="cls-1" x="200.81" y="16.84" width="1.9" height="0.47"/>
    <rect class="cls-1" x="200.81" y="56.19" width="1.9" height="0.47"/>
    <rect class="cls-1" x="200.81" y="95.54" width="1.9" height="0.47"/>
    <rect class="cls-1" x="200.81" y="135.36" width="1.9" height="0.47"/>
    <rect class="cls-5" x="41.5" y="95.77" width="31.85" height="80.1"/>
    <rect class="cls-5" x="96.99" y="135.36" width="31.85" height="40.52"/>
    <rect class="cls-6" x="153.49" y="135.36" width="31.85" height="40.52"/>
    <polyline class="cls-7" points="57.42 16.94 106.86 95.44 171.11 134.32"/>
</svg>