<svg id="Layer_1" data-name="Layer 1" xmlns="http://www.w3.org/2000/svg" viewBox="0 0 225.47 202.73">
    <defs>
        <style>.cls-1{font-size:16.43px;}.cls-1,.cls-3,.cls-4,.cls-5{font-family:open sans;}.cls-2{fill:#999;}.cls-3{font-size:18.31px;}.cls-4{font-size:20.31px;}.cls-5{font-size:19.37px;}.cls-6{fill:#f9f20d;}.cls-7{fill:#f20000;}.cls-8{fill:none;stroke:#f20000;stroke-miterlimit:10;stroke-width:2px;stroke-dasharray:6;}</style>
    </defs>
    <title>Sold_CASA</title>
    <text class="cls-1" transform="translate(0 21.58)">32<tspan x="0" y="39.54">24</tspan>
        <tspan x="0" y="79.07">16</tspan>
        <tspan x="8.43" y="118.61">8</tspan>
        <tspan x="8.43" y="158.15">0</tspan>
    </text>
    <text class="cls-1" transform="translate(208.61 21.58)">32<tspan x="0" y="39.54">24</tspan>
        <tspan x="0" y="79.07">16</tspan>
        <tspan x="0" y="118.61">8</tspan>
        <tspan x="0" y="158.15">0</tspan>
    </text>
    <rect class="cls-2" x="26.43" y="18.3" width="0.47" height="163.02"/>
    <rect class="cls-2" x="202.1" y="18.3" width="0.47" height="163.02"/>
    <rect class="cls-2" x="1016.53" y="506.46" width="0.47" height="182.7" transform="translate(-483.07 1194.11) rotate(-90)"/>
    <text class="cls-3" transform="translate(162.08 110.04)">10%</text>
    <text class="cls-4" transform="translate(111.69 86.79)">16</text>
    <text class="cls-4" transform="translate(169.19 133.15)">8</text>
    <text class="cls-5" transform="translate(34.68 197.88)">M<tspan x="15.69" y="0">a</tspan>
        <tspan x="25.02" y="0">r</tspan>
        <tspan x="31.16" y="0">ch</tspan>
    </text>
    <text class="cls-5" transform="translate(95.43 197.88)">A<tspan x="11.8" y="0">p</tspan>
        <tspan x="22.82" y="0">r</tspan>
        <tspan x="29.23" y="0">il</tspan>
    </text>
    <text class="cls-5" transform="translate(154.09 197.88)">M<tspan x="15.69" y="0">a</tspan>
        <tspan x="24.87" y="0">y</tspan>
    </text>
    <rect class="cls-2" x="24.59" y="18.3" width="1.9" height="0.47"/>
    <rect class="cls-2" x="24.59" y="57.65" width="1.9" height="0.47"/>
    <rect class="cls-2" x="24.59" y="97" width="1.9" height="0.47"/>
    <rect class="cls-2" x="24.59" y="136.82" width="1.9" height="0.47"/>
    <rect class="cls-2" x="202.29" y="18.3" width="1.9" height="0.47"/>
    <rect class="cls-2" x="202.29" y="57.65" width="1.9" height="0.47"/>
    <rect class="cls-2" x="202.29" y="97" width="1.9" height="0.47"/>
    <rect class="cls-2" x="202.29" y="136.82" width="1.9" height="0.47"/>
    <rect class="cls-6" x="154.96" y="136.82" width="31.85" height="40.52"/>
    <rect class="cls-7" x="98.46" y="136.82" width="31.85" height="40.52"/>
    <rect class="cls-7" x="42.97" y="97" width="31.85" height="80.34"/>
    <text class="cls-4" transform="translate(55.44 17)">32</text>
    <polyline class="cls-8" points="58.9 19.61 114.33 97.47 172.58 138.43"/>
</svg>