<svg id="Layer_1" data-name="Layer 1" xmlns="http://www.w3.org/2000/svg" viewBox="0 0 225.47 194.9">
    <defs>
        <style>.cls-1{font-size:16.43px;}.cls-1,.cls-3,.cls-4,.cls-5{font-family:open sans;}.cls-2{fill:#999;}.cls-3{font-size:18.31px;}.cls-4{font-size:20.31px;}.cls-5{font-size:19.37px;}.cls-6{fill:#f20000;}.cls-7{fill:#00ce00;}.cls-8{fill:none;stroke:#f20000;stroke-miterlimit:10;stroke-width:2px;stroke-dasharray:6;}</style>
    </defs>
    <title>Sold_Loan_Only_to_NTB</title>
    <text class="cls-1" transform="translate(0 13.75)">32<tspan x="0" y="39.54">24</tspan>
        <tspan x="0" y="79.07">16</tspan>
        <tspan x="8.43" y="118.61">8</tspan>
        <tspan x="8.43" y="158.15">0</tspan>
    </text>
    <text class="cls-1" transform="translate(208.61 13.75)">32<tspan x="0" y="39.54">24</tspan>
        <tspan x="0" y="79.07">16</tspan>
        <tspan x="0" y="118.61">8</tspan>
        <tspan x="0" y="158.15">0</tspan>
    </text>
    <rect class="cls-2" x="23.72" y="10.47" width="0.47" height="163.02"/>
    <rect class="cls-2" x="199.39" y="10.47" width="0.47" height="163.02"/>
    <rect class="cls-2" x="524.9" y="506.46" width="0.47" height="182.7" transform="translate(-485.78 694.65) rotate(-90)"/>
    <text class="cls-3" transform="translate(164.37 108.71)">10%</text>
    <text class="cls-4" transform="translate(106.73 117.46)">8</text>
    <text class="cls-4" transform="translate(166.48 86.71)">16</text>
    <text class="cls-5" transform="translate(33.97 190.05)">M<tspan x="15.69" y="0">a</tspan>
        <tspan x="25.02" y="0">r</tspan>
        <tspan x="31.16" y="0">ch</tspan>
    </text>
    <text class="cls-5" transform="translate(97.72 190.05)">A<tspan x="11.8" y="0">p</tspan>
        <tspan x="22.82" y="0">r</tspan>
        <tspan x="29.23" y="0">il</tspan>
    </text>
    <text class="cls-5" transform="translate(152.88 190.05)">M<tspan x="15.69" y="0">a</tspan>
        <tspan x="24.87" y="0">y</tspan>
    </text>
    <rect class="cls-2" x="21.88" y="10.47" width="1.9" height="0.47"/>
    <rect class="cls-2" x="21.88" y="49.82" width="1.9" height="0.47"/>
    <rect class="cls-2" x="21.88" y="89.17" width="1.9" height="0.47"/>
    <rect class="cls-2" x="21.88" y="128.99" width="1.9" height="0.47"/>
    <rect class="cls-2" x="199.58" y="10.47" width="1.9" height="0.47"/>
    <rect class="cls-2" x="199.58" y="49.82" width="1.9" height="0.47"/>
    <rect class="cls-2" x="199.58" y="89.17" width="1.9" height="0.47"/>
    <rect class="cls-2" x="199.58" y="128.99" width="1.9" height="0.47"/>
    <rect class="cls-6" x="152.25" y="128.99" width="31.85" height="40.52"/>
    <rect class="cls-7" x="40.26" y="89.41" width="31.85" height="80.1"/>
    <text class="cls-4" transform="translate(52.73 125.34)">8</text>
    <polyline class="cls-8" points="56.19 127.96 105.62 127.96 169.87 91.98"/>
</svg>