<svg id="Layer_1" data-name="Layer 1" xmlns="http://www.w3.org/2000/svg" viewBox="0 0 225.47 204.06">
    <defs>
        <style>.cls-1{font-size:16.43px;}.cls-1,.cls-3,.cls-4,.cls-9{font-family:open sans;}.cls-2{fill:#999;}.cls-3{font-size:18.31px;}.cls-4{font-size:19.37px;}.cls-5{fill:#f20000;}.cls-6{fill:#00ce00;}.cls-7{fill:#f9f20d;}.cls-8{fill:none;stroke:#f20000;stroke-miterlimit:10;stroke-width:2px;stroke-dasharray:6;}.cls-9{font-size:20.31px;}</style>
    </defs>
    <title>Successful_Referrals</title>
    <text class="cls-1" transform="translate(0 23.11)">32<tspan x="0" y="39.54">24</tspan>
        <tspan x="0" y="79.07">16</tspan>
        <tspan x="8.43" y="118.61">8</tspan>
        <tspan x="8.43" y="158.15">0</tspan>
    </text>
    <text class="cls-1" transform="translate(208.61 23.11)">32<tspan x="0" y="39.54">24</tspan>
        <tspan x="0" y="79.07">16</tspan>
        <tspan x="0" y="118.61">8</tspan>
        <tspan x="0" y="158.15">0</tspan>
    </text>
    <rect class="cls-2" x="24.96" y="19.64" width="0.47" height="163.02"/>
    <rect class="cls-2" x="200.63" y="19.64" width="0.47" height="163.02"/>
    <rect class="cls-2" x="271.67" y="789.79" width="0.47" height="182.7" transform="translate(-767.88 450.58) rotate(-90)"/>
    <text class="cls-3" transform="translate(160.61 112.37)">10%</text>
    <text class="cls-4" transform="translate(33.2 199.22)">M<tspan x="15.69" y="0">a</tspan>
        <tspan x="25.02" y="0">r</tspan>
        <tspan x="31.16" y="0">ch</tspan>
    </text>
    <text class="cls-4" transform="translate(94.95 199.22)">A<tspan x="11.8" y="0">p</tspan>
        <tspan x="22.82" y="0">r</tspan>
        <tspan x="29.23" y="0">il</tspan>
    </text>
    <text class="cls-4" transform="translate(152.61 199.22)">M<tspan x="15.69" y="0">a</tspan>
        <tspan x="24.87" y="0">y</tspan>
    </text>
    <rect class="cls-2" x="23.12" y="19.64" width="1.9" height="0.47"/>
    <rect class="cls-2" x="23.12" y="58.99" width="1.9" height="0.47"/>
    <rect class="cls-2" x="23.12" y="98.34" width="1.9" height="0.47"/>
    <rect class="cls-2" x="23.12" y="138.16" width="1.9" height="0.47"/>
    <rect class="cls-2" x="200.81" y="19.64" width="1.9" height="0.47"/>
    <rect class="cls-2" x="200.81" y="58.99" width="1.9" height="0.47"/>
    <rect class="cls-2" x="200.81" y="98.34" width="1.9" height="0.47"/>
    <rect class="cls-2" x="200.81" y="138.16" width="1.9" height="0.47"/>
    <rect class="cls-5" x="41.5" y="98.57" width="31.85" height="80.1"/>
    <rect class="cls-6" x="96.99" y="58.99" width="31.85" height="119.69"/>
    <rect class="cls-7" x="153.49" y="138.16" width="31.85" height="40.52"/>
    <polyline class="cls-8" points="57.42 19.74 106.86 98.24 171.11 137.12"/>
    <text class="cls-9" transform="translate(109.29 86.79)">16</text>
    <text class="cls-9" transform="translate(166.79 133.15)">8</text>
    <text class="cls-9" transform="translate(53.04 17)">32</text>
</svg>