<svg id="Layer_1" data-name="Layer 1" xmlns="http://www.w3.org/2000/svg" xmlns:xlink="http://www.w3.org/1999/xlink" viewBox="0 0 303.79 322.67">
    <defs>
        <style>.cls-1,.cls-2{fill:none;}.cls-1{clip-rule:evenodd;}.cls-10,.cls-2,.cls-5,.cls-6,.cls-7,.cls-8,.cls-9{fill-rule:evenodd;}.cls-3{font-size:14px;font-family:open sans;}.cls-4{clip-path:url(#clip-path);}.cls-5{fill:#dc6e00;}.cls-6{fill:gray;}.cls-7{fill:#06c245;}.cls-8{fill:#c41300;}.cls-9{fill:#feec00;}.cls-10{fill:#b2b2b2;}.cls-11{clip-path:url(#clip-path-2);}.cls-12{clip-path:url(#clip-path-3);}.cls-13,.cls-19{fill:#fff;}.cls-14,.cls-19{font-size:12.96px;font-family:Calibri;}.cls-15{clip-path:url(#clip-path-4);}.cls-16{clip-path:url(#clip-path-5);}.cls-17{clip-path:url(#clip-path-6);}.cls-18{clip-path:url(#clip-path-7);}.cls-20{clip-path:url(#clip-path-8);}.cls-21{clip-path:url(#clip-path-9);}.cls-22{clip-path:url(#clip-path-10);}</style>
        <clipPath id="clip-path" transform="translate(-507.38 -2465.65)">
            <polygon class="cls-1" points="530.26 2467.87 813.62 2467.87 813.62 2704.98 530.26 2704.98 530.26 2467.87 530.26 2467.87"/>
        </clipPath>
        <clipPath id="clip-path-2" transform="translate(-507.38 -2465.65)">
            <polygon class="cls-1" points="493.46 2442.97 822.58 2442.97 822.58 2731.89 493.46 2731.89 493.46 2442.97 493.46 2442.97"/>
        </clipPath>
        <clipPath id="clip-path-3" transform="translate(-507.38 -2465.65)">
            <polygon class="cls-1" points="542.18 2645.23 555.09 2645.23 555.09 2670.11 542.18 2670.11 542.18 2645.23 542.18 2645.23"/>
        </clipPath>
        <clipPath id="clip-path-4" transform="translate(-507.38 -2465.65)">
            <polygon class="cls-1" points="576.99 2563.54 589.89 2563.54 589.89 2588.42 576.99 2588.42 576.99 2563.54 576.99 2563.54"/>
        </clipPath>
        <clipPath id="clip-path-5" transform="translate(-507.38 -2465.65)">
            <polygon class="cls-1" points="611.79 2504.75 624.7 2504.75 624.7 2529.63 611.79 2529.63 611.79 2504.75 611.79 2504.75"/>
        </clipPath>
        <clipPath id="clip-path-6" transform="translate(-507.38 -2465.65)">
            <polygon class="cls-1" points="646.59 2586.44 659.5 2586.44 659.5 2611.32 646.59 2611.32 646.59 2586.44 646.59 2586.44"/>
        </clipPath>
        <clipPath id="clip-path-7" transform="translate(-507.38 -2465.65)">
            <polygon class="cls-1" points="682.38 2504.75 695.29 2504.75 695.29 2529.63 682.38 2529.63 682.38 2504.75 682.38 2504.75"/>
        </clipPath>
        <clipPath id="clip-path-8" transform="translate(-507.38 -2465.65)">
            <polygon class="cls-1" points="786.79 2657.2 799.7 2657.2 799.7 2682.08 786.79 2682.08 786.79 2657.2 786.79 2657.2"/>
        </clipPath>
        <clipPath id="clip-path-9" transform="translate(-507.38 -2465.65)">
            <polygon class="cls-1" points="751.99 2598.41 764.9 2598.41 764.9 2623.29 751.99 2623.29 751.99 2598.41 751.99 2598.41"/>
        </clipPath>
        <clipPath id="clip-path-10" transform="translate(-507.38 -2465.65)">
            <polygon class="cls-1" points="717.18 2551.57 730.09 2551.57 730.09 2576.44 717.18 2576.44 717.18 2551.57 717.18 2551.57"/>
        </clipPath>
    </defs>
    <title>Loan-Maintenance-r</title>
    <text class="cls-3" transform="translate(34.8 295.86) rotate(-90)">O<tspan x="9.84" y="0">v</tspan>
        <tspan x="16.44" y="0">e</tspan>
        <tspan x="23.45" y="0">r</tspan>
        <tspan x="27.89" y="0">due</tspan>
        <tspan x="20.05" y="12.4">T</tspan>
        <tspan x="26.11" y="12.4">asks</tspan>
        <tspan x="-26.8" y="37.2">T</tspan>
        <tspan x="-20.73" y="37.2">asks c</tspan>
        <tspan x="12.91" y="37.2">r</tspan>
        <tspan x="17.35" y="37.2">e</tspan>
        <tspan x="24.36" y="37.2">a</tspan>
        <tspan x="31.05" y="37.2">t</tspan>
        <tspan x="35.6" y="37.2">ed</tspan>
        <tspan x="8.33" y="49.6">b</tspan>
        <tspan x="16.2" y="49.6">y R</tspan>
        <tspan x="33.29" y="49.6">R</tspan>
        <tspan x="40.87" y="49.6">O</tspan>
        <tspan x="-5.54" y="74.4">T</tspan>
        <tspan x="0.52" y="74.4">asks due</tspan>
        <tspan x="-4.44" y="86.8">this </tspan>
        <tspan x="19.75" y="86.8">w</tspan>
        <tspan x="29.92" y="86.8">eek</tspan>
        <tspan x="22.18" y="111.6">T</tspan>
        <tspan x="28.14" y="111.6">otal</tspan>
        <tspan x="-9.69" y="136.4">Su</tspan>
        <tspan x="4.93" y="136.4">cc</tspan>
        <tspan x="17.3" y="136.4">essful</tspan>
        <tspan x="-4.72" y="148.8">R</tspan>
        <tspan x="2.87" y="148.8">ene</tspan>
        <tspan x="24.67" y="148.8">w</tspan>
        <tspan x="34.92" y="148.8">als</tspan>
        <tspan x="16.09" y="173.6">F</tspan>
        <tspan x="22.27" y="173.6">ailed</tspan>
        <tspan x="-4.72" y="186">R</tspan>
        <tspan x="2.87" y="186">ene</tspan>
        <tspan x="24.67" y="186">w</tspan>
        <tspan x="34.92" y="186">als</tspan>
        <tspan x="-0.84" y="210.8">P</tspan>
        <tspan x="6.24" y="210.8">a</tspan>
        <tspan x="12.88" y="210.8">yme</tspan>
        <tspan x="38.16" y="210.8">n</tspan>
        <tspan x="45.88" y="210.8">t</tspan>
        <tspan x="-11.84" y="223.2">R</tspan>
        <tspan x="-4.26" y="223.2">eminders</tspan>
        <tspan x="20.05" y="248">T</tspan>
        <tspan x="26.11" y="248">asks</tspan>
        <tspan x="1.86" y="260.4">P</tspan>
        <tspan x="8.96" y="260.4">ending</tspan>
    </text>
    <g class="cls-4">
        <polygon class="cls-5" points="29.84 144.71 51.71 144.71 51.71 238.37 29.84 238.37 29.84 144.71 29.84 144.71"/>
        <path class="cls-6" d="M536.71,2610.36a0.83,0.83,0,0,1,.06-0.25,0.66,0.66,0,0,1,.2-0.2,0.82,0.82,0,0,1,.25-0.06v0.51h-0.51Z" transform="translate(-507.38 -2465.65)"/>
        <polygon class="cls-6" points="29.84 145.21 29.84 144.71 29.84 144.2 51.71 144.2 51.71 144.71 51.71 145.21 29.84 145.21 29.84 145.21"/>
        <path class="cls-6" d="M559.09,2609.85a0.82,0.82,0,0,1,.25.06,0.66,0.66,0,0,1,.2.2,0.83,0.83,0,0,1,.06.25h-0.51v-0.51h0Z" transform="translate(-507.38 -2465.65)"/>
        <polygon class="cls-6" points="51.2 144.71 51.71 144.71 52.22 144.71 52.22 238.37 51.71 238.37 51.2 238.37 51.2 144.71 51.2 144.71"/>
        <path class="cls-6" d="M559.6,2704a0.83,0.83,0,0,1-.06.25,0.66,0.66,0,0,1-.2.2,0.82,0.82,0,0,1-.25.06V2704h0.51Z" transform="translate(-507.38 -2465.65)"/>
        <polygon class="cls-6" points="51.71 237.86 51.71 238.37 51.71 238.88 29.84 238.88 29.84 238.37 29.84 237.86 51.71 237.86 51.71 237.86"/>
        <path class="cls-6" d="M537.22,2704.53a0.82,0.82,0,0,1-.25-0.06,0.66,0.66,0,0,1-.2-0.2,0.83,0.83,0,0,1-.06-0.25h0.51v0.51h0Z" transform="translate(-507.38 -2465.65)"/>
        <polygon class="cls-6" points="30.35 238.37 29.84 238.37 29.33 238.37 29.33 144.71 29.84 144.71 30.35 144.71 30.35 238.37 30.35 238.37"/>
        <polygon class="cls-5" points="64.64 74.96 86.51 74.96 86.51 144.71 64.64 144.71 64.64 74.96 64.64 74.96"/>
        <path class="cls-6" d="M571.52,2540.61a0.83,0.83,0,0,1,.06-0.25,0.66,0.66,0,0,1,.2-0.2,0.82,0.82,0,0,1,.25-0.06v0.51h-0.51Z" transform="translate(-507.38 -2465.65)"/>
        <polygon class="cls-6" points="64.64 75.47 64.64 74.96 64.64 74.45 86.51 74.45 86.51 74.96 86.51 75.47 64.64 75.47 64.64 75.47"/>
        <path class="cls-6" d="M593.89,2540.1a0.82,0.82,0,0,1,.25.06,0.66,0.66,0,0,1,.2.2,0.83,0.83,0,0,1,.06.25h-0.51v-0.51h0Z" transform="translate(-507.38 -2465.65)"/>
        <polygon class="cls-6" points="86 74.96 86.51 74.96 87.02 74.96 87.02 144.71 86.51 144.71 86 144.71 86 74.96 86 74.96"/>
        <path class="cls-6" d="M594.4,2610.36a0.83,0.83,0,0,1-.06.25,0.66,0.66,0,0,1-.2.2,0.82,0.82,0,0,1-.25.06v-0.51h0.51Z" transform="translate(-507.38 -2465.65)"/>
        <polygon class="cls-6" points="86.51 144.2 86.51 144.71 86.51 145.21 64.64 145.21 64.64 144.71 64.64 144.2 86.51 144.2 86.51 144.2"/>
        <path class="cls-6" d="M572,2610.87a0.82,0.82,0,0,1-.25-0.06,0.66,0.66,0,0,1-.2-0.2,0.83,0.83,0,0,1-.06-0.25H572v0.51h0Z" transform="translate(-507.38 -2465.65)"/>
        <polygon class="cls-6" points="65.15 144.71 64.64 144.71 64.14 144.71 64.14 74.96 64.64 74.96 65.15 74.96 65.15 144.71 65.15 144.71"/>
        <polygon class="cls-5" points="99.45 28.14 121.31 28.14 121.31 74.96 99.45 74.96 99.45 28.14 99.45 28.14"/>
        <path class="cls-6" d="M606.32,2493.79a0.83,0.83,0,0,1,.06-0.25,0.66,0.66,0,0,1,.2-0.2,0.82,0.82,0,0,1,.25-0.06v0.51h-0.51Z" transform="translate(-507.38 -2465.65)"/>
        <polygon class="cls-6" points="99.45 28.65 99.45 28.14 99.45 27.63 121.31 27.63 121.31 28.14 121.31 28.65 99.45 28.65 99.45 28.65"/>
        <path class="cls-6" d="M628.7,2493.28a0.82,0.82,0,0,1,.25.06,0.66,0.66,0,0,1,.2.2,0.83,0.83,0,0,1,.06.25H628.7v-0.51h0Z" transform="translate(-507.38 -2465.65)"/>
        <polygon class="cls-6" points="120.81 28.14 121.31 28.14 121.82 28.14 121.82 74.96 121.31 74.96 120.81 74.96 120.81 28.14 120.81 28.14"/>
        <path class="cls-6" d="M629.2,2540.61a0.83,0.83,0,0,1-.06.25,0.66,0.66,0,0,1-.2.2,0.82,0.82,0,0,1-.25.06v-0.51h0.51Z" transform="translate(-507.38 -2465.65)"/>
        <polygon class="cls-6" points="121.31 74.45 121.31 74.96 121.31 75.47 99.45 75.47 99.45 74.96 99.45 74.45 121.31 74.45 121.31 74.45"/>
        <path class="cls-6" d="M606.83,2541.12a0.82,0.82,0,0,1-.25-0.06,0.66,0.66,0,0,1-.2-0.2,0.83,0.83,0,0,1-.06-0.25h0.51v0.51h0Z" transform="translate(-507.38 -2465.65)"/>
        <polygon class="cls-6" points="99.95 74.96 99.45 74.96 98.94 74.96 98.94 28.14 99.45 28.14 99.95 28.14 99.95 74.96 99.95 74.96"/>
        <polygon class="cls-5" points="134.25 28.14 157.1 28.14 157.1 238.37 134.25 238.37 134.25 28.14 134.25 28.14"/>
        <path class="cls-6" d="M641.12,2493.79a0.83,0.83,0,0,1,.06-0.25,0.66,0.66,0,0,1,.2-0.2,0.82,0.82,0,0,1,.25-0.06v0.51h-0.51Z" transform="translate(-507.38 -2465.65)"/>
        <polygon class="cls-6" points="134.25 28.65 134.25 28.14 134.25 27.63 157.1 27.63 157.1 28.14 157.1 28.65 134.25 28.65 134.25 28.65"/>
        <path class="cls-6" d="M664.49,2493.28a0.82,0.82,0,0,1,.25.06,0.66,0.66,0,0,1,.2.2,0.83,0.83,0,0,1,.06.25h-0.51v-0.51h0Z" transform="translate(-507.38 -2465.65)"/>
        <polygon class="cls-6" points="156.6 28.14 157.1 28.14 157.61 28.14 157.61 238.37 157.1 238.37 156.6 238.37 156.6 28.14 156.6 28.14"/>
        <path class="cls-6" d="M665,2704a0.83,0.83,0,0,1-.06.25,0.66,0.66,0,0,1-.2.2,0.82,0.82,0,0,1-.25.06V2704H665Z" transform="translate(-507.38 -2465.65)"/>
        <polygon class="cls-6" points="157.1 237.86 157.1 238.37 157.1 238.88 134.25 238.88 134.25 238.37 134.25 237.86 157.1 237.86 157.1 237.86"/>
        <path class="cls-6" d="M641.63,2704.53a0.82,0.82,0,0,1-.25-0.06,0.66,0.66,0,0,1-.2-0.2,0.83,0.83,0,0,1-.06-0.25h0.51v0.51h0Z" transform="translate(-507.38 -2465.65)"/>
        <polygon class="cls-6" points="134.76 238.37 134.25 238.37 133.74 238.37 133.74 28.14 134.25 28.14 134.76 28.14 134.76 238.37 134.76 238.37"/>
        <polygon class="cls-7" points="170.04 28.14 191.91 28.14 191.91 74.96 170.04 74.96 170.04 28.14 170.04 28.14"/>
        <path class="cls-6" d="M676.91,2493.79a0.83,0.83,0,0,1,.06-0.25,0.66,0.66,0,0,1,.2-0.2,0.82,0.82,0,0,1,.25-0.06v0.51h-0.51Z" transform="translate(-507.38 -2465.65)"/>
        <polygon class="cls-6" points="170.04 28.65 170.04 28.14 170.04 27.63 191.91 27.63 191.91 28.14 191.91 28.65 170.04 28.65 170.04 28.65"/>
        <path class="cls-6" d="M699.29,2493.28a0.82,0.82,0,0,1,.25.06,0.66,0.66,0,0,1,.2.2,0.83,0.83,0,0,1,.06.25h-0.51v-0.51h0Z" transform="translate(-507.38 -2465.65)"/>
        <polygon class="cls-6" points="191.4 28.14 191.91 28.14 192.41 28.14 192.41 74.96 191.91 74.96 191.4 74.96 191.4 28.14 191.4 28.14"/>
        <path class="cls-6" d="M699.8,2540.61a0.83,0.83,0,0,1-.06.25,0.66,0.66,0,0,1-.2.2,0.82,0.82,0,0,1-.25.06v-0.51h0.51Z" transform="translate(-507.38 -2465.65)"/>
        <polygon class="cls-6" points="191.91 74.45 191.91 74.96 191.91 75.47 170.04 75.47 170.04 74.96 170.04 74.45 191.91 74.45 191.91 74.45"/>
        <path class="cls-6" d="M677.42,2541.12a0.82,0.82,0,0,1-.25-0.06,0.66,0.66,0,0,1-.2-0.2,0.83,0.83,0,0,1-.06-0.25h0.51v0.51h0Z" transform="translate(-507.38 -2465.65)"/>
        <polygon class="cls-6" points="170.55 74.96 170.04 74.96 169.53 74.96 169.53 28.14 170.04 28.14 170.55 28.14 170.55 74.96 170.55 74.96"/>
        <polygon class="cls-8" points="204.84 74.96 226.71 74.96 226.71 121.81 204.84 121.81 204.84 74.96 204.84 74.96"/>
        <path class="cls-6" d="M711.72,2540.61a0.83,0.83,0,0,1,.06-0.25,0.66,0.66,0,0,1,.2-0.2,0.82,0.82,0,0,1,.25-0.06v0.51h-0.51Z" transform="translate(-507.38 -2465.65)"/>
        <polygon class="cls-6" points="204.84 75.47 204.84 74.96 204.84 74.45 226.71 74.45 226.71 74.96 226.71 75.47 204.84 75.47 204.84 75.47"/>
        <path class="cls-6" d="M734.09,2540.1a0.82,0.82,0,0,1,.25.06,0.66,0.66,0,0,1,.2.2,0.83,0.83,0,0,1,.06.25h-0.51v-0.51h0Z" transform="translate(-507.38 -2465.65)"/>
        <polygon class="cls-6" points="226.2 74.96 226.71 74.96 227.22 74.96 227.22 121.81 226.71 121.81 226.2 121.81 226.2 74.96 226.2 74.96"/>
        <path class="cls-6" d="M734.6,2587.46a0.83,0.83,0,0,1-.06.25,0.66,0.66,0,0,1-.2.2,0.82,0.82,0,0,1-.25.06v-0.51h0.51Z" transform="translate(-507.38 -2465.65)"/>
        <polygon class="cls-6" points="226.71 121.3 226.71 121.81 226.71 122.31 204.84 122.31 204.84 121.81 204.84 121.3 226.71 121.3 226.71 121.3"/>
        <path class="cls-6" d="M712.23,2588a0.82,0.82,0,0,1-.25-0.06,0.66,0.66,0,0,1-.2-0.2,0.83,0.83,0,0,1-.06-0.25h0.51V2588h0Z" transform="translate(-507.38 -2465.65)"/>
        <polygon class="cls-6" points="205.35 121.81 204.84 121.81 204.34 121.81 204.34 74.96 204.84 74.96 205.35 74.96 205.35 121.81 205.35 121.81"/>
        <polygon class="cls-9" points="239.65 121.81 261.51 121.81 261.51 168.62 239.65 168.62 239.65 121.81 239.65 121.81"/>
        <path class="cls-6" d="M746.52,2587.46a0.83,0.83,0,0,1,.06-0.25,0.66,0.66,0,0,1,.2-0.2,0.82,0.82,0,0,1,.25-0.06v0.51h-0.51Z" transform="translate(-507.38 -2465.65)"/>
        <polygon class="cls-6" points="239.65 122.31 239.65 121.81 239.65 121.3 261.51 121.3 261.51 121.81 261.51 122.31 239.65 122.31 239.65 122.31"/>
        <path class="cls-6" d="M768.9,2586.95a0.82,0.82,0,0,1,.25.06,0.66,0.66,0,0,1,.2.2,0.83,0.83,0,0,1,.06.25H768.9v-0.51h0Z" transform="translate(-507.38 -2465.65)"/>
        <polygon class="cls-6" points="261.01 121.81 261.51 121.81 262.02 121.81 262.02 168.62 261.51 168.62 261.01 168.62 261.01 121.81 261.01 121.81"/>
        <path class="cls-6" d="M769.4,2634.27a0.83,0.83,0,0,1-.06.25,0.66,0.66,0,0,1-.2.2,0.82,0.82,0,0,1-.25.06v-0.51h0.51Z" transform="translate(-507.38 -2465.65)"/>
        <polygon class="cls-6" points="261.51 168.11 261.51 168.62 261.51 169.13 239.65 169.13 239.65 168.62 239.65 168.11 261.51 168.11 261.51 168.11"/>
        <path class="cls-6" d="M747,2634.78a0.82,0.82,0,0,1-.25-0.06,0.66,0.66,0,0,1-.2-0.2,0.83,0.83,0,0,1-.06-0.25H747v0.51h0Z" transform="translate(-507.38 -2465.65)"/>
        <polygon class="cls-6" points="240.15 168.62 239.65 168.62 239.14 168.62 239.14 121.81 239.65 121.81 240.15 121.81 240.15 168.62 240.15 168.62"/>
        <polygon class="cls-10" points="274.45 168.62 296.32 168.62 296.32 238.37 274.45 238.37 274.45 168.62 274.45 168.62"/>
        <path class="cls-6" d="M781.33,2634.27a0.83,0.83,0,0,1,.06-0.25,0.66,0.66,0,0,1,.2-0.2,0.82,0.82,0,0,1,.25-0.06v0.51h-0.51Z" transform="translate(-507.38 -2465.65)"/>
        <polygon class="cls-6" points="274.45 169.13 274.45 168.62 274.45 168.11 296.32 168.11 296.32 168.62 296.32 169.13 274.45 169.13 274.45 169.13"/>
        <path class="cls-6" d="M803.7,2633.77a0.82,0.82,0,0,1,.25.06,0.66,0.66,0,0,1,.2.2,0.83,0.83,0,0,1,.06.25H803.7v-0.51h0Z" transform="translate(-507.38 -2465.65)"/>
        <polygon class="cls-6" points="295.81 168.62 296.32 168.62 296.82 168.62 296.82 238.37 296.32 238.37 295.81 238.37 295.81 168.62 295.81 168.62"/>
        <path class="cls-6" d="M804.21,2704a0.83,0.83,0,0,1-.06.25,0.66,0.66,0,0,1-.2.2,0.82,0.82,0,0,1-.25.06V2704h0.51Z" transform="translate(-507.38 -2465.65)"/>
        <polygon class="cls-6" points="296.32 237.86 296.32 238.37 296.32 238.88 274.45 238.88 274.45 238.37 274.45 237.86 296.32 237.86 296.32 237.86"/>
        <path class="cls-6" d="M781.83,2704.53a0.82,0.82,0,0,1-.25-0.06,0.66,0.66,0,0,1-.2-0.2,0.83,0.83,0,0,1-.06-0.25h0.51v0.51h0Z" transform="translate(-507.38 -2465.65)"/>
        <polygon class="cls-6" points="274.96 238.37 274.45 238.37 273.94 238.37 273.94 168.62 274.45 168.62 274.96 168.62 274.96 238.37 274.96 238.37"/>
    </g>
    <g class="cls-11">
        <polygon class="cls-6" points="23.36 5.21 23.86 5.21 24.37 5.21 24.37 238.37 23.86 238.37 23.36 238.37 23.36 5.21 23.36 5.21"/>
        <polygon class="cls-6" points="19.89 238.88 19.89 238.37 19.89 237.86 23.86 237.86 23.86 238.37 23.86 238.88 19.89 238.88 19.89 238.88"/>
        <polygon class="cls-6" points="19.89 192.06 19.89 191.55 19.89 191.04 23.86 191.04 23.86 191.55 23.86 192.06 19.89 192.06 19.89 192.06"/>
        <polygon class="cls-6" points="19.89 145.21 19.89 144.71 19.89 144.2 23.86 144.2 23.86 144.71 23.86 145.21 19.89 145.21 19.89 145.21"/>
        <polygon class="cls-6" points="19.89 99.38 19.89 98.88 19.89 98.37 23.86 98.37 23.86 98.88 23.86 99.38 19.89 99.38 19.89 99.38"/>
        <polygon class="cls-6" points="19.89 52.54 19.89 52.03 19.89 51.52 23.86 51.52 23.86 52.03 23.86 52.54 19.89 52.54 19.89 52.54"/>
        <polygon class="cls-6" points="19.89 5.72 19.89 5.21 19.89 4.7 23.86 4.7 23.86 5.21 23.86 5.72 19.89 5.72 19.89 5.72"/>
        <polygon class="cls-6" points="23.86 238.88 23.86 238.37 23.86 237.86 303.28 237.86 303.28 238.37 303.28 238.88 23.86 238.88 23.86 238.88"/>
        <polygon class="cls-6" points="24.37 242.35 23.86 242.35 23.36 242.35 23.36 238.37 23.86 238.37 24.37 238.37 24.37 242.35 24.37 242.35"/>
        <polygon class="cls-6" points="59.17 242.35 58.67 242.35 58.16 242.35 58.16 238.37 58.67 238.37 59.17 238.37 59.17 242.35 59.17 242.35"/>
        <polygon class="cls-6" points="93.98 242.35 93.47 242.35 92.96 242.35 92.96 238.37 93.47 238.37 93.98 238.37 93.98 242.35 93.98 242.35"/>
        <polygon class="cls-6" points="128.78 242.35 128.28 242.35 127.77 242.35 127.77 238.37 128.28 238.37 128.78 238.37 128.78 242.35 128.78 242.35"/>
        <polygon class="cls-6" points="164.57 242.35 164.06 242.35 163.56 242.35 163.56 238.37 164.06 238.37 164.57 238.37 164.57 242.35 164.57 242.35"/>
        <polygon class="cls-6" points="199.38 242.35 198.87 242.35 198.36 242.35 198.36 238.37 198.87 238.37 199.38 238.37 199.38 242.35 199.38 242.35"/>
        <polygon class="cls-6" points="234.18 242.35 233.67 242.35 233.16 242.35 233.16 238.37 233.67 238.37 234.18 238.37 234.18 242.35 234.18 242.35"/>
        <polygon class="cls-6" points="268.98 242.35 268.48 242.35 267.97 242.35 267.97 238.37 268.48 238.37 268.98 238.37 268.98 242.35 268.98 242.35"/>
        <polygon class="cls-6" points="303.79 242.35 303.28 242.35 302.77 242.35 302.77 238.37 303.28 238.37 303.79 238.37 303.79 242.35 303.79 242.35"/>
    </g>
    <g class="cls-12">
        <circle class="cls-13" cx="-13.93" cy="-22.69"/>
        <text class="cls-14" transform="translate(37.79 196.91) scale(1.07 1)">4</text>
    </g>
    <g class="cls-15">
        <circle class="cls-13" cx="-13.93" cy="-22.69"/>
        <text class="cls-14" transform="translate(72.59 115.19) scale(1.07 1)">3</text>
    </g>
    <g class="cls-16">
        <circle class="cls-13" cx="-13.93" cy="-22.69"/>
        <text class="cls-14" transform="translate(107.39 56.41) scale(1.07 1)">2</text>
    </g>
    <g class="cls-17">
        <circle class="cls-13" cx="-13.93" cy="-22.69"/>
        <text class="cls-14" transform="translate(142.2 138.13) scale(1.07 1)">9</text>
    </g>
    <g class="cls-18">
        <circle class="cls-13" cx="-13.93" cy="-22.69"/>
        <text class="cls-19" transform="translate(177.98 56.41) scale(1.07 1)">2</text>
    </g>
    <g class="cls-20">
        <circle class="cls-13" cx="-13.93" cy="-22.69"/>
        <text class="cls-14" transform="translate(282.4 208.86) scale(1.07 1)">3</text>
    </g>
    <g class="cls-21">
        <circle class="cls-13" cx="-13.93" cy="-22.69"/>
        <text class="cls-14" transform="translate(247.59 150.07) scale(1.07 1)">2</text>
    </g>
    <g class="cls-22">
        <circle class="cls-13" cx="-13.93" cy="-22.69"/>
        <text class="cls-19" transform="translate(212.79 103.25) scale(1.07 1)">2</text>
    </g>
    <g class="cls-11">
        <circle class="cls-13" cx="-13.93" cy="-22.69"/>
        <text class="cls-14" transform="translate(6.95 243.73) scale(1.07 1)">0</text>
        <circle class="cls-13" cx="-13.93" cy="-22.69"/>
        <text class="cls-14" transform="translate(6.95 196.91) scale(1.07 1)">2</text>
        <circle class="cls-13" cx="-13.93" cy="-22.69"/>
        <text class="cls-14" transform="translate(6.95 150.07) scale(1.07 1)">4</text>
        <circle class="cls-13" cx="-13.93" cy="-22.69"/>
        <text class="cls-14" transform="translate(6.95 104.24) scale(1.07 1)">6</text>
        <circle class="cls-13" cx="-13.93" cy="-22.69"/>
        <text class="cls-14" transform="translate(6.95 57.4) scale(1.07 1)">8</text>
        <circle class="cls-13" cx="-13.93" cy="-22.69"/>
        <text class="cls-14" transform="translate(0 10.58) scale(1.07 1)">1<tspan x="6.53" y="0">0</tspan></text>
    </g>
    <polygon class="cls-6" points="84.58 74.56 84.58 74.37 84.58 74.18 89.88 74.18 89.88 74.37 89.88 74.56 84.58 74.56 84.58 74.56"/>
    <polygon class="cls-6" points="93.85 74.56 93.85 74.37 93.85 74.18 97.59 74.18 97.59 74.37 97.59 74.56 93.85 74.56 93.85 74.56"/>
    <polygon class="cls-6" points="49.55 144.36 49.55 144.17 49.55 143.98 54.84 143.98 54.84 144.17 54.84 144.36 49.55 144.36 49.55 144.36"/>
    <polygon class="cls-6" points="58.82 144.36 58.82 144.17 58.82 143.98 62.56 143.98 62.56 144.17 62.56 144.36 58.82 144.36 58.82 144.36"/>
    <polygon class="cls-6" points="119.61 27.67 119.61 27.48 119.61 27.29 124.91 27.29 124.91 27.48 124.91 27.67 119.61 27.67 119.61 27.67"/>
    <polygon class="cls-6" points="128.88 27.67 128.88 27.48 128.88 27.29 132.63 27.29 132.63 27.48 132.63 27.67 128.88 27.67 128.88 27.67"/>
    <polygon class="cls-6" points="155.63 27.67 155.63 27.48 155.63 27.29 160.92 27.29 160.92 27.48 160.92 27.67 155.63 27.67 155.63 27.67"/>
    <polygon class="cls-6" points="164.9 27.67 164.9 27.48 164.9 27.29 168.64 27.29 168.64 27.48 168.64 27.67 164.9 27.67 164.9 27.67"/>
    <polygon class="cls-6" points="260.72 168.29 260.72 168.1 260.72 167.92 266.02 167.92 266.02 168.1 266.02 168.29 260.72 168.29 260.72 168.29"/>
    <polygon class="cls-6" points="269.99 168.29 269.99 168.1 269.99 167.92 273.74 167.92 273.74 168.1 273.74 168.29 269.99 168.29 269.99 168.29"/>
    <polygon class="cls-6" points="190.66 74.56 190.66 74.37 190.66 74.18 195.96 74.18 195.96 74.37 195.96 74.56 190.66 74.56 190.66 74.56"/>
    <polygon class="cls-6" points="199.93 74.56 199.93 74.37 199.93 74.18 203.67 74.18 203.67 74.37 203.67 74.56 199.93 74.56 199.93 74.56"/>
    <polygon class="cls-6" points="225.69 121.41 225.69 121.22 225.69 121.03 230.99 121.03 230.99 121.22 230.99 121.41 225.69 121.41 225.69 121.41"/>
    <polygon class="cls-6" points="234.96 121.41 234.96 121.22 234.96 121.03 238.71 121.03 238.71 121.22 238.71 121.41 234.96 121.41 234.96 121.41"/>
</svg>