<svg id="Layer_1" data-name="Layer 1" xmlns="http://www.w3.org/2000/svg" viewBox="0 0 248.47 317.83">
    <defs>
        <style>.cls-1{font-size:14px;font-family:open sans;}.cls-2{fill:gray;}.cls-2,.cls-3,.cls-5,.cls-6{fill-rule:evenodd;}.cls-3{fill:#dc6e00;}.cls-4{fill:none;stroke:gray;stroke-linecap:square;stroke-miterlimit:10;stroke-width:0;}.cls-5{fill:#06c245;}.cls-6{fill:#b2b2b2;}.cls-7,.cls-9{fill:#fff;}.cls-8,.cls-9{font-size:11.56px;font-family:Arial;}</style>
    </defs>
    <title>Relationship-Calls-rl</title>
    <text class="cls-1" transform="translate(37.58 278.95) rotate(-90)">O<tspan x="9.84" y="0">v</tspan>
        <tspan x="16.44" y="0">e</tspan>
        <tspan x="23.45" y="0">r</tspan>
        <tspan x="27.89" y="0">due</tspan>
        <tspan x="20.05" y="12.4">T</tspan>
        <tspan x="26.11" y="12.4">asks</tspan>
        <tspan x="-26.8" y="39.6">T</tspan>
        <tspan x="-20.73" y="39.6">asks c</tspan>
        <tspan x="12.91" y="39.6">r</tspan>
        <tspan x="17.35" y="39.6">e</tspan>
        <tspan x="24.36" y="39.6">a</tspan>
        <tspan x="31.05" y="39.6">t</tspan>
        <tspan x="35.6" y="39.6">ed</tspan>
        <tspan x="8.33" y="52">b</tspan>
        <tspan x="16.2" y="52">y R</tspan>
        <tspan x="33.29" y="52">R</tspan>
        <tspan x="40.87" y="52">O</tspan>
        <tspan x="-5.54" y="76.4">T</tspan>
        <tspan x="0.52" y="76.4">asks due</tspan>
        <tspan x="-4.44" y="88.8">this </tspan>
        <tspan x="19.75" y="88.8">w</tspan>
        <tspan x="29.92" y="88.8">eek</tspan>
        <tspan x="22.18" y="120.4">T</tspan>
        <tspan x="28.14" y="120.4">otal</tspan>
        <tspan x="20.05" y="149.6">T</tspan>
        <tspan x="26.11" y="149.6">asks</tspan>
        <tspan x="-14.56" y="162">C</tspan>
        <tspan x="-6.59" y="162">omple</tspan>
        <tspan x="31.05" y="162">t</tspan>
        <tspan x="35.6" y="162">ed</tspan>
        <tspan x="-38.86" y="188.8">T</tspan>
        <tspan x="-32.8" y="188.8">asks No </tspan>
        <tspan x="14.43" y="188.8">S</tspan>
        <tspan x="21.29" y="188.8">t</tspan>
        <tspan x="25.93" y="188.8">a</tspan>
        <tspan x="32.62" y="188.8">tus</tspan>
        <tspan x="-5.91" y="201.2">/ </tspan>
        <tspan x="1.86" y="201.2">P</tspan>
        <tspan x="8.96" y="201.2">ending</tspan>
    </text>
    <polygon class="cls-2" points="203.25 110.7 203.25 110.54 203.25 110.37 207.99 110.37 207.99 110.54 207.99 110.7 203.25 110.7 203.25 110.7"/>
    <polygon class="cls-2" points="211.54 110.7 211.54 110.54 211.54 110.37 216.28 110.37 216.28 110.54 216.28 110.7 211.54 110.7 211.54 110.7"/>
    <polygon class="cls-2" points="128.04 6.73 128.04 6.56 128.04 6.39 132.78 6.39 132.78 6.56 132.78 6.73 128.04 6.73 128.04 6.73"/>
    <polygon class="cls-2" points="136.33 6.73 136.33 6.56 136.33 6.39 141.07 6.39 141.07 6.56 141.07 6.73 136.33 6.73 136.33 6.73"/>
    <polygon class="cls-2" points="165.64 6.73 165.64 6.56 165.64 6.39 170.38 6.39 170.38 6.56 170.38 6.73 165.64 6.73 165.64 6.73"/>
    <polygon class="cls-2" points="173.94 6.73 173.94 6.56 173.94 6.39 178.67 6.39 178.67 6.56 178.67 6.73 173.94 6.73 173.94 6.73"/>
    <polygon class="cls-2" points="89.52 59.17 89.52 59 89.52 58.83 94.26 58.83 94.26 59 94.26 59.17 89.52 59.17 89.52 59.17"/>
    <polygon class="cls-2" points="97.81 59.17 97.81 59 97.81 58.83 102.55 58.83 102.55 59 102.55 59.17 97.81 59.17 97.81 59.17"/>
    <polygon class="cls-2" points="51.92 110.7 51.92 110.54 51.92 110.37 56.66 110.37 56.66 110.54 56.66 110.7 51.92 110.7 51.92 110.7"/>
    <polygon class="cls-2" points="60.21 110.7 60.21 110.54 60.21 110.37 64.95 110.37 64.95 110.54 64.95 110.7 60.21 110.7 60.21 110.7"/>
    <polygon class="cls-3" points="28.63 110.54 51.92 110.54 51.92 214.52 28.63 214.52 28.63 110.54 28.63 110.54"/>
    <polyline class="cls-4" points="28.63 110.54 51.92 110.54 51.92 214.52 28.63 214.52 28.63 110.54"/>
    <polygon class="cls-3" points="66.23 58.09 89.52 58.09 89.52 110.54 66.23 110.54 66.23 58.09 66.23 58.09"/>
    <polyline class="cls-4" points="66.23 58.09 89.52 58.09 89.52 110.54 66.23 110.54 66.23 58.09"/>
    <polygon class="cls-3" points="103.84 6.56 128.01 6.56 128.01 58.09 103.84 58.09 103.84 6.56 103.84 6.56"/>
    <polyline class="cls-4" points="103.84 6.56 128.01 6.56 128.01 58.09 103.84 58.09 103.84 6.56"/>
    <polygon class="cls-3" points="142.36 6.56 165.61 6.56 165.61 214.52 142.36 214.52 142.36 6.56 142.36 6.56"/>
    <polyline class="cls-4" points="142.36 6.56 165.61 6.56 165.61 214.52 142.36 214.52 142.36 6.56"/>
    <polygon class="cls-5" points="179.96 6.56 203.21 6.56 203.21 110.54 179.96 110.54 179.96 6.56 179.96 6.56"/>
    <polyline class="cls-4" points="179.96 6.56 203.21 6.56 203.21 110.54 179.96 110.54 179.96 6.56"/>
    <polygon class="cls-6" points="217.56 110.54 240.82 110.54 240.82 214.52 217.56 214.52 217.56 110.54 217.56 110.54"/>
    <polyline class="cls-4" points="217.56 110.54 240.82 110.54 240.82 214.52 217.56 214.52 217.56 110.54"/>
    <polygon class="cls-2" points="21.02 6.56 21.46 6.56 21.93 6.56 21.93 214.52 21.46 214.52 21.02 214.52 21.02 6.56 21.02 6.56"/>
    <polygon class="cls-2" points="17.87 214.99 17.87 214.52 17.87 214.08 21.46 214.08 21.46 214.52 21.46 214.99 17.87 214.99 17.87 214.99"/>
    <polygon class="cls-2" points="17.87 163.45 17.87 162.98 17.87 162.54 21.46 162.54 21.46 162.98 21.46 163.45 17.87 163.45 17.87 163.45"/>
    <polygon class="cls-2" points="17.87 111.01 17.87 110.54 17.87 110.1 21.46 110.1 21.46 110.54 21.46 111.01 17.87 111.01 17.87 111.01"/>
    <polygon class="cls-2" points="17.87 59.47 17.87 59 17.87 58.56 21.46 58.56 21.46 59 21.46 59.47 17.87 59.47 17.87 59.47"/>
    <polygon class="cls-2" points="17.87 7.03 17.87 6.56 17.87 6.12 21.46 6.12 21.46 6.56 21.46 7.03 17.87 7.03 17.87 7.03"/>
    <polygon class="cls-2" points="21.46 214.99 21.46 214.52 21.46 214.08 247.99 214.08 247.99 214.52 247.99 214.99 21.46 214.99 21.46 214.99"/>
    <polygon class="cls-2" points="21.93 218.08 21.46 218.08 21.02 218.08 21.02 214.52 21.46 214.52 21.93 214.52 21.93 218.08 21.93 218.08"/>
    <polygon class="cls-2" points="59.53 218.08 59.06 218.08 58.62 218.08 58.62 214.52 59.06 214.52 59.53 214.52 59.53 218.08 59.53 218.08"/>
    <polygon class="cls-2" points="97.14 218.08 96.66 218.08 96.22 218.08 96.22 214.52 96.66 214.52 97.14 214.52 97.14 218.08 97.14 218.08"/>
    <polygon class="cls-2" points="135.66 218.08 135.18 218.08 134.74 218.08 134.74 214.52 135.18 214.52 135.66 214.52 135.66 218.08 135.66 218.08"/>
    <polygon class="cls-2" points="173.26 218.08 172.78 218.08 172.34 218.08 172.34 214.52 172.78 214.52 173.26 214.52 173.26 218.08 173.26 218.08"/>
    <polygon class="cls-2" points="210.86 218.08 210.39 218.08 209.95 218.08 209.95 214.52 210.39 214.52 210.86 214.52 210.86 218.08 210.86 218.08"/>
    <polygon class="cls-2" points="248.47 218.08 247.99 218.08 247.55 218.08 247.55 214.52 247.99 214.52 248.47 214.52 248.47 218.08 248.47 218.08"/>
    <circle class="cls-7" cx="-14.35" cy="-18.34"/>
    <text class="cls-8" transform="translate(33.98 165.47) scale(1.05 1)">2<tspan x="5.94" y="0">0</tspan></text>
    <circle class="cls-7" cx="-14.35" cy="-18.34"/>
    <text class="cls-8" transform="translate(147.71 113.9) scale(1.05 1)">4<tspan x="5.94" y="0">0</tspan></text>
    <circle class="cls-7" cx="-14.35" cy="-18.34"/>
    <text class="cls-8" transform="translate(222.95 165.47) scale(1.05 1)">2<tspan x="5.94" y="0">0</tspan></text>
    <circle class="cls-7" cx="-14.35" cy="-18.34"/>
    <text class="cls-9" transform="translate(185.34 61.45) scale(1.05 1)">2<tspan x="5.94" y="0">0</tspan></text>
    <circle class="cls-7" cx="-14.35" cy="-18.34"/>
    <text class="cls-8" transform="translate(109.2 35.69) scale(1.05 1)">1<tspan x="5.94" y="0">0</tspan></text>
    <circle class="cls-7" cx="-14.35" cy="-18.34"/>
    <text class="cls-8" transform="translate(71.6 87.25) scale(1.05 1)">1<tspan x="5.94" y="0">0</tspan></text>
    <circle class="cls-7" cx="-14.35" cy="-18.34"/>
    <text class="cls-8" transform="translate(6.26 217.91) scale(1.05 1)">0</text>
    <circle class="cls-7" cx="-14.35" cy="-18.34"/>
    <text class="cls-8" transform="translate(0 166.34) scale(1.05 1)">1<tspan x="5.94" y="0">0</tspan></text>
    <circle class="cls-7" cx="-14.35" cy="-18.34"/>
    <text class="cls-8" transform="translate(0 113.9) scale(1.05 1)">2<tspan x="5.94" y="0">0</tspan></text>
    <circle class="cls-7" cx="-14.35" cy="-18.34"/>
    <text class="cls-8" transform="translate(0 62.36) scale(1.05 1)">3<tspan x="5.94" y="0">0</tspan></text>
    <circle class="cls-7" cx="-14.35" cy="-18.34"/>
    <text class="cls-8" transform="translate(0 9.92) scale(1.05 1)">4<tspan x="5.94" y="0">0</tspan></text>
</svg>