<svg id="Layer_1" data-name="Layer 1" xmlns="http://www.w3.org/2000/svg" xmlns:xlink="http://www.w3.org/1999/xlink" viewBox="0 0 242.9 338.27">
    <defs>
        <style>.cls-1,.cls-2{fill:none;}.cls-1{clip-rule:evenodd;}.cls-2,.cls-5,.cls-6,.cls-7,.cls-8{fill-rule:evenodd;}.cls-3{font-size:14px;font-family:open sans;}.cls-4{clip-path:url(#clip-path);}.cls-5{fill:#dc6e00;}.cls-6{fill:gray;}.cls-7{fill:#06c245;}.cls-8{fill:#b2b2b2;}.cls-9{clip-path:url(#clip-path-2);}.cls-10{clip-path:url(#clip-path-3);}.cls-11,.cls-17{fill:#fff;}.cls-12,.cls-17{font-size:12.96px;font-family:Calibri;}.cls-13{clip-path:url(#clip-path-4);}.cls-14{clip-path:url(#clip-path-5);}.cls-15{clip-path:url(#clip-path-6);}.cls-16{clip-path:url(#clip-path-7);}.cls-18{clip-path:url(#clip-path-8);}</style>
        <clipPath id="clip-path" transform="translate(-913.77 -2465.65)">
            <polygon class="cls-1" points="929.59 2467.87 1159.08 2467.87 1159.08 2704.98 929.59 2704.98 929.59 2467.87 929.59 2467.87"/>
        </clipPath>
        <clipPath id="clip-path-2" transform="translate(-913.77 -2465.65)">
            <polygon class="cls-1" points="897.93 2442.97 1167.02 2442.97 1167.02 2731.89 897.93 2731.89 897.93 2442.97 897.93 2442.97"/>
        </clipPath>
        <clipPath id="clip-path-3" transform="translate(-913.77 -2465.65)">
            <polygon class="cls-1" points="943.44 2633.29 956.28 2633.29 956.28 2658.16 943.44 2658.16 943.44 2633.29 943.44 2633.29"/>
        </clipPath>
        <clipPath id="clip-path-4" transform="translate(-913.77 -2465.65)">
            <polygon class="cls-1" points="981.04 2545.61 993.88 2545.61 993.88 2570.49 981.04 2570.49 981.04 2545.61 981.04 2545.61"/>
        </clipPath>
        <clipPath id="clip-path-5" transform="translate(-913.77 -2465.65)">
            <polygon class="cls-1" points="1018.64 2487.81 1031.48 2487.81 1031.48 2512.68 1018.64 2512.68 1018.64 2487.81 1018.64 2487.81"/>
        </clipPath>
        <clipPath id="clip-path-6" transform="translate(-913.77 -2465.65)">
            <polygon class="cls-1" points="1056.24 2575.48 1069.08 2575.48 1069.08 2600.36 1056.24 2600.36 1056.24 2575.48 1056.24 2575.48"/>
        </clipPath>
        <clipPath id="clip-path-7" transform="translate(-913.77 -2465.65)">
            <polygon class="cls-1" points="1093.84 2516.69 1106.68 2516.69 1106.68 2541.57 1093.84 2541.57 1093.84 2516.69 1093.84 2516.69"/>
        </clipPath>
        <clipPath id="clip-path-8" transform="translate(-913.77 -2465.65)">
            <polygon class="cls-1" points="1131.41 2633.29 1144.25 2633.29 1144.25 2658.16 1131.41 2658.16 1131.41 2633.29 1131.41 2633.29"/>
        </clipPath>
    </defs>
    <title>Relationship-Calls-r</title>
    <text class="cls-3" transform="translate(31.1 299.39) rotate(-90)">O<tspan x="9.84" y="0">v</tspan>
        <tspan x="16.44" y="0">e</tspan>
        <tspan x="23.45" y="0">r</tspan>
        <tspan x="27.89" y="0">due</tspan>
        <tspan x="20.05" y="12.4">T</tspan>
        <tspan x="26.11" y="12.4">asks</tspan>
        <tspan x="-26.8" y="39.6">T</tspan>
        <tspan x="-20.73" y="39.6">asks c</tspan>
        <tspan x="12.91" y="39.6">r</tspan>
        <tspan x="17.35" y="39.6">e</tspan>
        <tspan x="24.36" y="39.6">a</tspan>
        <tspan x="31.05" y="39.6">t</tspan>
        <tspan x="35.6" y="39.6">ed</tspan>
        <tspan x="8.33" y="52">b</tspan>
        <tspan x="16.2" y="52">y R</tspan>
        <tspan x="33.29" y="52">R</tspan>
        <tspan x="40.87" y="52">O</tspan>
        <tspan x="-5.54" y="76.4">T</tspan>
        <tspan x="0.52" y="76.4">asks due</tspan>
        <tspan x="-4.44" y="88.8">this </tspan>
        <tspan x="19.75" y="88.8">w</tspan>
        <tspan x="29.92" y="88.8">eek</tspan>
        <tspan x="22.18" y="120.4">T</tspan>
        <tspan x="28.14" y="120.4">otal</tspan>
        <tspan x="20.05" y="149.6">T</tspan>
        <tspan x="26.11" y="149.6">asks</tspan>
        <tspan x="-14.56" y="162">C</tspan>
        <tspan x="-6.59" y="162">omple</tspan>
        <tspan x="31.05" y="162">t</tspan>
        <tspan x="35.6" y="162">ed</tspan>
        <tspan x="-38.86" y="188.8">T</tspan>
        <tspan x="-32.8" y="188.8">asks No </tspan>
        <tspan x="14.43" y="188.8">S</tspan>
        <tspan x="21.29" y="188.8">t</tspan>
        <tspan x="25.93" y="188.8">a</tspan>
        <tspan x="32.62" y="188.8">tus</tspan>
        <tspan x="-5.91" y="201.2">/ </tspan>
        <tspan x="1.86" y="201.2">P</tspan>
        <tspan x="8.96" y="201.2">ending</tspan>
    </text>
    <g class="cls-4">
        <polygon class="cls-5" points="23.72 121.81 47.47 121.81 47.47 238.37 23.72 238.37 23.72 121.81 23.72 121.81"/>
        <path class="cls-6" d="M937,2587.46a0.83,0.83,0,0,1,.06-0.25,0.66,0.66,0,0,1,.2-0.2,0.81,0.81,0,0,1,.25-0.06v0.51H937Z" transform="translate(-913.77 -2465.65)"/>
        <polygon class="cls-6" points="23.72 122.31 23.72 121.81 23.72 121.3 47.47 121.3 47.47 121.81 47.47 122.31 23.72 122.31 23.72 122.31"/>
        <path class="cls-6" d="M961.24,2586.95a0.81,0.81,0,0,1,.25.06,0.66,0.66,0,0,1,.2.2,0.83,0.83,0,0,1,.06.25h-0.5v-0.51h0Z" transform="translate(-913.77 -2465.65)"/>
        <polygon class="cls-6" points="46.97 121.81 47.47 121.81 47.98 121.81 47.98 238.37 47.47 238.37 46.97 238.37 46.97 121.81 46.97 121.81"/>
        <path class="cls-6" d="M961.75,2704a0.83,0.83,0,0,1-.06.25,0.66,0.66,0,0,1-.2.2,0.81,0.81,0,0,1-.25.06V2704h0.5Z" transform="translate(-913.77 -2465.65)"/>
        <polygon class="cls-6" points="47.47 237.86 47.47 238.37 47.47 238.88 23.72 238.88 23.72 238.37 23.72 237.86 47.47 237.86 47.47 237.86"/>
        <path class="cls-6" d="M937.5,2704.53a0.81,0.81,0,0,1-.25-0.06,0.66,0.66,0,0,1-.2-0.2A0.83,0.83,0,0,1,937,2704h0.5v0.51h0Z" transform="translate(-913.77 -2465.65)"/>
        <polygon class="cls-6" points="24.23 238.37 23.72 238.37 23.22 238.37 23.22 121.81 23.72 121.81 24.23 121.81 24.23 238.37 24.23 238.37"/>
        <polygon class="cls-5" points="61.32 63.02 85.07 63.02 85.07 121.81 61.32 121.81 61.32 63.02 61.32 63.02"/>
        <path class="cls-6" d="M974.59,2528.67a0.83,0.83,0,0,1,.06-0.25,0.66,0.66,0,0,1,.2-0.2,0.81,0.81,0,0,1,.25-0.06v0.51h-0.5Z" transform="translate(-913.77 -2465.65)"/>
        <polygon class="cls-6" points="61.32 63.52 61.32 63.02 61.32 62.51 85.07 62.51 85.07 63.02 85.07 63.52 61.32 63.52 61.32 63.52"/>
        <path class="cls-6" d="M998.84,2528.16a0.81,0.81,0,0,1,.25.06,0.66,0.66,0,0,1,.2.2,0.83,0.83,0,0,1,.06.25h-0.5v-0.51h0Z" transform="translate(-913.77 -2465.65)"/>
        <polygon class="cls-6" points="84.57 63.02 85.07 63.02 85.58 63.02 85.58 121.81 85.07 121.81 84.57 121.81 84.57 63.02 84.57 63.02"/>
        <path class="cls-6" d="M999.35,2587.46a0.83,0.83,0,0,1-.06.25,0.66,0.66,0,0,1-.2.2,0.81,0.81,0,0,1-.25.06v-0.51h0.5Z" transform="translate(-913.77 -2465.65)"/>
        <polygon class="cls-6" points="85.07 121.3 85.07 121.81 85.07 122.31 61.32 122.31 61.32 121.81 61.32 121.3 85.07 121.3 85.07 121.3"/>
        <path class="cls-6" d="M975.1,2588a0.81,0.81,0,0,1-.25-0.06,0.66,0.66,0,0,1-.2-0.2,0.83,0.83,0,0,1-.06-0.25h0.5V2588h0Z" transform="translate(-913.77 -2465.65)"/>
        <polygon class="cls-6" points="61.83 121.81 61.32 121.81 60.82 121.81 60.82 63.02 61.32 63.02 61.83 63.02 61.83 121.81 61.83 121.81"/>
        <polygon class="cls-5" points="98.92 5.21 122.67 5.21 122.67 63.02 98.92 63.02 98.92 5.21 98.92 5.21"/>
        <path class="cls-6" d="M1012.19,2470.86a0.83,0.83,0,0,1,.06-0.25,0.66,0.66,0,0,1,.2-0.2,0.81,0.81,0,0,1,.25-0.06v0.51h-0.5Z" transform="translate(-913.77 -2465.65)"/>
        <polygon class="cls-6" points="98.92 5.72 98.92 5.21 98.92 4.7 122.67 4.7 122.67 5.21 122.67 5.72 98.92 5.72 98.92 5.72"/>
        <path class="cls-6" d="M1036.44,2470.36a0.81,0.81,0,0,1,.25.06,0.66,0.66,0,0,1,.2.2,0.83,0.83,0,0,1,.06.25h-0.5v-0.51h0Z" transform="translate(-913.77 -2465.65)"/>
        <polygon class="cls-6" points="122.17 5.21 122.67 5.21 123.17 5.21 123.17 63.02 122.67 63.02 122.17 63.02 122.17 5.21 122.17 5.21"/>
        <path class="cls-6" d="M1036.95,2528.67a0.83,0.83,0,0,1-.06.25,0.66,0.66,0,0,1-.2.2,0.81,0.81,0,0,1-.25.06v-0.51h0.5Z" transform="translate(-913.77 -2465.65)"/>
        <polygon class="cls-6" points="122.67 62.51 122.67 63.02 122.67 63.52 98.92 63.52 98.92 63.02 98.92 62.51 122.67 62.51 122.67 62.51"/>
        <path class="cls-6" d="M1012.7,2529.17a0.81,0.81,0,0,1-.25-0.06,0.66,0.66,0,0,1-.2-0.2,0.83,0.83,0,0,1-.06-0.25h0.5v0.51h0Z" transform="translate(-913.77 -2465.65)"/>
        <polygon class="cls-6" points="99.43 63.02 98.92 63.02 98.42 63.02 98.42 5.21 98.92 5.21 99.43 5.21 99.43 63.02 99.43 63.02"/>
        <polygon class="cls-5" points="136.52 5.21 160.27 5.21 160.27 238.37 136.52 238.37 136.52 5.21 136.52 5.21"/>
        <path class="cls-6" d="M1049.79,2470.86a0.83,0.83,0,0,1,.06-0.25,0.66,0.66,0,0,1,.2-0.2,0.81,0.81,0,0,1,.25-0.06v0.51h-0.5Z" transform="translate(-913.77 -2465.65)"/>
        <polygon class="cls-6" points="136.52 5.72 136.52 5.21 136.52 4.7 160.27 4.7 160.27 5.21 160.27 5.72 136.52 5.72 136.52 5.72"/>
        <path class="cls-6" d="M1074,2470.36a0.81,0.81,0,0,1,.25.06,0.66,0.66,0,0,1,.2.2,0.83,0.83,0,0,1,.06.25H1074v-0.51h0Z" transform="translate(-913.77 -2465.65)"/>
        <polygon class="cls-6" points="159.76 5.21 160.27 5.21 160.77 5.21 160.77 238.37 160.27 238.37 159.76 238.37 159.76 5.21 159.76 5.21"/>
        <path class="cls-6" d="M1074.55,2704a0.83,0.83,0,0,1-.06.25,0.66,0.66,0,0,1-.2.2,0.81,0.81,0,0,1-.25.06V2704h0.5Z" transform="translate(-913.77 -2465.65)"/>
        <polygon class="cls-6" points="160.27 237.86 160.27 238.37 160.27 238.88 136.52 238.88 136.52 238.37 136.52 237.86 160.27 237.86 160.27 237.86"/>
        <path class="cls-6" d="M1050.29,2704.53a0.81,0.81,0,0,1-.25-0.06,0.66,0.66,0,0,1-.2-0.2,0.83,0.83,0,0,1-.06-0.25h0.5v0.51h0Z" transform="translate(-913.77 -2465.65)"/>
        <polygon class="cls-6" points="137.03 238.37 136.52 238.37 136.02 238.37 136.02 5.21 136.52 5.21 137.03 5.21 137.03 238.37 137.03 238.37"/>
        <polygon class="cls-7" points="174.12 5.21 197.87 5.21 197.87 121.81 174.12 121.81 174.12 5.21 174.12 5.21"/>
        <path class="cls-6" d="M1087.39,2470.86a0.83,0.83,0,0,1,.06-0.25,0.66,0.66,0,0,1,.2-0.2,0.81,0.81,0,0,1,.25-0.06v0.51h-0.5Z" transform="translate(-913.77 -2465.65)"/>
        <polygon class="cls-6" points="174.12 5.72 174.12 5.21 174.12 4.7 197.87 4.7 197.87 5.21 197.87 5.72 174.12 5.72 174.12 5.72"/>
        <path class="cls-6" d="M1111.64,2470.36a0.81,0.81,0,0,1,.25.06,0.66,0.66,0,0,1,.2.2,0.83,0.83,0,0,1,.06.25h-0.5v-0.51h0Z" transform="translate(-913.77 -2465.65)"/>
        <polygon class="cls-6" points="197.37 5.21 197.87 5.21 198.37 5.21 198.37 121.81 197.87 121.81 197.37 121.81 197.37 5.21 197.37 5.21"/>
        <path class="cls-6" d="M1112.15,2587.46a0.83,0.83,0,0,1-.06.25,0.66,0.66,0,0,1-.2.2,0.81,0.81,0,0,1-.25.06v-0.51h0.5Z" transform="translate(-913.77 -2465.65)"/>
        <polygon class="cls-6" points="197.87 121.3 197.87 121.81 197.87 122.31 174.12 122.31 174.12 121.81 174.12 121.3 197.87 121.3 197.87 121.3"/>
        <path class="cls-6" d="M1087.89,2588a0.81,0.81,0,0,1-.25-0.06,0.66,0.66,0,0,1-.2-0.2,0.83,0.83,0,0,1-.06-0.25h0.5V2588h0Z" transform="translate(-913.77 -2465.65)"/>
        <polygon class="cls-6" points="174.63 121.81 174.12 121.81 173.62 121.81 173.62 5.21 174.12 5.21 174.63 5.21 174.63 121.81 174.63 121.81"/>
        <polygon class="cls-8" points="211.72 121.81 235.47 121.81 235.47 238.37 211.72 238.37 211.72 121.81 211.72 121.81"/>
        <path class="cls-6" d="M1125,2587.46a0.83,0.83,0,0,1,.06-0.25,0.66,0.66,0,0,1,.2-0.2,0.81,0.81,0,0,1,.25-0.06v0.51H1125Z" transform="translate(-913.77 -2465.65)"/>
        <polygon class="cls-6" points="211.72 122.31 211.72 121.81 211.72 121.3 235.47 121.3 235.47 121.81 235.47 122.31 211.72 122.31 211.72 122.31"/>
        <path class="cls-6" d="M1149.24,2586.95a0.81,0.81,0,0,1,.25.06,0.66,0.66,0,0,1,.2.2,0.83,0.83,0,0,1,.06.25h-0.5v-0.51h0Z" transform="translate(-913.77 -2465.65)"/>
        <polygon class="cls-6" points="234.96 121.81 235.47 121.81 235.97 121.81 235.97 238.37 235.47 238.37 234.96 238.37 234.96 121.81 234.96 121.81"/>
        <path class="cls-6" d="M1149.75,2704a0.83,0.83,0,0,1-.06.25,0.66,0.66,0,0,1-.2.2,0.81,0.81,0,0,1-.25.06V2704h0.5Z" transform="translate(-913.77 -2465.65)"/>
        <polygon class="cls-6" points="235.47 237.86 235.47 238.37 235.47 238.88 211.72 238.88 211.72 238.37 211.72 237.86 235.47 237.86 235.47 237.86"/>
        <path class="cls-6" d="M1125.49,2704.53a0.81,0.81,0,0,1-.25-0.06,0.66,0.66,0,0,1-.2-0.2,0.83,0.83,0,0,1-.06-0.25h0.5v0.51h0Z" transform="translate(-913.77 -2465.65)"/>
        <polygon class="cls-6" points="212.22 238.37 211.72 238.37 211.22 238.37 211.22 121.81 211.72 121.81 212.22 121.81 212.22 238.37 212.22 238.37"/>
    </g>
    <g class="cls-9">
        <polygon class="cls-6" points="16.29 5.21 16.8 5.21 17.3 5.21 17.3 238.37 16.8 238.37 16.29 238.37 16.29 5.21 16.29 5.21"/>
        <polygon class="cls-6" points="12.84 238.88 12.84 238.37 12.84 237.86 16.8 237.86 16.8 238.37 16.8 238.88 12.84 238.88 12.84 238.88"/>
        <polygon class="cls-6" points="12.84 181.07 12.84 180.57 12.84 180.06 16.8 180.06 16.8 180.57 16.8 181.07 12.84 181.07 12.84 181.07"/>
        <polygon class="cls-6" points="12.84 122.31 12.84 121.81 12.84 121.3 16.8 121.3 16.8 121.81 16.8 122.31 12.84 122.31 12.84 122.31"/>
        <polygon class="cls-6" points="12.84 64.51 12.84 64 12.84 63.49 16.8 63.49 16.8 64 16.8 64.51 12.84 64.51 12.84 64.51"/>
        <polygon class="cls-6" points="12.84 5.72 12.84 5.21 12.84 4.7 16.8 4.7 16.8 5.21 16.8 5.72 12.84 5.72 12.84 5.72"/>
        <polygon class="cls-6" points="16.8 238.88 16.8 238.37 16.8 237.86 242.39 237.86 242.39 238.37 242.39 238.88 16.8 238.88 16.8 238.88"/>
        <polygon class="cls-6" points="17.3 242.35 16.8 242.35 16.29 242.35 16.29 238.37 16.8 238.37 17.3 238.37 17.3 242.35 17.3 242.35"/>
        <polygon class="cls-6" points="54.9 242.35 54.4 242.35 53.89 242.35 53.89 238.37 54.4 238.37 54.9 238.37 54.9 242.35 54.9 242.35"/>
        <polygon class="cls-6" points="92.5 242.35 92 242.35 91.49 242.35 91.49 238.37 92 238.37 92.5 238.37 92.5 242.35 92.5 242.35"/>
        <polygon class="cls-6" points="130.1 242.35 129.6 242.35 129.09 242.35 129.09 238.37 129.6 238.37 130.1 238.37 130.1 242.35 130.1 242.35"/>
        <polygon class="cls-6" points="167.7 242.35 167.19 242.35 166.69 242.35 166.69 238.37 167.19 238.37 167.7 238.37 167.7 242.35 167.7 242.35"/>
        <polygon class="cls-6" points="205.3 242.35 204.79 242.35 204.29 242.35 204.29 238.37 204.79 238.37 205.3 238.37 205.3 242.35 205.3 242.35"/>
        <polygon class="cls-6" points="242.9 242.35 242.39 242.35 241.89 242.35 241.89 238.37 242.39 238.37 242.9 238.37 242.9 242.35 242.9 242.35"/>
    </g>
    <g class="cls-10">
        <circle class="cls-11" cx="-15.84" cy="-22.69"/>
        <text class="cls-12" transform="translate(32.64 184.94) scale(1.06 1)">2</text>
    </g>
    <g class="cls-13">
        <circle class="cls-11" cx="-15.84" cy="-22.69"/>
        <text class="cls-12" transform="translate(70.24 97.27) scale(1.06 1)">1</text>
    </g>
    <g class="cls-14">
        <circle class="cls-11" cx="-15.84" cy="-22.69"/>
        <text class="cls-12" transform="translate(107.84 39.47) scale(1.06 1)">1</text>
    </g>
    <g class="cls-15">
        <circle class="cls-11" cx="-15.84" cy="-22.69"/>
        <text class="cls-12" transform="translate(145.45 127.17) scale(1.06 1)">4</text>
    </g>
    <g class="cls-16">
        <circle class="cls-11" cx="-15.84" cy="-22.69"/>
        <text class="cls-17" transform="translate(183.01 68.38) scale(1.06 1)">2</text>
    </g>
    <g class="cls-18">
        <circle class="cls-11" cx="-15.84" cy="-22.69"/>
        <text class="cls-12" transform="translate(220.61 184.94) scale(1.06 1)">2</text>
    </g>
    <g class="cls-9">
        <circle class="cls-11" cx="-15.84" cy="-22.69"/>
        <text class="cls-12" transform="translate(0 243.73) scale(1.06 1)">0</text>
        <circle class="cls-11" cx="-15.84" cy="-22.69"/>
        <text class="cls-12" transform="translate(0 185.93) scale(1.06 1)">1</text>
        <circle class="cls-11" cx="-15.84" cy="-22.69"/>
        <text class="cls-12" transform="translate(0 127.17) scale(1.06 1)">2</text>
        <circle class="cls-11" cx="-15.84" cy="-22.69"/>
        <text class="cls-12" transform="translate(0 69.36) scale(1.06 1)">3</text>
        <circle class="cls-11" cx="-15.84" cy="-22.69"/>
        <text class="cls-12" transform="translate(0 10.58) scale(1.06 1)">4</text>
    </g>
    <polygon class="cls-6" points="122.28 4.84 122.28 4.65 122.28 4.46 127.55 4.46 127.55 4.65 127.55 4.84 122.28 4.84 122.28 4.84"/>
    <polygon class="cls-6" points="131.51 4.84 131.51 4.65 131.51 4.46 136.26 4.46 136.26 4.65 136.26 4.84 131.51 4.84 131.51 4.84"/>
    <polygon class="cls-6" points="84.39 63.66 84.39 63.47 84.39 63.28 89.67 63.28 89.67 63.47 89.67 63.66 84.39 63.66 84.39 63.66"/>
    <polygon class="cls-6" points="93.63 63.66 93.63 63.47 93.63 63.28 98.34 63.28 98.34 63.47 98.34 63.66 93.63 63.66 93.63 63.66"/>
    <polygon class="cls-6" points="160.2 4.84 160.2 4.65 160.2 4.46 165.47 4.46 165.47 4.65 165.47 4.84 160.2 4.84 160.2 4.84"/>
    <polygon class="cls-6" points="169.43 4.84 169.43 4.65 169.43 4.46 174.15 4.46 174.15 4.65 174.15 4.84 169.43 4.84 169.43 4.84"/>
    <polygon class="cls-6" points="198.08 121.46 198.08 121.27 198.08 121.08 203.36 121.08 203.36 121.27 203.36 121.46 198.08 121.46 198.08 121.46"/>
    <polygon class="cls-6" points="207.32 121.46 207.32 121.27 207.32 121.08 212.07 121.08 212.07 121.27 212.07 121.46 207.32 121.46 207.32 121.46"/>
    <polygon class="cls-6" points="46.51 121.46 46.51 121.27 46.51 121.08 51.78 121.08 51.78 121.27 51.78 121.46 46.51 121.46 46.51 121.46"/>
    <polygon class="cls-6" points="55.74 121.46 55.74 121.27 55.74 121.08 60.45 121.08 60.45 121.27 60.45 121.46 55.74 121.46 55.74 121.46"/>
</svg>