<svg id="Layer_1" data-name="Layer 1" xmlns="http://www.w3.org/2000/svg" viewBox="0 0 352.8 336.34">
    <defs>
        <style>.cls-1{font-size:14px;font-family:open sans;}.cls-2{fill:gray;}.cls-2,.cls-3,.cls-5,.cls-6,.cls-7,.cls-8{fill-rule:evenodd;}.cls-3{fill:#dc6e00;}.cls-4{fill:none;stroke:gray;stroke-linecap:square;stroke-miterlimit:10;stroke-width:0;}.cls-5{fill:#06c245;}.cls-6{fill:#feec00;}.cls-7{fill:#c41300;}.cls-8{fill:#b2b2b2;}.cls-11,.cls-9{fill:#fff;}.cls-10,.cls-11{font-size:11.56px;font-family:Arial;}</style>
    </defs>
    <title>Up-sell-Cross-sell-rl</title>
    <text class="cls-1" transform="translate(44.55 309.8) rotate(-90)">O<tspan x="9.84" y="0">v</tspan>
        <tspan x="16.44" y="0">e</tspan>
        <tspan x="23.45" y="0">r</tspan>
        <tspan x="27.89" y="0">due</tspan>
        <tspan x="50.51" y="0"> </tspan>
        <tspan x="52.91" y="0">T</tspan>
        <tspan x="58.97" y="0">asks</tspan>
        <tspan x="-26.53" y="37.2">T</tspan>
        <tspan x="-20.47" y="37.2">ask </tspan>
        <tspan x="1.36" y="37.2">D</tspan>
        <tspan x="10.72" y="37.2">ue this </tspan>
        <tspan x="52.61" y="37.2">w</tspan>
        <tspan x="62.78" y="37.2">eek</tspan>
        <tspan x="4.51" y="49.6">- R</tspan>
        <tspan x="19.31" y="49.6">R</tspan>
        <tspan x="26.88" y="49.6">O c</tspan>
        <tspan x="45.77" y="49.6">r</tspan>
        <tspan x="50.2" y="49.6">e</tspan>
        <tspan x="57.22" y="49.6">a</tspan>
        <tspan x="63.91" y="49.6">t</tspan>
        <tspan x="68.46" y="49.6">ed</tspan>
        <tspan x="-25.06" y="86.8">T</tspan>
        <tspan x="-19" y="86.8">ask due this </tspan>
        <tspan x="52.61" y="86.8">w</tspan>
        <tspan x="62.78" y="86.8">eek</tspan>
        <tspan x="-5.92" y="99.2">- </tspan>
        <tspan x="1.34" y="99.2">c</tspan>
        <tspan x="7.53" y="99.2">e</tspan>
        <tspan x="14.55" y="99.2">n</tspan>
        <tspan x="22.26" y="99.2">t</tspan>
        <tspan x="26.89" y="99.2">r</tspan>
        <tspan x="31.4" y="99.2">ally c</tspan>
        <tspan x="60.59" y="99.2">r</tspan>
        <tspan x="65.03" y="99.2">e</tspan>
        <tspan x="72.04" y="99.2">a</tspan>
        <tspan x="78.73" y="99.2">t</tspan>
        <tspan x="55.03" y="136.4">T</tspan>
        <tspan x="61" y="136.4">otal</tspan>
        <tspan x="23.17" y="173.6">Su</tspan>
        <tspan x="37.79" y="173.6">cc</tspan>
        <tspan x="50.16" y="173.6">essful</tspan>
        <tspan x="19.52" y="210.8">I</tspan>
        <tspan x="23" y="210.8">n </tspan>
        <tspan x="33.74" y="210.8">P</tspan>
        <tspan x="40.96" y="210.8">r</tspan>
        <tspan x="45.4" y="210.8">o</tspan>
        <tspan x="53.09" y="210.8">g</tspan>
        <tspan x="60.83" y="210.8">r</tspan>
        <tspan x="65.27" y="210.8">ess</tspan>
        <tspan x="48.94" y="248">F</tspan>
        <tspan x="55.13" y="248">ailed</tspan>
        <tspan x="-6.01" y="285.2">T</tspan>
        <tspan x="0.06" y="285.2">asks No </tspan>
        <tspan x="47.29" y="285.2">S</tspan>
        <tspan x="54.15" y="285.2">t</tspan>
        <tspan x="58.79" y="285.2">a</tspan>
        <tspan x="65.48" y="285.2">tus</tspan>
        <tspan x="26.95" y="297.6">/ </tspan>
        <tspan x="34.72" y="297.6">P</tspan>
        <tspan x="41.82" y="297.6">ending</tspan>
    </text>
    <polygon class="cls-2" points="101.07 48.48 101.07 48.31 101.07 48.15 105.8 48.15 105.8 48.31 105.8 48.48 101.07 48.48 101.07 48.48"/>
    <polygon class="cls-2" points="109.35 48.48 109.35 48.31 109.35 48.15 114.08 48.15 114.08 48.31 114.08 48.48 109.35 48.48 109.35 48.48"/>
    <polygon class="cls-2" points="59.94 131.16 59.94 130.99 59.94 130.82 64.67 130.82 64.67 130.99 64.67 131.16 59.94 131.16 59.94 131.16"/>
    <polygon class="cls-2" points="68.22 131.16 68.22 130.99 68.22 130.82 72.95 130.82 72.95 130.99 72.95 131.16 68.22 131.16 68.22 131.16"/>
    <polygon class="cls-2" points="141.29 6.72 141.29 6.56 141.29 6.39 146.02 6.39 146.02 6.56 146.02 6.72 141.29 6.72 141.29 6.72"/>
    <polygon class="cls-2" points="149.57 6.72 149.57 6.56 149.57 6.39 154.3 6.39 154.3 6.56 154.3 6.72 149.57 6.72 149.57 6.72"/>
    <polygon class="cls-2" points="182.42 6.72 182.42 6.56 182.42 6.39 187.16 6.39 187.16 6.56 187.16 6.72 182.42 6.72 182.42 6.72"/>
    <polygon class="cls-2" points="190.7 6.72 190.7 6.56 190.7 6.39 195.44 6.39 195.44 6.56 195.44 6.72 190.7 6.72 190.7 6.72"/>
    <polygon class="cls-2" points="222.68 48.48 222.68 48.31 222.68 48.15 227.41 48.15 227.41 48.31 227.41 48.48 222.68 48.48 222.68 48.48"/>
    <polygon class="cls-2" points="230.96 48.48 230.96 48.31 230.96 48.15 235.69 48.15 235.69 48.31 235.69 48.48 230.96 48.48 230.96 48.48"/>
    <polygon class="cls-2" points="262.93 90.28 262.93 90.11 262.93 89.94 267.66 89.94 267.66 90.11 267.66 90.28 262.93 90.28 262.93 90.28"/>
    <polygon class="cls-2" points="271.21 90.28 271.21 90.11 271.21 89.94 275.94 89.94 275.94 90.11 275.94 90.28 271.21 90.28 271.21 90.28"/>
    <polygon class="cls-2" points="304.06 131.16 304.06 130.99 304.06 130.82 308.8 130.82 308.8 130.99 308.8 131.16 304.06 131.16 304.06 131.16"/>
    <polygon class="cls-2" points="312.35 131.16 312.35 130.99 312.35 130.82 317.08 130.82 317.08 130.99 317.08 131.16 312.35 131.16 312.35 131.16"/>
    <polygon class="cls-3" points="34.86 130.96 59.9 130.96 59.9 214.51 34.86 214.51 34.86 130.96 34.86 130.96"/>
    <polyline class="cls-4" points="34.86 130.96 59.9 130.96 59.9 214.51 34.86 214.51 34.86 130.96"/>
    <polygon class="cls-3" points="75.11 48.31 101.07 48.31 101.07 130.96 75.11 130.96 75.11 48.31 75.11 48.31"/>
    <polyline class="cls-4" points="75.11 48.31 101.07 48.31 101.07 130.96 75.11 130.96 75.11 48.31"/>
    <polygon class="cls-3" points="116.25 6.56 141.29 6.56 141.29 48.31 116.25 48.31 116.25 6.56 116.25 6.56"/>
    <polyline class="cls-4" points="116.25 6.56 141.29 6.56 141.29 48.31 116.25 48.31 116.25 6.56"/>
    <polygon class="cls-3" points="156.5 6.56 182.42 6.56 182.42 214.51 156.5 214.51 156.5 6.56 156.5 6.56"/>
    <polyline class="cls-4" points="156.5 6.56 182.42 6.56 182.42 214.51 156.5 214.51 156.5 6.56"/>
    <polygon class="cls-5" points="197.6 6.56 222.64 6.56 222.64 48.31 197.6 48.31 197.6 6.56 197.6 6.56"/>
    <polyline class="cls-4" points="197.6 6.56 222.64 6.56 222.64 48.31 197.6 48.31 197.6 6.56"/>
    <polygon class="cls-6" points="237.85 48.31 262.9 48.31 262.9 90.11 237.85 90.11 237.85 48.31 237.85 48.31"/>
    <polyline class="cls-4" points="237.85 48.31 262.9 48.31 262.9 90.11 237.85 90.11 237.85 48.31"/>
    <polygon class="cls-7" points="278.11 90.11 304.03 90.11 304.03 130.96 278.11 130.96 278.11 90.11 278.11 90.11"/>
    <polyline class="cls-4" points="278.11 90.11 304.03 90.11 304.03 130.96 278.11 130.96 278.11 90.11"/>
    <polygon class="cls-8" points="319.24 130.96 344.25 130.96 344.25 214.51 319.24 214.51 319.24 130.96 319.24 130.96"/>
    <polyline class="cls-4" points="319.24 130.96 344.25 130.96 344.25 214.51 319.24 214.51 319.24 130.96"/>
    <polygon class="cls-2" points="27.29 6.56 27.73 6.56 28.2 6.56 28.2 214.51 27.73 214.51 27.29 214.51 27.29 6.56 27.29 6.56"/>
    <polygon class="cls-2" points="24.14 214.98 24.14 214.51 24.14 214.07 27.73 214.07 27.73 214.51 27.73 214.98 24.14 214.98 24.14 214.98"/>
    <polygon class="cls-2" points="24.14 173.22 24.14 172.75 24.14 172.31 27.73 172.31 27.73 172.75 27.73 173.22 24.14 173.22 24.14 173.22"/>
    <polygon class="cls-2" points="24.14 131.43 24.14 130.96 24.14 130.52 27.73 130.52 27.73 130.96 27.73 131.43 24.14 131.43 24.14 131.43"/>
    <polygon class="cls-2" points="24.14 90.58 24.14 90.11 24.14 89.67 27.73 89.67 27.73 90.11 27.73 90.58 24.14 90.58 24.14 90.58"/>
    <polygon class="cls-2" points="24.14 48.78 24.14 48.31 24.14 47.88 27.73 47.88 27.73 48.31 27.73 48.78 24.14 48.78 24.14 48.78"/>
    <polygon class="cls-2" points="24.14 7.03 24.14 6.56 24.14 6.12 27.73 6.12 27.73 6.56 27.73 7.03 24.14 7.03 24.14 7.03"/>
    <polygon class="cls-2" points="27.73 214.98 27.73 214.51 27.73 214.07 352.33 214.07 352.33 214.51 352.33 214.98 27.73 214.98 27.73 214.98"/>
    <polygon class="cls-2" points="28.2 218.07 27.73 218.07 27.29 218.07 27.29 214.51 27.73 214.51 28.2 214.51 28.2 218.07 28.2 218.07"/>
    <polygon class="cls-2" points="68.45 218.07 67.98 218.07 67.54 218.07 67.54 214.51 67.98 214.51 68.45 214.51 68.45 218.07 68.45 218.07"/>
    <polygon class="cls-2" points="109.55 218.07 109.08 218.07 108.64 218.07 108.64 214.51 109.08 214.51 109.55 214.51 109.55 218.07 109.55 218.07"/>
    <polygon class="cls-2" points="149.81 218.07 149.33 218.07 148.89 218.07 148.89 214.51 149.33 214.51 149.81 214.51 149.81 218.07 149.81 218.07"/>
    <polygon class="cls-2" points="190.94 218.07 190.47 218.07 190.03 218.07 190.03 214.51 190.47 214.51 190.94 214.51 190.94 218.07 190.94 218.07"/>
    <polygon class="cls-2" points="231.19 218.07 230.72 218.07 230.28 218.07 230.28 214.51 230.72 214.51 231.19 214.51 231.19 218.07 231.19 218.07"/>
    <polygon class="cls-2" points="271.42 218.07 270.94 218.07 270.5 218.07 270.5 214.51 270.94 214.51 271.42 214.51 271.42 218.07 271.42 218.07"/>
    <polygon class="cls-2" points="312.55 218.07 312.08 218.07 311.64 218.07 311.64 214.51 312.08 214.51 312.55 214.51 312.55 218.07 312.55 218.07"/>
    <polygon class="cls-2" points="352.8 218.07 352.33 218.07 351.89 218.07 351.89 214.51 352.33 214.51 352.8 214.51 352.8 218.07 352.8 218.07"/>
    <circle class="cls-9" cx="-13.41" cy="-18.34"/>
    <text class="cls-10" transform="translate(81.37 92.57) scale(1.05 1)">4<tspan x="5.94" y="0">0</tspan></text>
    <circle class="cls-9" cx="-13.41" cy="-18.34"/>
    <text class="cls-10" transform="translate(160.04 113.89) scale(1.05 1)">10<tspan x="11.88" y="0">0</tspan></text>
    <circle class="cls-9" cx="-13.41" cy="-18.34"/>
    <text class="cls-10" transform="translate(325.49 176.11) scale(1.05 1)">4<tspan x="5.94" y="0">0</tspan></text>
    <circle class="cls-9" cx="-13.41" cy="-18.34"/>
    <text class="cls-10" transform="translate(244.1 72.14) scale(1.05 1)">2<tspan x="5.94" y="0">0</tspan></text>
    <circle class="cls-9" cx="-13.41" cy="-18.34"/>
    <text class="cls-10" transform="translate(122.5 30.35) scale(1.05 1)">2<tspan x="5.94" y="0">0</tspan></text>
    <circle class="cls-9" cx="-13.41" cy="-18.34"/>
    <text class="cls-11" transform="translate(284.36 113.89) scale(1.05 1)">2<tspan x="5.94" y="0">0</tspan></text>
    <circle class="cls-9" cx="-13.41" cy="-18.34"/>
    <text class="cls-11" transform="translate(203.88 30.35) scale(1.05 1)">2<tspan x="5.94" y="0">0</tspan></text>
    <circle class="cls-9" cx="-13.41" cy="-18.34"/>
    <text class="cls-10" transform="translate(41.14 176.11) scale(1.05 1)">4<tspan x="5.94" y="0">0</tspan></text>
    <circle class="cls-9" cx="-13.41" cy="-18.34"/>
    <text class="cls-10" transform="translate(12.51 217.91) scale(1.05 1)">0</text>
    <circle class="cls-9" cx="-13.41" cy="-18.34"/>
    <text class="cls-10" transform="translate(6.25 176.11) scale(1.05 1)">2<tspan x="5.94" y="0">0</tspan></text>
    <circle class="cls-9" cx="-13.41" cy="-18.34"/>
    <text class="cls-10" transform="translate(6.25 134.36) scale(1.05 1)">4<tspan x="5.94" y="0">0</tspan></text>
    <circle class="cls-9" cx="-13.41" cy="-18.34"/>
    <text class="cls-10" transform="translate(6.25 93.47) scale(1.05 1)">6<tspan x="5.94" y="0">0</tspan></text>
    <circle class="cls-9" cx="-13.41" cy="-18.34"/>
    <text class="cls-10" transform="translate(6.25 51.68) scale(1.05 1)">8<tspan x="5.94" y="0">0</tspan></text>
    <circle class="cls-9" cx="-13.41" cy="-18.34"/>
    <text class="cls-10" transform="translate(0 9.92) scale(1.05 1)">10<tspan x="11.88" y="0">0</tspan></text>
</svg>