<svg id="Layer_1" data-name="Layer 1" xmlns="http://www.w3.org/2000/svg" xmlns:xlink="http://www.w3.org/1999/xlink" viewBox="0 0 395 395"><defs><style>.cls-1,.cls-22,.cls-8{fill:none;}.cls-1{clip-rule:evenodd;}.cls-2{fill:#db7027;}.cls-2,.cls-3,.cls-4,.cls-5,.cls-6,.cls-7,.cls-8{fill-rule:evenodd;}.cls-3{fill:#818181;}.cls-4{fill:#3bb54a;}.cls-5{fill:#fceb03;}.cls-6{fill:#c32026;}.cls-7{fill:#b3b3b3;}.cls-9{clip-path:url(#clip-path);}.cls-10{clip-path:url(#clip-path-2);}.cls-11,.cls-19{fill:#fff;}.cls-12,.cls-19{font-size:12.96px;}.cls-12,.cls-21{fill:#010101;}.cls-12,.cls-19,.cls-21{font-family:Open Sans;}.cls-13{clip-path:url(#clip-path-3);}.cls-14{clip-path:url(#clip-path-4);}.cls-15{clip-path:url(#clip-path-5);}.cls-16{clip-path:url(#clip-path-6);}.cls-17{clip-path:url(#clip-path-7);}.cls-18{clip-path:url(#clip-path-8);}.cls-20{clip-path:url(#clip-path-9);}.cls-21{font-size:11px;}</style><clipPath id="clip-path" transform="translate(-452.29 -802.62)"><polygon class="cls-1" points="461.38 815.58 838.21 815.58 838.21 1104.51 461.38 1104.51 461.38 815.58 461.38 815.58"/></clipPath><clipPath id="clip-path-2" transform="translate(-452.29 -802.62)"><polygon class="cls-1" points="511.35 1017.85 524.33 1017.85 524.33 1042.72 511.35 1042.72 511.35 1017.85 511.35 1017.85"/></clipPath><clipPath id="clip-path-3" transform="translate(-452.29 -802.62)"><polygon class="cls-1" points="552.34 936.16 565.32 936.16 565.32 961.03 552.34 961.03 552.34 936.16 552.34 936.16"/></clipPath><clipPath id="clip-path-4" transform="translate(-452.29 -802.62)"><polygon class="cls-1" points="593.34 877.37 606.31 877.37 606.31 902.24 593.34 902.24 593.34 877.37 593.34 877.37"/></clipPath><clipPath id="clip-path-5" transform="translate(-452.29 -802.62)"><polygon class="cls-1" points="634.3 959.06 647.27 959.06 647.27 983.93 634.3 983.93 634.3 959.06 634.3 959.06"/></clipPath><clipPath id="clip-path-6" transform="translate(-452.29 -802.62)"><polygon class="cls-1" points="717.27 924.18 730.25 924.18 730.25 949.06 717.27 949.06 717.27 924.18 717.27 924.18"/></clipPath><clipPath id="clip-path-7" transform="translate(-452.29 -802.62)"><polygon class="cls-1" points="799.25 1029.82 812.23 1029.82 812.23 1054.7 799.25 1054.7 799.25 1029.82 799.25 1029.82"/></clipPath><clipPath id="clip-path-8" transform="translate(-452.29 -802.62)"><polygon class="cls-1" points="758.26 971.03 771.24 971.03 771.24 995.91 758.26 995.91 758.26 971.03 758.26 971.03"/></clipPath><clipPath id="clip-path-9" transform="translate(-452.29 -802.62)"><polygon class="cls-1" points="676.28 877.37 689.25 877.37 689.25 902.24 676.28 902.24 676.28 877.37 676.28 877.37"/></clipPath></defs><title>graph_new_01</title><polygon class="cls-2" points="52.06 180.35 78.07 180.35 78.07 274.02 52.06 274.02 52.06 180.35 52.06 180.35"/><path class="cls-3" d="M503.85,983a0.82,0.82,0,0,1,.06-0.25,0.66,0.66,0,0,1,.2-0.2,0.83,0.83,0,0,1,.25-0.06V983h-0.51Z" transform="translate(-452.29 -802.62)"/><polygon class="cls-3" points="52.06 180.86 52.06 180.35 52.06 179.84 78.07 179.84 78.07 180.35 78.07 180.86 52.06 180.86 52.06 180.86"/><path class="cls-3" d="M530.36,982.47a0.83,0.83,0,0,1,.25.06,0.66,0.66,0,0,1,.2.2,0.82,0.82,0,0,1,.06.25h-0.51v-0.51h0Z" transform="translate(-452.29 -802.62)"/><polygon class="cls-3" points="77.56 180.35 78.07 180.35 78.58 180.35 78.58 274.02 78.07 274.02 77.56 274.02 77.56 180.35 77.56 180.35"/><path class="cls-3" d="M530.87,1076.64a0.82,0.82,0,0,1-.06.25,0.66,0.66,0,0,1-.2.2,0.83,0.83,0,0,1-.25.06v-0.51h0.51Z" transform="translate(-452.29 -802.62)"/><polygon class="cls-3" points="78.07 273.51 78.07 274.02 78.07 274.52 52.06 274.52 52.06 274.02 52.06 273.51 78.07 273.51 78.07 273.51"/><path class="cls-3" d="M504.36,1077.15a0.83,0.83,0,0,1-.25-0.06,0.66,0.66,0,0,1-.2-0.2,0.82,0.82,0,0,1-.06-0.25h0.51v0.51h0Z" transform="translate(-452.29 -802.62)"/><polygon class="cls-3" points="52.57 274.02 52.06 274.02 51.55 274.02 51.55 180.35 52.06 180.35 52.57 180.35 52.57 274.02 52.57 274.02"/><polygon class="cls-2" points="93.05 110.61 119.03 110.61 119.03 180.35 93.05 180.35 93.05 110.61 93.05 110.61"/><path class="cls-3" d="M544.84,913.23a0.82,0.82,0,0,1,.06-0.25,0.66,0.66,0,0,1,.2-0.2,0.83,0.83,0,0,1,.25-0.06v0.51h-0.51Z" transform="translate(-452.29 -802.62)"/><polygon class="cls-3" points="93.05 111.11 93.05 110.61 93.05 110.1 119.03 110.1 119.03 110.61 119.03 111.11 93.05 111.11 93.05 111.11"/><path class="cls-3" d="M571.32,912.72a0.83,0.83,0,0,1,.25.06,0.66,0.66,0,0,1,.2.2,0.82,0.82,0,0,1,.06.25h-0.51v-0.51h0Z" transform="translate(-452.29 -802.62)"/><polygon class="cls-3" points="118.52 110.61 119.03 110.61 119.54 110.61 119.54 180.35 119.03 180.35 118.52 180.35 118.52 110.61 118.52 110.61"/><path class="cls-3" d="M571.83,983a0.82,0.82,0,0,1-.06.25,0.66,0.66,0,0,1-.2.2,0.83,0.83,0,0,1-.25.06V983h0.51Z" transform="translate(-452.29 -802.62)"/><polygon class="cls-3" points="119.03 179.84 119.03 180.35 119.03 180.86 93.05 180.86 93.05 180.35 93.05 179.84 119.03 179.84 119.03 179.84"/><path class="cls-3" d="M545.35,983.48a0.83,0.83,0,0,1-.25-0.06,0.66,0.66,0,0,1-.2-0.2,0.82,0.82,0,0,1-.06-0.25h0.51v0.51h0Z" transform="translate(-452.29 -802.62)"/><polygon class="cls-3" points="93.56 180.35 93.05 180.35 92.54 180.35 92.54 110.61 93.05 110.61 93.56 110.61 93.56 180.35 93.56 180.35"/><polygon class="cls-2" points="134.04 63.79 160.02 63.79 160.02 110.61 134.04 110.61 134.04 63.79 134.04 63.79"/><path class="cls-3" d="M585.83,866.41a0.82,0.82,0,0,1,.06-0.25,0.66,0.66,0,0,1,.2-0.2,0.83,0.83,0,0,1,.25-0.06v0.51h-0.51Z" transform="translate(-452.29 -802.62)"/><polygon class="cls-3" points="134.04 64.3 134.04 63.79 134.04 63.28 160.02 63.28 160.02 63.79 160.02 64.3 134.04 64.3 134.04 64.3"/><path class="cls-3" d="M612.32,865.9a0.83,0.83,0,0,1,.25.06,0.66,0.66,0,0,1,.2.2,0.82,0.82,0,0,1,.06.25h-0.51V865.9h0Z" transform="translate(-452.29 -802.62)"/><polygon class="cls-3" points="159.51 63.79 160.02 63.79 160.53 63.79 160.53 110.61 160.02 110.61 159.51 110.61 159.51 63.79 159.51 63.79"/><path class="cls-3" d="M612.83,913.23a0.82,0.82,0,0,1-.06.25,0.66,0.66,0,0,1-.2.2,0.83,0.83,0,0,1-.25.06v-0.51h0.51Z" transform="translate(-452.29 -802.62)"/><polygon class="cls-3" points="160.02 110.1 160.02 110.61 160.02 111.11 134.04 111.11 134.04 110.61 134.04 110.1 160.02 110.1 160.02 110.1"/><path class="cls-3" d="M586.34,913.74a0.83,0.83,0,0,1-.25-0.06,0.66,0.66,0,0,1-.2-0.2,0.82,0.82,0,0,1-.06-0.25h0.51v0.51h0Z" transform="translate(-452.29 -802.62)"/><polygon class="cls-3" points="134.56 110.61 134.04 110.61 133.53 110.61 133.53 63.79 134.04 63.79 134.56 63.79 134.56 110.61 134.56 110.61"/><polygon class="cls-2" points="175.01 63.79 202 63.79 202 274.02 175.01 274.02 175.01 63.79 175.01 63.79"/><path class="cls-3" d="M626.79,866.41a0.82,0.82,0,0,1,.06-0.25,0.66,0.66,0,0,1,.2-0.2,0.83,0.83,0,0,1,.25-0.06v0.51h-0.51Z" transform="translate(-452.29 -802.62)"/><polygon class="cls-3" points="175.01 64.3 175.01 63.79 175.01 63.28 202 63.28 202 63.79 202 64.3 175.01 64.3 175.01 64.3"/><path class="cls-3" d="M654.3,865.9a0.83,0.83,0,0,1,.25.06,0.66,0.66,0,0,1,.2.2,0.82,0.82,0,0,1,.06.25H654.3V865.9h0Z" transform="translate(-452.29 -802.62)"/><polygon class="cls-3" points="201.49 63.79 202 63.79 202.51 63.79 202.51 274.02 202 274.02 201.49 274.02 201.49 63.79 201.49 63.79"/><path class="cls-3" d="M654.81,1076.64a0.82,0.82,0,0,1-.06.25,0.66,0.66,0,0,1-.2.2,0.83,0.83,0,0,1-.25.06v-0.51h0.51Z" transform="translate(-452.29 -802.62)"/><polygon class="cls-3" points="202 273.51 202 274.02 202 274.52 175.01 274.52 175.01 274.02 175.01 273.51 202 273.51 202 273.51"/><path class="cls-3" d="M627.3,1077.15a0.83,0.83,0,0,1-.25-0.06,0.66,0.66,0,0,1-.2-0.2,0.82,0.82,0,0,1-.06-0.25h0.51v0.51h0Z" transform="translate(-452.29 -802.62)"/><polygon class="cls-3" points="175.52 274.02 175.01 274.02 174.5 274.02 174.5 63.79 175.01 63.79 175.52 63.79 175.52 274.02 175.52 274.02"/><polygon class="cls-4" points="216.99 63.79 243 63.79 243 110.61 216.99 110.61 216.99 63.79 216.99 63.79"/><path class="cls-3" d="M668.77,866.41a0.82,0.82,0,0,1,.06-0.25,0.66,0.66,0,0,1,.2-0.2,0.83,0.83,0,0,1,.25-0.06v0.51h-0.51Z" transform="translate(-452.29 -802.62)"/><polygon class="cls-3" points="216.99 64.3 216.99 63.79 216.99 63.28 243 63.28 243 63.79 243 64.3 216.99 64.3 216.99 64.3"/><path class="cls-3" d="M695.29,865.9a0.83,0.83,0,0,1,.25.06,0.66,0.66,0,0,1,.2.2,0.82,0.82,0,0,1,.06.25h-0.51V865.9h0Z" transform="translate(-452.29 -802.62)"/><polygon class="cls-3" points="242.49 63.79 243 63.79 243.5 63.79 243.5 110.61 243 110.61 242.49 110.61 242.49 63.79 242.49 63.79"/><path class="cls-3" d="M695.8,913.23a0.82,0.82,0,0,1-.06.25,0.66,0.66,0,0,1-.2.2,0.83,0.83,0,0,1-.25.06v-0.51h0.51Z" transform="translate(-452.29 -802.62)"/><polygon class="cls-3" points="243 110.1 243 110.61 243 111.11 216.99 111.11 216.99 110.61 216.99 110.1 243 110.1 243 110.1"/><path class="cls-3" d="M669.28,913.74a0.83,0.83,0,0,1-.25-0.06,0.66,0.66,0,0,1-.2-0.2,0.82,0.82,0,0,1-.06-0.25h0.51v0.51h0Z" transform="translate(-452.29 -802.62)"/><polygon class="cls-3" points="217.5 110.61 216.99 110.61 216.48 110.61 216.48 63.79 216.99 63.79 217.5 63.79 217.5 110.61 217.5 110.61"/><polygon class="cls-5" points="257.98 110.61 283.99 110.61 283.99 157.45 257.98 157.45 257.98 110.61 257.98 110.61"/><path class="cls-3" d="M709.76,913.23a0.82,0.82,0,0,1,.06-0.25,0.66,0.66,0,0,1,.2-0.2,0.83,0.83,0,0,1,.25-0.06v0.51h-0.51Z" transform="translate(-452.29 -802.62)"/><polygon class="cls-3" points="257.98 111.11 257.98 110.61 257.98 110.1 283.99 110.1 283.99 110.61 283.99 111.11 257.98 111.11 257.98 111.11"/><path class="cls-3" d="M736.28,912.72a0.83,0.83,0,0,1,.25.06,0.66,0.66,0,0,1,.2.2,0.82,0.82,0,0,1,.06.25h-0.51v-0.51h0Z" transform="translate(-452.29 -802.62)"/><polygon class="cls-3" points="283.48 110.61 283.99 110.61 284.5 110.61 284.5 157.45 283.99 157.45 283.48 157.45 283.48 110.61 283.48 110.61"/><path class="cls-3" d="M736.79,960.07a0.82,0.82,0,0,1-.06.25,0.66,0.66,0,0,1-.2.2,0.83,0.83,0,0,1-.25.06v-0.51h0.51Z" transform="translate(-452.29 -802.62)"/><polygon class="cls-3" points="283.99 156.94 283.99 157.45 283.99 157.96 257.98 157.96 257.98 157.45 257.98 156.94 283.99 156.94 283.99 156.94"/><path class="cls-3" d="M710.27,960.58a0.83,0.83,0,0,1-.25-0.06,0.66,0.66,0,0,1-.2-0.2,0.82,0.82,0,0,1-.06-0.25h0.51v0.51h0Z" transform="translate(-452.29 -802.62)"/><polygon class="cls-3" points="258.49 157.45 257.98 157.45 257.47 157.45 257.47 110.61 257.98 110.61 258.49 110.61 258.49 157.45 258.49 157.45"/><polygon class="cls-6" points="298.97 157.45 324.95 157.45 324.95 204.27 298.97 204.27 298.97 157.45 298.97 157.45"/><path class="cls-3" d="M750.76,960.07a0.82,0.82,0,0,1,.06-0.25,0.66,0.66,0,0,1,.2-0.2,0.83,0.83,0,0,1,.25-0.06v0.51h-0.51Z" transform="translate(-452.29 -802.62)"/><polygon class="cls-3" points="298.97 157.96 298.97 157.45 298.97 156.94 324.95 156.94 324.95 157.45 324.95 157.96 298.97 157.96 298.97 157.96"/><path class="cls-3" d="M777.24,959.57a0.83,0.83,0,0,1,.25.06,0.66,0.66,0,0,1,.2.2,0.82,0.82,0,0,1,.06.25h-0.51v-0.51h0Z" transform="translate(-452.29 -802.62)"/><polygon class="cls-3" points="324.44 157.45 324.95 157.45 325.46 157.45 325.46 204.27 324.95 204.27 324.44 204.27 324.44 157.45 324.44 157.45"/><path class="cls-3" d="M777.75,1006.89a0.82,0.82,0,0,1-.06.25,0.66,0.66,0,0,1-.2.2,0.83,0.83,0,0,1-.25.06v-0.51h0.51Z" transform="translate(-452.29 -802.62)"/><polygon class="cls-3" points="324.95 203.76 324.95 204.27 324.95 204.78 298.97 204.78 298.97 204.27 298.97 203.76 324.95 203.76 324.95 203.76"/><path class="cls-3" d="M751.27,1007.4a0.83,0.83,0,0,1-.25-0.06,0.66,0.66,0,0,1-.2-0.2,0.82,0.82,0,0,1-.06-0.25h0.51v0.51h0Z" transform="translate(-452.29 -802.62)"/><polygon class="cls-3" points="299.48 204.27 298.97 204.27 298.46 204.27 298.46 157.45 298.97 157.45 299.48 157.45 299.48 204.27 299.48 204.27"/><polygon class="cls-7" points="339.96 204.27 365.94 204.27 365.94 274.02 339.96 274.02 339.96 204.27 339.96 204.27"/><path class="cls-3" d="M791.75,1006.89a0.82,0.82,0,0,1,.06-0.25,0.66,0.66,0,0,1,.2-0.2,0.83,0.83,0,0,1,.25-0.06v0.51h-0.51Z" transform="translate(-452.29 -802.62)"/><polygon class="cls-3" points="339.96 204.78 339.96 204.27 339.96 203.76 365.94 203.76 365.94 204.27 365.94 204.78 339.96 204.78 339.96 204.78"/><path class="cls-3" d="M818.23,1006.38a0.83,0.83,0,0,1,.25.06,0.66,0.66,0,0,1,.2.2,0.82,0.82,0,0,1,.06.25h-0.51v-0.51h0Z" transform="translate(-452.29 -802.62)"/><polygon class="cls-3" points="365.43 204.27 365.94 204.27 366.45 204.27 366.45 274.02 365.94 274.02 365.43 274.02 365.43 204.27 365.43 204.27"/><path class="cls-3" d="M818.74,1076.64a0.82,0.82,0,0,1-.06.25,0.66,0.66,0,0,1-.2.2,0.83,0.83,0,0,1-.25.06v-0.51h0.51Z" transform="translate(-452.29 -802.62)"/><polygon class="cls-3" points="365.94 273.51 365.94 274.02 365.94 274.52 339.96 274.52 339.96 274.02 339.96 273.51 365.94 273.51 365.94 273.51"/><path class="cls-3" d="M792.26,1077.15a0.83,0.83,0,0,1-.25-0.06,0.66,0.66,0,0,1-.2-0.2,0.82,0.82,0,0,1-.06-0.25h0.51v0.51h0Z" transform="translate(-452.29 -802.62)"/><polygon class="cls-3" points="340.47 274.02 339.96 274.02 339.45 274.02 339.45 204.27 339.96 204.27 340.47 204.27 340.47 274.02 340.47 274.02"/><polygon class="cls-8" points="44.07 37.87 376.9 37.87 376.9 274.98 44.07 274.98 44.07 37.87 44.07 37.87"/><g class="cls-9"><polygon class="cls-3" points="44.56 40.86 45.07 40.86 45.58 40.86 45.58 274.02 45.07 274.02 44.56 274.02 44.56 40.86 44.56 40.86"/><polygon class="cls-3" points="41.07 274.52 41.07 274.02 41.07 273.51 45.07 273.51 45.07 274.02 45.07 274.52 41.07 274.52 41.07 274.52"/><polygon class="cls-3" points="41.07 227.71 41.07 227.2 41.07 226.69 45.07 226.69 45.07 227.2 45.07 227.71 41.07 227.71 41.07 227.71"/><polygon class="cls-3" points="41.07 180.86 41.07 180.35 41.07 179.84 45.07 179.84 45.07 180.35 45.07 180.86 41.07 180.86 41.07 180.86"/><polygon class="cls-3" points="41.07 135.03 41.07 134.52 41.07 134.01 45.07 134.01 45.07 134.52 45.07 135.03 41.07 135.03 41.07 135.03"/><polygon class="cls-3" points="41.07 88.19 41.07 87.68 41.07 87.17 45.07 87.17 45.07 87.68 45.07 88.19 41.07 88.19 41.07 88.19"/><polygon class="cls-3" points="41.07 41.37 41.07 40.86 41.07 40.35 45.07 40.35 45.07 40.86 45.07 41.37 41.07 41.37 41.07 41.37"/><polygon class="cls-3" points="45.07 274.52 45.07 274.02 45.07 273.51 373.93 273.51 373.93 274.02 373.93 274.52 45.07 274.52 45.07 274.52"/><polygon class="cls-3" points="45.58 278 45.07 278 44.56 278 44.56 274.02 45.07 274.02 45.58 274.02 45.58 278 45.58 278"/><polygon class="cls-3" points="86.57 278 86.06 278 85.55 278 85.55 274.02 86.06 274.02 86.57 274.02 86.57 278 86.57 278"/><polygon class="cls-3" points="127.56 278 127.05 278 126.54 278 126.54 274.02 127.05 274.02 127.56 274.02 127.56 278 127.56 278"/><polygon class="cls-3" points="168.52 278 168.01 278 167.5 278 167.5 274.02 168.01 274.02 168.52 274.02 168.52 278 168.52 278"/><polygon class="cls-3" points="210.5 278 209.99 278 209.48 278 209.48 274.02 209.99 274.02 210.5 274.02 210.5 278 210.5 278"/><polygon class="cls-3" points="251.49 278 250.98 278 250.47 278 250.47 274.02 250.98 274.02 251.49 274.02 251.49 278 251.49 278"/><polygon class="cls-3" points="292.49 278 291.98 278 291.46 278 291.46 274.02 291.98 274.02 292.49 274.02 292.49 278 292.49 278"/><polygon class="cls-3" points="333.48 278 332.97 278 332.46 278 332.46 274.02 332.97 274.02 333.48 274.02 333.48 278 333.48 278"/><polygon class="cls-3" points="374.44 278 373.93 278 373.42 278 373.42 274.02 373.93 274.02 374.44 274.02 374.44 278 374.44 278"/></g><g class="cls-10"><circle class="cls-11" cx="9.09" cy="12.96"/><text class="cls-12" transform="translate(62.06 232.56) scale(1.07 1)">4</text></g><g class="cls-13"><circle class="cls-11" cx="9.09" cy="12.96"/><text class="cls-12" transform="translate(103.06 150.84) scale(1.07 1)">3</text></g><g class="cls-14"><circle class="cls-11" cx="9.09" cy="12.96"/><text class="cls-12" transform="translate(144.04 92.06) scale(1.07 1)">2</text></g><g class="cls-15"><circle class="cls-11" cx="9.09" cy="12.96"/><text class="cls-12" transform="translate(185.01 173.78) scale(1.07 1)">9</text></g><g class="cls-16"><circle class="cls-11" cx="9.09" cy="12.96"/><text class="cls-12" transform="translate(267.99 138.9) scale(1.07 1)">2</text></g><g class="cls-17"><circle class="cls-11" cx="9.09" cy="12.96"/><text class="cls-12" transform="translate(349.94 244.5) scale(1.07 1)">3</text></g><g class="cls-18"><circle class="cls-11" cx="9.09" cy="12.96"/><text class="cls-19" transform="translate(308.98 185.71) scale(1.07 1)">2</text></g><g class="cls-20"><circle class="cls-11" cx="9.09" cy="12.96"/><text class="cls-19" transform="translate(226.99 92.06) scale(1.07 1)">2</text></g><circle class="cls-11" cx="9.09" cy="12.96"/><text class="cls-12" transform="translate(28.07 279.38) scale(1.07 1)">0</text><circle class="cls-11" cx="9.09" cy="12.96"/><text class="cls-12" transform="translate(28.07 232.56) scale(1.07 1)">2</text><circle class="cls-11" cx="9.09" cy="12.96"/><text class="cls-12" transform="translate(28.07 185.71) scale(1.07 1)">4</text><circle class="cls-11" cx="9.09" cy="12.96"/><text class="cls-12" transform="translate(28.07 139.89) scale(1.07 1)">6</text><circle class="cls-11" cx="9.09" cy="12.96"/><text class="cls-12" transform="translate(28.07 93.04) scale(1.07 1)">8</text><circle class="cls-11" cx="9.09" cy="12.96"/><text class="cls-12" transform="translate(21.07 46.22) scale(1.07 1)">1<tspan x="7.37" y="0">0</tspan></text><polygon class="cls-8" points="9.09 12.96 385.91 12.96 385.91 301.89 9.09 301.89 9.09 12.96 9.09 12.96"/><text class="cls-21" transform="translate(63.36 357.7) rotate(-90)">Overdue Tasks<tspan x="-22.34" y="37.2">Task Due this week</tspan><tspan x="5.5" y="49.6">- RRO created</tspan><tspan x="-21.07" y="86.8">Task due this week</tspan><tspan x="-3.18" y="99.2">- centrally creat</tspan><tspan x="50.22" y="136.4">Total</tspan><tspan x="22.54" y="173.6">Successful</tspan><tspan x="18.12" y="210.8">In Progress</tspan><tspan x="45.46" y="248">Failed</tspan><tspan x="-5.31" y="285.2">Tasks No Status</tspan><tspan x="26.99" y="297.6">/ Pending</tspan></text><polygon class="cls-3" points="325.36 204.47 325.36 204.28 325.36 204.1 330.65 204.1 330.65 204.28 330.65 204.47 325.36 204.47 325.36 204.47"/><polygon class="cls-3" points="334.62 204.47 334.62 204.28 334.62 204.1 339.92 204.1 339.92 204.28 339.92 204.47 334.62 204.47 334.62 204.47"/><polygon class="cls-3" points="284.31 157.59 284.31 157.4 284.31 157.21 289.61 157.21 289.61 157.4 289.61 157.59 284.31 157.59 284.31 157.59"/><polygon class="cls-3" points="293.58 157.59 293.58 157.4 293.58 157.21 298.88 157.21 298.88 157.4 298.88 157.59 293.58 157.59 293.58 157.59"/><polygon class="cls-3" points="243.27 110.74 243.27 110.55 243.27 110.36 248.57 110.36 248.57 110.55 248.57 110.74 243.27 110.74 243.27 110.74"/><polygon class="cls-3" points="252.54 110.74 252.54 110.55 252.54 110.36 257.84 110.36 257.84 110.55 257.84 110.74 252.54 110.74 252.54 110.74"/><polygon class="cls-3" points="202.23 63.85 202.23 63.66 202.23 63.47 207.53 63.47 207.53 63.66 207.53 63.85 202.23 63.85 202.23 63.85"/><polygon class="cls-3" points="211.5 63.85 211.5 63.66 211.5 63.47 216.79 63.47 216.79 63.66 216.79 63.85 211.5 63.85 211.5 63.85"/><polygon class="cls-3" points="160.21 63.85 160.21 63.66 160.21 63.47 165.5 63.47 165.5 63.66 165.5 63.85 160.21 63.85 160.21 63.85"/><polygon class="cls-3" points="169.47 63.85 169.47 63.66 169.47 63.47 174.77 63.47 174.77 63.66 174.77 63.85 169.47 63.85 169.47 63.85"/><polygon class="cls-3" points="119.16 110.74 119.16 110.55 119.16 110.36 124.46 110.36 124.46 110.55 124.46 110.74 119.16 110.74 119.16 110.74"/><polygon class="cls-3" points="128.43 110.74 128.43 110.55 128.43 110.36 133.73 110.36 133.73 110.55 133.73 110.74 128.43 110.74 128.43 110.74"/><polygon class="cls-3" points="78.12 180.54 78.12 180.35 78.12 180.16 83.42 180.16 83.42 180.35 83.42 180.54 78.12 180.54 78.12 180.54"/><polygon class="cls-3" points="87.39 180.54 87.39 180.35 87.39 180.16 92.69 180.16 92.69 180.35 92.69 180.54 87.39 180.54 87.39 180.54"/><rect class="cls-22" width="395" height="395"/></svg>