<svg id="Layer_1" data-name="Layer 1" xmlns="http://www.w3.org/2000/svg" xmlns:xlink="http://www.w3.org/1999/xlink" viewBox="0 0 395 395"><defs><style>.cls-1,.cls-2,.cls-23{fill:none;}.cls-1{clip-rule:evenodd;}.cls-10,.cls-2,.cls-5,.cls-6,.cls-7,.cls-8,.cls-9{fill-rule:evenodd;}.cls-3{font-size:11px;}.cls-14,.cls-3{fill:#010101;}.cls-14,.cls-19,.cls-3{font-family:Open Sans;}.cls-4{clip-path:url(#clip-path);}.cls-5{fill:#db7027;}.cls-6{fill:#818181;}.cls-7{fill:#3bb54a;}.cls-8{fill:#c32026;}.cls-9{fill:#fceb03;}.cls-10{fill:#b3b3b3;}.cls-11{clip-path:url(#clip-path-2);}.cls-12{clip-path:url(#clip-path-3);}.cls-13,.cls-19{fill:#fff;}.cls-14,.cls-19{font-size:12.96px;}.cls-15{clip-path:url(#clip-path-4);}.cls-16{clip-path:url(#clip-path-5);}.cls-17{clip-path:url(#clip-path-6);}.cls-18{clip-path:url(#clip-path-7);}.cls-20{clip-path:url(#clip-path-8);}.cls-21{clip-path:url(#clip-path-9);}.cls-22{clip-path:url(#clip-path-10);}</style><clipPath id="clip-path" transform="translate(-452.88 -802.89)"><polygon class="cls-1" points="522.62 840.49 805.98 840.49 805.98 1077.6 522.62 1077.6 522.62 840.49 522.62 840.49"/></clipPath><clipPath id="clip-path-2" transform="translate(-452.88 -802.89)"><polygon class="cls-1" points="485.82 815.58 814.94 815.58 814.94 1104.51 485.82 1104.51 485.82 815.58 485.82 815.58"/></clipPath><clipPath id="clip-path-3" transform="translate(-452.88 -802.89)"><polygon class="cls-1" points="534.54 1017.85 547.45 1017.85 547.45 1042.72 534.54 1042.72 534.54 1017.85 534.54 1017.85"/></clipPath><clipPath id="clip-path-4" transform="translate(-452.88 -802.89)"><polygon class="cls-1" points="569.35 936.16 582.25 936.16 582.25 961.03 569.35 961.03 569.35 936.16 569.35 936.16"/></clipPath><clipPath id="clip-path-5" transform="translate(-452.88 -802.89)"><polygon class="cls-1" points="604.15 877.37 617.06 877.37 617.06 902.24 604.15 902.24 604.15 877.37 604.15 877.37"/></clipPath><clipPath id="clip-path-6" transform="translate(-452.88 -802.89)"><polygon class="cls-1" points="638.95 959.06 651.86 959.06 651.86 983.93 638.95 983.93 638.95 959.06 638.95 959.06"/></clipPath><clipPath id="clip-path-7" transform="translate(-452.88 -802.89)"><polygon class="cls-1" points="674.74 877.37 687.65 877.37 687.65 902.24 674.74 902.24 674.74 877.37 674.74 877.37"/></clipPath><clipPath id="clip-path-8" transform="translate(-452.88 -802.89)"><polygon class="cls-1" points="779.15 1029.82 792.06 1029.82 792.06 1054.7 779.15 1054.7 779.15 1029.82 779.15 1029.82"/></clipPath><clipPath id="clip-path-9" transform="translate(-452.88 -802.89)"><polygon class="cls-1" points="744.35 971.03 757.26 971.03 757.26 995.91 744.35 995.91 744.35 971.03 744.35 971.03"/></clipPath><clipPath id="clip-path-10" transform="translate(-452.88 -802.89)"><polygon class="cls-1" points="709.55 924.18 722.45 924.18 722.45 949.06 709.55 949.06 709.55 924.18 709.55 924.18"/></clipPath></defs><title>graph_new_03</title><text class="cls-3" transform="translate(81.66 325.13) rotate(-90)">Overdue<tspan x="15.93" y="12.4">Tasks</tspan><tspan x="-25.74" y="37.2">Tasks created</tspan><tspan x="7.1" y="49.6">by RRO</tspan><tspan x="-6.59" y="74.4">Tasks due</tspan><tspan x="-3.79" y="86.8">this week</tspan><tspan x="18.89" y="111.6">Total</tspan><tspan x="-8.79" y="136.4">Successful</tspan><tspan x="-4.19" y="148.8">Renewals</tspan><tspan x="14.13" y="173.6">Failed</tspan><tspan x="-4.19" y="186">Renewals</tspan><tspan x="-0.92" y="210.8">Payment</tspan><tspan x="-10.98" y="223.2">Reminders</tspan><tspan x="15.93" y="248">Tasks</tspan><tspan x="2.56" y="260.4">Pending</tspan></text><g class="cls-4"><polygon class="cls-5" points="76.7 180.09 98.57 180.09 98.57 273.75 76.7 273.75 76.7 180.09 76.7 180.09"/><path class="cls-6" d="M529.08,983a0.83,0.83,0,0,1,.06-0.25,0.66,0.66,0,0,1,.2-0.2,0.82,0.82,0,0,1,.25-0.06V983h-0.51Z" transform="translate(-452.88 -802.89)"/><polygon class="cls-6" points="76.7 180.59 76.7 180.09 76.7 179.58 98.57 179.58 98.57 180.09 98.57 180.59 76.7 180.59 76.7 180.59"/><path class="cls-6" d="M551.45,982.47a0.82,0.82,0,0,1,.25.06,0.66,0.66,0,0,1,.2.2,0.83,0.83,0,0,1,.06.25h-0.51v-0.51h0Z" transform="translate(-452.88 -802.89)"/><polygon class="cls-6" points="98.06 180.09 98.57 180.09 99.08 180.09 99.08 273.75 98.57 273.75 98.06 273.75 98.06 180.09 98.06 180.09"/><path class="cls-6" d="M552,1076.64a0.83,0.83,0,0,1-.06.25,0.66,0.66,0,0,1-.2.2,0.82,0.82,0,0,1-.25.06v-0.51H552Z" transform="translate(-452.88 -802.89)"/><polygon class="cls-6" points="98.57 273.24 98.57 273.75 98.57 274.26 76.7 274.26 76.7 273.75 76.7 273.24 98.57 273.24 98.57 273.24"/><path class="cls-6" d="M529.58,1077.15a0.82,0.82,0,0,1-.25-0.06,0.66,0.66,0,0,1-.2-0.2,0.83,0.83,0,0,1-.06-0.25h0.51v0.51h0Z" transform="translate(-452.88 -802.89)"/><polygon class="cls-6" points="77.21 273.75 76.7 273.75 76.19 273.75 76.19 180.09 76.7 180.09 77.21 180.09 77.21 273.75 77.21 273.75"/><polygon class="cls-5" points="111.51 110.34 133.37 110.34 133.37 180.09 111.51 180.09 111.51 110.34 111.51 110.34"/><path class="cls-6" d="M563.88,913.23a0.83,0.83,0,0,1,.06-0.25,0.66,0.66,0,0,1,.2-0.2,0.82,0.82,0,0,1,.25-0.06v0.51h-0.51Z" transform="translate(-452.88 -802.89)"/><polygon class="cls-6" points="111.51 110.85 111.51 110.34 111.51 109.83 133.37 109.83 133.37 110.34 133.37 110.85 111.51 110.85 111.51 110.85"/><path class="cls-6" d="M586.25,912.72a0.82,0.82,0,0,1,.25.06,0.66,0.66,0,0,1,.2.2,0.83,0.83,0,0,1,.06.25h-0.51v-0.51h0Z" transform="translate(-452.88 -802.89)"/><polygon class="cls-6" points="132.87 110.34 133.37 110.34 133.88 110.34 133.88 180.09 133.37 180.09 132.87 180.09 132.87 110.34 132.87 110.34"/><path class="cls-6" d="M586.76,983a0.83,0.83,0,0,1-.06.25,0.66,0.66,0,0,1-.2.2,0.82,0.82,0,0,1-.25.06V983h0.51Z" transform="translate(-452.88 -802.89)"/><polygon class="cls-6" points="133.37 179.58 133.37 180.09 133.37 180.59 111.51 180.59 111.51 180.09 111.51 179.58 133.37 179.58 133.37 179.58"/><path class="cls-6" d="M564.39,983.48a0.82,0.82,0,0,1-.25-0.06,0.66,0.66,0,0,1-.2-0.2,0.83,0.83,0,0,1-.06-0.25h0.51v0.51h0Z" transform="translate(-452.88 -802.89)"/><polygon class="cls-6" points="112.01 180.09 111.51 180.09 111 180.09 111 110.34 111.51 110.34 112.01 110.34 112.01 180.09 112.01 180.09"/><polygon class="cls-5" points="146.31 63.52 168.18 63.52 168.18 110.34 146.31 110.34 146.31 63.52 146.31 63.52"/><path class="cls-6" d="M598.68,866.41a0.83,0.83,0,0,1,.06-0.25,0.66,0.66,0,0,1,.2-0.2,0.82,0.82,0,0,1,.25-0.06v0.51h-0.51Z" transform="translate(-452.88 -802.89)"/><polygon class="cls-6" points="146.31 64.03 146.31 63.52 146.31 63.01 168.18 63.01 168.18 63.52 168.18 64.03 146.31 64.03 146.31 64.03"/><path class="cls-6" d="M621.06,865.9a0.82,0.82,0,0,1,.25.06,0.66,0.66,0,0,1,.2.2,0.83,0.83,0,0,1,.06.25h-0.51V865.9h0Z" transform="translate(-452.88 -802.89)"/><polygon class="cls-6" points="167.67 63.52 168.18 63.52 168.69 63.52 168.69 110.34 168.18 110.34 167.67 110.34 167.67 63.52 167.67 63.52"/><path class="cls-6" d="M621.57,913.23a0.83,0.83,0,0,1-.06.25,0.66,0.66,0,0,1-.2.2,0.82,0.82,0,0,1-.25.06v-0.51h0.51Z" transform="translate(-452.88 -802.89)"/><polygon class="cls-6" points="168.18 109.83 168.18 110.34 168.18 110.85 146.31 110.85 146.31 110.34 146.31 109.83 168.18 109.83 168.18 109.83"/><path class="cls-6" d="M599.19,913.74a0.82,0.82,0,0,1-.25-0.06,0.66,0.66,0,0,1-.2-0.2,0.83,0.83,0,0,1-.06-0.25h0.51v0.51h0Z" transform="translate(-452.88 -802.89)"/><polygon class="cls-6" points="146.82 110.34 146.31 110.34 145.8 110.34 145.8 63.52 146.31 63.52 146.82 63.52 146.82 110.34 146.82 110.34"/><polygon class="cls-5" points="181.11 63.52 203.97 63.52 203.97 273.75 181.11 273.75 181.11 63.52 181.11 63.52"/><path class="cls-6" d="M633.49,866.41a0.83,0.83,0,0,1,.06-0.25,0.66,0.66,0,0,1,.2-0.2,0.82,0.82,0,0,1,.25-0.06v0.51h-0.51Z" transform="translate(-452.88 -802.89)"/><polygon class="cls-6" points="181.11 64.03 181.11 63.52 181.11 63.01 203.97 63.01 203.97 63.52 203.97 64.03 181.11 64.03 181.11 64.03"/><path class="cls-6" d="M656.85,865.9a0.82,0.82,0,0,1,.25.06,0.66,0.66,0,0,1,.2.2,0.83,0.83,0,0,1,.06.25h-0.51V865.9h0Z" transform="translate(-452.88 -802.89)"/><polygon class="cls-6" points="203.46 63.52 203.97 63.52 204.47 63.52 204.47 273.75 203.97 273.75 203.46 273.75 203.46 63.52 203.46 63.52"/><path class="cls-6" d="M657.36,1076.64a0.83,0.83,0,0,1-.06.25,0.66,0.66,0,0,1-.2.2,0.82,0.82,0,0,1-.25.06v-0.51h0.51Z" transform="translate(-452.88 -802.89)"/><polygon class="cls-6" points="203.97 273.24 203.97 273.75 203.97 274.26 181.11 274.26 181.11 273.75 181.11 273.24 203.97 273.24 203.97 273.24"/><path class="cls-6" d="M634,1077.15a0.82,0.82,0,0,1-.25-0.06,0.66,0.66,0,0,1-.2-0.2,0.83,0.83,0,0,1-.06-0.25H634v0.51h0Z" transform="translate(-452.88 -802.89)"/><polygon class="cls-6" points="181.62 273.75 181.11 273.75 180.61 273.75 180.61 63.52 181.11 63.52 181.62 63.52 181.62 273.75 181.62 273.75"/><polygon class="cls-7" points="216.9 63.52 238.77 63.52 238.77 110.34 216.9 110.34 216.9 63.52 216.9 63.52"/><path class="cls-6" d="M669.28,866.41a0.83,0.83,0,0,1,.06-0.25,0.66,0.66,0,0,1,.2-0.2,0.82,0.82,0,0,1,.25-0.06v0.51h-0.51Z" transform="translate(-452.88 -802.89)"/><polygon class="cls-6" points="216.9 64.03 216.9 63.52 216.9 63.01 238.77 63.01 238.77 63.52 238.77 64.03 216.9 64.03 216.9 64.03"/><path class="cls-6" d="M691.65,865.9a0.82,0.82,0,0,1,.25.06,0.66,0.66,0,0,1,.2.2,0.83,0.83,0,0,1,.06.25h-0.51V865.9h0Z" transform="translate(-452.88 -802.89)"/><polygon class="cls-6" points="238.26 63.52 238.77 63.52 239.28 63.52 239.28 110.34 238.77 110.34 238.26 110.34 238.26 63.52 238.26 63.52"/><path class="cls-6" d="M692.16,913.23a0.83,0.83,0,0,1-.06.25,0.66,0.66,0,0,1-.2.2,0.82,0.82,0,0,1-.25.06v-0.51h0.51Z" transform="translate(-452.88 -802.89)"/><polygon class="cls-6" points="238.77 109.83 238.77 110.34 238.77 110.85 216.9 110.85 216.9 110.34 216.9 109.83 238.77 109.83 238.77 109.83"/><path class="cls-6" d="M669.78,913.74a0.82,0.82,0,0,1-.25-0.06,0.66,0.66,0,0,1-.2-0.2,0.83,0.83,0,0,1-.06-0.25h0.51v0.51h0Z" transform="translate(-452.88 -802.89)"/><polygon class="cls-6" points="217.41 110.34 216.9 110.34 216.4 110.34 216.4 63.52 216.9 63.52 217.41 63.52 217.41 110.34 217.41 110.34"/><polygon class="cls-8" points="251.71 110.34 273.57 110.34 273.57 157.19 251.71 157.19 251.71 110.34 251.71 110.34"/><path class="cls-6" d="M704.08,913.23a0.83,0.83,0,0,1,.06-0.25,0.66,0.66,0,0,1,.2-0.2,0.82,0.82,0,0,1,.25-0.06v0.51h-0.51Z" transform="translate(-452.88 -802.89)"/><polygon class="cls-6" points="251.71 110.85 251.71 110.34 251.71 109.83 273.57 109.83 273.57 110.34 273.57 110.85 251.71 110.85 251.71 110.85"/><path class="cls-6" d="M726.46,912.72a0.82,0.82,0,0,1,.25.06,0.66,0.66,0,0,1,.2.2,0.83,0.83,0,0,1,.06.25h-0.51v-0.51h0Z" transform="translate(-452.88 -802.89)"/><polygon class="cls-6" points="273.07 110.34 273.57 110.34 274.08 110.34 274.08 157.19 273.57 157.19 273.07 157.19 273.07 110.34 273.07 110.34"/><path class="cls-6" d="M727,960.07a0.83,0.83,0,0,1-.06.25,0.66,0.66,0,0,1-.2.2,0.82,0.82,0,0,1-.25.06v-0.51H727Z" transform="translate(-452.88 -802.89)"/><polygon class="cls-6" points="273.57 156.68 273.57 157.19 273.57 157.69 251.71 157.69 251.71 157.19 251.71 156.68 273.57 156.68 273.57 156.68"/><path class="cls-6" d="M704.59,960.58a0.82,0.82,0,0,1-.25-0.06,0.66,0.66,0,0,1-.2-0.2,0.83,0.83,0,0,1-.06-0.25h0.51v0.51h0Z" transform="translate(-452.88 -802.89)"/><polygon class="cls-6" points="252.21 157.19 251.71 157.19 251.2 157.19 251.2 110.34 251.71 110.34 252.21 110.34 252.21 157.19 252.21 157.19"/><polygon class="cls-9" points="286.51 157.19 308.38 157.19 308.38 204 286.51 204 286.51 157.19 286.51 157.19"/><path class="cls-6" d="M738.88,960.07a0.83,0.83,0,0,1,.06-0.25,0.66,0.66,0,0,1,.2-0.2,0.82,0.82,0,0,1,.25-0.06v0.51h-0.51Z" transform="translate(-452.88 -802.89)"/><polygon class="cls-6" points="286.51 157.69 286.51 157.19 286.51 156.68 308.38 156.68 308.38 157.19 308.38 157.69 286.51 157.69 286.51 157.69"/><path class="cls-6" d="M761.26,959.57a0.82,0.82,0,0,1,.25.06,0.66,0.66,0,0,1,.2.2,0.83,0.83,0,0,1,.06.25h-0.51v-0.51h0Z" transform="translate(-452.88 -802.89)"/><polygon class="cls-6" points="307.87 157.19 308.38 157.19 308.88 157.19 308.88 204 308.38 204 307.87 204 307.87 157.19 307.87 157.19"/><path class="cls-6" d="M761.77,1006.89a0.83,0.83,0,0,1-.06.25,0.66,0.66,0,0,1-.2.2,0.82,0.82,0,0,1-.25.06v-0.51h0.51Z" transform="translate(-452.88 -802.89)"/><polygon class="cls-6" points="308.38 203.49 308.38 204 308.38 204.51 286.51 204.51 286.51 204 286.51 203.49 308.38 203.49 308.38 203.49"/><path class="cls-6" d="M739.39,1007.4a0.82,0.82,0,0,1-.25-0.06,0.66,0.66,0,0,1-.2-0.2,0.83,0.83,0,0,1-.06-0.25h0.51v0.51h0Z" transform="translate(-452.88 -802.89)"/><polygon class="cls-6" points="287.02 204 286.51 204 286 204 286 157.19 286.51 157.19 287.02 157.19 287.02 204 287.02 204"/><polygon class="cls-10" points="321.31 204 343.18 204 343.18 273.75 321.31 273.75 321.31 204 321.31 204"/><path class="cls-6" d="M773.69,1006.89a0.83,0.83,0,0,1,.06-0.25,0.66,0.66,0,0,1,.2-0.2,0.82,0.82,0,0,1,.25-0.06v0.51h-0.51Z" transform="translate(-452.88 -802.89)"/><polygon class="cls-6" points="321.31 204.51 321.31 204 321.31 203.49 343.18 203.49 343.18 204 343.18 204.51 321.31 204.51 321.31 204.51"/><path class="cls-6" d="M796.06,1006.38a0.82,0.82,0,0,1,.25.06,0.66,0.66,0,0,1,.2.2,0.83,0.83,0,0,1,.06.25h-0.51v-0.51h0Z" transform="translate(-452.88 -802.89)"/><polygon class="cls-6" points="342.67 204 343.18 204 343.69 204 343.69 273.75 343.18 273.75 342.67 273.75 342.67 204 342.67 204"/><path class="cls-6" d="M796.57,1076.64a0.83,0.83,0,0,1-.06.25,0.66,0.66,0,0,1-.2.2,0.82,0.82,0,0,1-.25.06v-0.51h0.51Z" transform="translate(-452.88 -802.89)"/><polygon class="cls-6" points="343.18 273.24 343.18 273.75 343.18 274.26 321.31 274.26 321.31 273.75 321.31 273.24 343.18 273.24 343.18 273.24"/><path class="cls-6" d="M774.19,1077.15a0.82,0.82,0,0,1-.25-0.06,0.66,0.66,0,0,1-.2-0.2,0.83,0.83,0,0,1-.06-0.25h0.51v0.51h0Z" transform="translate(-452.88 -802.89)"/><polygon class="cls-6" points="321.82 273.75 321.31 273.75 320.81 273.75 320.81 204 321.31 204 321.82 204 321.82 273.75 321.82 273.75"/></g><g class="cls-11"><polygon class="cls-6" points="70.22 40.59 70.73 40.59 71.23 40.59 71.23 273.75 70.73 273.75 70.22 273.75 70.22 40.59 70.22 40.59"/><polygon class="cls-6" points="66.75 274.26 66.75 273.75 66.75 273.24 70.73 273.24 70.73 273.75 70.73 274.26 66.75 274.26 66.75 274.26"/><polygon class="cls-6" points="66.75 227.44 66.75 226.93 66.75 226.42 70.73 226.42 70.73 226.93 70.73 227.44 66.75 227.44 66.75 227.44"/><polygon class="cls-6" points="66.75 180.59 66.75 180.09 66.75 179.58 70.73 179.58 70.73 180.09 70.73 180.59 66.75 180.59 66.75 180.59"/><polygon class="cls-6" points="66.75 134.76 66.75 134.26 66.75 133.75 70.73 133.75 70.73 134.26 70.73 134.76 66.75 134.76 66.75 134.76"/><polygon class="cls-6" points="66.75 87.92 66.75 87.41 66.75 86.9 70.73 86.9 70.73 87.41 70.73 87.92 66.75 87.92 66.75 87.92"/><polygon class="cls-6" points="66.75 41.1 66.75 40.59 66.75 40.08 70.73 40.08 70.73 40.59 70.73 41.1 66.75 41.1 66.75 41.1"/><polygon class="cls-6" points="70.73 274.26 70.73 273.75 70.73 273.24 350.14 273.24 350.14 273.75 350.14 274.26 70.73 274.26 70.73 274.26"/><polygon class="cls-6" points="71.23 277.73 70.73 277.73 70.22 277.73 70.22 273.75 70.73 273.75 71.23 273.75 71.23 277.73 71.23 277.73"/><polygon class="cls-6" points="106.04 277.73 105.53 277.73 105.02 277.73 105.02 273.75 105.53 273.75 106.04 273.75 106.04 277.73 106.04 277.73"/><polygon class="cls-6" points="140.84 277.73 140.34 277.73 139.83 277.73 139.83 273.75 140.34 273.75 140.84 273.75 140.84 277.73 140.84 277.73"/><polygon class="cls-6" points="175.65 277.73 175.14 277.73 174.63 277.73 174.63 273.75 175.14 273.75 175.65 273.75 175.65 277.73 175.65 277.73"/><polygon class="cls-6" points="211.44 277.73 210.93 277.73 210.42 277.73 210.42 273.75 210.93 273.75 211.44 273.75 211.44 277.73 211.44 277.73"/><polygon class="cls-6" points="246.24 277.73 245.73 277.73 245.22 277.73 245.22 273.75 245.73 273.75 246.24 273.75 246.24 277.73 246.24 277.73"/><polygon class="cls-6" points="281.04 277.73 280.54 277.73 280.03 277.73 280.03 273.75 280.54 273.75 281.04 273.75 281.04 277.73 281.04 277.73"/><polygon class="cls-6" points="315.85 277.73 315.34 277.73 314.83 277.73 314.83 273.75 315.34 273.75 315.85 273.75 315.85 277.73 315.85 277.73"/><polygon class="cls-6" points="350.65 277.73 350.14 277.73 349.63 277.73 349.63 273.75 350.14 273.75 350.65 273.75 350.65 277.73 350.65 277.73"/></g><g class="cls-12"><circle class="cls-13" cx="32.94" cy="12.69"/><text class="cls-14" transform="translate(84.65 232.29) scale(1.07 1)">4</text></g><g class="cls-15"><circle class="cls-13" cx="32.94" cy="12.69"/><text class="cls-14" transform="translate(119.45 150.57) scale(1.07 1)">3</text></g><g class="cls-16"><circle class="cls-13" cx="32.94" cy="12.69"/><text class="cls-14" transform="translate(154.25 91.79) scale(1.07 1)">2</text></g><g class="cls-17"><circle class="cls-13" cx="32.94" cy="12.69"/><text class="cls-14" transform="translate(189.06 173.51) scale(1.07 1)">9</text></g><g class="cls-18"><circle class="cls-13" cx="32.94" cy="12.69"/><text class="cls-19" transform="translate(224.85 91.79) scale(1.07 1)">2</text></g><g class="cls-20"><circle class="cls-13" cx="32.94" cy="12.69"/><text class="cls-14" transform="translate(329.26 244.24) scale(1.07 1)">3</text></g><g class="cls-21"><circle class="cls-13" cx="32.94" cy="12.69"/><text class="cls-14" transform="translate(294.46 185.45) scale(1.07 1)">2</text></g><g class="cls-22"><circle class="cls-13" cx="32.94" cy="12.69"/><text class="cls-19" transform="translate(259.65 138.63) scale(1.07 1)">2</text></g><g class="cls-11"><circle class="cls-13" cx="32.94" cy="12.69"/><text class="cls-14" transform="translate(53.82 279.11) scale(1.07 1)">0</text><circle class="cls-13" cx="32.94" cy="12.69"/><text class="cls-14" transform="translate(53.82 232.29) scale(1.07 1)">2</text><circle class="cls-13" cx="32.94" cy="12.69"/><text class="cls-14" transform="translate(53.82 185.45) scale(1.07 1)">4</text><circle class="cls-13" cx="32.94" cy="12.69"/><text class="cls-14" transform="translate(53.82 139.62) scale(1.07 1)">6</text><circle class="cls-13" cx="32.94" cy="12.69"/><text class="cls-14" transform="translate(53.82 92.78) scale(1.07 1)">8</text><circle class="cls-13" cx="32.94" cy="12.69"/><text class="cls-14" transform="translate(46.86 45.96) scale(1.07 1)">1<tspan x="7.37" y="0">0</tspan></text></g><polygon class="cls-6" points="131.44 109.94 131.44 109.75 131.44 109.56 136.74 109.56 136.74 109.75 136.74 109.94 131.44 109.94 131.44 109.94"/><polygon class="cls-6" points="140.71 109.94 140.71 109.75 140.71 109.56 144.46 109.56 144.46 109.75 144.46 109.94 140.71 109.94 140.71 109.94"/><polygon class="cls-6" points="96.41 179.74 96.41 179.55 96.41 179.36 101.71 179.36 101.71 179.55 101.71 179.74 96.41 179.74 96.41 179.74"/><polygon class="cls-6" points="105.68 179.74 105.68 179.55 105.68 179.36 109.43 179.36 109.43 179.55 109.43 179.74 105.68 179.74 105.68 179.74"/><polygon class="cls-6" points="166.48 63.05 166.48 62.86 166.48 62.67 171.77 62.67 171.77 62.86 171.77 63.05 166.48 63.05 166.48 63.05"/><polygon class="cls-6" points="175.75 63.05 175.75 62.86 175.75 62.67 179.49 62.67 179.49 62.86 179.49 63.05 175.75 63.05 175.75 63.05"/><polygon class="cls-6" points="202.49 63.05 202.49 62.86 202.49 62.67 207.79 62.67 207.79 62.86 207.79 63.05 202.49 63.05 202.49 63.05"/><polygon class="cls-6" points="211.76 63.05 211.76 62.86 211.76 62.67 215.5 62.67 215.5 62.86 215.5 63.05 211.76 63.05 211.76 63.05"/><polygon class="cls-6" points="307.59 203.67 307.59 203.48 307.59 203.29 312.88 203.29 312.88 203.48 312.88 203.67 307.59 203.67 307.59 203.67"/><polygon class="cls-6" points="316.86 203.67 316.86 203.48 316.86 203.29 320.6 203.29 320.6 203.48 320.6 203.67 316.86 203.67 316.86 203.67"/><polygon class="cls-6" points="237.52 109.94 237.52 109.75 237.52 109.56 242.82 109.56 242.82 109.75 242.82 109.94 237.52 109.94 237.52 109.94"/><polygon class="cls-6" points="246.79 109.94 246.79 109.75 246.79 109.56 250.54 109.56 250.54 109.75 250.54 109.94 246.79 109.94 246.79 109.94"/><polygon class="cls-6" points="272.56 156.78 272.56 156.6 272.56 156.41 277.85 156.41 277.85 156.6 277.85 156.78 272.56 156.78 272.56 156.78"/><polygon class="cls-6" points="281.82 156.78 281.82 156.6 281.82 156.41 285.57 156.41 285.57 156.6 285.57 156.78 281.82 156.78 281.82 156.78"/><rect class="cls-23" width="395" height="395"/></svg>