<svg id="Layer_1" data-name="Layer 1" xmlns="http://www.w3.org/2000/svg" viewBox="0 0 395 395"><defs><style>.cls-1{font-size:11px;}.cls-1,.cls-8{fill:#010101;}.cls-1,.cls-8,.cls-9{font-family:Open Sans;}.cls-2{fill:#818181;}.cls-2,.cls-3,.cls-5,.cls-6{fill-rule:evenodd;}.cls-3{fill:#db7027;}.cls-10,.cls-4{fill:none;}.cls-4{stroke:#818181;stroke-linecap:square;stroke-miterlimit:10;stroke-width:0;}.cls-5{fill:#3bb54a;}.cls-6{fill:#b3b3b3;}.cls-7,.cls-9{fill:#fff;}.cls-8,.cls-9{font-size:11.56px;}</style></defs><title>graph_06</title><text class="cls-1" transform="translate(118.03 317.77) rotate(-90)">Overdue<tspan x="15.93" y="12.4">Tasks</tspan><tspan x="-25.74" y="39.6">Tasks created</tspan><tspan x="7.1" y="52">by RRO</tspan><tspan x="-6.59" y="76.4">Tasks due</tspan><tspan x="-3.79" y="88.8">this week</tspan><tspan x="18.89" y="120.4">Total</tspan><tspan x="15.93" y="149.6">Tasks</tspan><tspan x="-11.9" y="162">Completed</tspan><tspan x="-36.64" y="188.8">Tasks No Status</tspan><tspan x="-4.34" y="201.2">/ Pending</tspan></text><polygon class="cls-2" points="283.69 155.63 283.69 155.47 283.69 155.3 288.43 155.3 288.43 155.47 288.43 155.63 283.69 155.63 283.69 155.63"/><polygon class="cls-2" points="291.98 155.63 291.98 155.47 291.98 155.3 296.72 155.3 296.72 155.47 296.72 155.63 291.98 155.63 291.98 155.63"/><polygon class="cls-2" points="208.48 51.66 208.48 51.49 208.48 51.32 213.22 51.32 213.22 51.49 213.22 51.66 208.48 51.66 208.48 51.66"/><polygon class="cls-2" points="216.78 51.66 216.78 51.49 216.78 51.32 221.51 51.32 221.51 51.49 221.51 51.66 216.78 51.66 216.78 51.66"/><polygon class="cls-2" points="246.09 51.66 246.09 51.49 246.09 51.32 250.82 51.32 250.82 51.49 250.82 51.66 246.09 51.66 246.09 51.66"/><polygon class="cls-2" points="254.38 51.66 254.38 51.49 254.38 51.32 259.12 51.32 259.12 51.49 259.12 51.66 254.38 51.66 254.38 51.66"/><polygon class="cls-2" points="169.97 104.1 169.97 103.93 169.97 103.76 174.7 103.76 174.7 103.93 174.7 104.1 169.97 104.1 169.97 104.1"/><polygon class="cls-2" points="178.26 104.1 178.26 103.93 178.26 103.76 183 103.76 183 103.93 183 104.1 178.26 104.1 178.26 104.1"/><polygon class="cls-2" points="132.36 155.63 132.36 155.47 132.36 155.3 137.1 155.3 137.1 155.47 137.1 155.63 132.36 155.63 132.36 155.63"/><polygon class="cls-2" points="140.66 155.63 140.66 155.47 140.66 155.3 145.39 155.3 145.39 155.47 145.39 155.63 140.66 155.63 140.66 155.63"/><polygon class="cls-3" points="109.08 155.47 132.36 155.47 132.36 259.44 109.08 259.44 109.08 155.47 109.08 155.47"/><polyline class="cls-4" points="109.08 155.47 132.36 155.47 132.36 259.44 109.08 259.44 109.08 155.47"/><polygon class="cls-3" points="146.68 103.02 169.97 103.02 169.97 155.47 146.68 155.47 146.68 103.02 146.68 103.02"/><polyline class="cls-4" points="146.68 103.02 169.97 103.02 169.97 155.47 146.68 155.47 146.68 103.02"/><polygon class="cls-3" points="184.28 51.49 208.45 51.49 208.45 103.02 184.28 103.02 184.28 51.49 184.28 51.49"/><polyline class="cls-4" points="184.28 51.49 208.45 51.49 208.45 103.02 184.28 103.02 184.28 51.49"/><polygon class="cls-3" points="222.8 51.49 246.05 51.49 246.05 259.44 222.8 259.44 222.8 51.49 222.8 51.49"/><polyline class="cls-4" points="222.8 51.49 246.05 51.49 246.05 259.44 222.8 259.44 222.8 51.49"/><polygon class="cls-5" points="260.4 51.49 283.66 51.49 283.66 155.47 260.4 155.47 260.4 51.49 260.4 51.49"/><polyline class="cls-4" points="260.4 51.49 283.66 51.49 283.66 155.47 260.4 155.47 260.4 51.49"/><polygon class="cls-6" points="298.01 155.47 321.26 155.47 321.26 259.44 298.01 259.44 298.01 155.47 298.01 155.47"/><polyline class="cls-4" points="298.01 155.47 321.26 155.47 321.26 259.44 298.01 259.44 298.01 155.47"/><polygon class="cls-2" points="101.46 51.49 101.9 51.49 102.37 51.49 102.37 259.44 101.9 259.44 101.46 259.44 101.46 51.49 101.46 51.49"/><polygon class="cls-2" points="98.31 259.92 98.31 259.44 98.31 259.01 101.9 259.01 101.9 259.44 101.9 259.92 98.31 259.92 98.31 259.92"/><polygon class="cls-2" points="98.31 208.38 98.31 207.91 98.31 207.47 101.9 207.47 101.9 207.91 101.9 208.38 98.31 208.38 98.31 208.38"/><polygon class="cls-2" points="98.31 155.94 98.31 155.47 98.31 155.03 101.9 155.03 101.9 155.47 101.9 155.94 98.31 155.94 98.31 155.94"/><polygon class="cls-2" points="98.31 104.4 98.31 103.93 98.31 103.49 101.9 103.49 101.9 103.93 101.9 104.4 98.31 104.4 98.31 104.4"/><polygon class="cls-2" points="98.31 51.96 98.31 51.49 98.31 51.05 101.9 51.05 101.9 51.49 101.9 51.96 98.31 51.96 98.31 51.96"/><polygon class="cls-2" points="101.9 259.92 101.9 259.44 101.9 259.01 328.44 259.01 328.44 259.44 328.44 259.92 101.9 259.92 101.9 259.92"/><polygon class="cls-2" points="102.37 263.01 101.9 263.01 101.46 263.01 101.46 259.44 101.9 259.44 102.37 259.44 102.37 263.01 102.37 263.01"/><polygon class="cls-2" points="139.98 263.01 139.5 263.01 139.06 263.01 139.06 259.44 139.5 259.44 139.98 259.44 139.98 263.01 139.98 263.01"/><polygon class="cls-2" points="177.58 263.01 177.11 263.01 176.67 263.01 176.67 259.44 177.11 259.44 177.58 259.44 177.58 263.01 177.58 263.01"/><polygon class="cls-2" points="216.1 263.01 215.63 263.01 215.19 263.01 215.19 259.44 215.63 259.44 216.1 259.44 216.1 263.01 216.1 263.01"/><polygon class="cls-2" points="253.7 263.01 253.23 263.01 252.79 263.01 252.79 259.44 253.23 259.44 253.7 259.44 253.7 263.01 253.7 263.01"/><polygon class="cls-2" points="291.31 263.01 290.83 263.01 290.39 263.01 290.39 259.44 290.83 259.44 291.31 259.44 291.31 263.01 291.31 263.01"/><polygon class="cls-2" points="328.91 263.01 328.44 263.01 328 263.01 328 259.44 328.44 259.44 328.91 259.44 328.91 263.01 328.91 263.01"/><circle class="cls-7" cx="66.09" cy="26.59"/><text class="cls-8" transform="translate(114.42 210.4) scale(1.05 1)">2<tspan x="6.12" y="0">0</tspan></text><circle class="cls-7" cx="66.09" cy="26.59"/><text class="cls-8" transform="translate(228.15 158.82) scale(1.05 1)">4<tspan x="6.12" y="0">0</tspan></text><circle class="cls-7" cx="66.09" cy="26.59"/><text class="cls-8" transform="translate(303.4 210.4) scale(1.05 1)">2<tspan x="6.12" y="0">0</tspan></text><circle class="cls-7" cx="66.09" cy="26.59"/><text class="cls-9" transform="translate(265.79 106.38) scale(1.05 1)">2<tspan x="6.12" y="0">0</tspan></text><circle class="cls-7" cx="66.09" cy="26.59"/><text class="cls-8" transform="translate(189.64 80.62) scale(1.05 1)">1<tspan x="6.12" y="0">0</tspan></text><circle class="cls-7" cx="66.09" cy="26.59"/><text class="cls-8" transform="translate(152.04 132.18) scale(1.05 1)">1<tspan x="6.12" y="0">0</tspan></text><circle class="cls-7" cx="66.09" cy="26.59"/><text class="cls-8" transform="translate(86.71 262.84) scale(1.05 1)">0</text><circle class="cls-7" cx="66.09" cy="26.59"/><text class="cls-8" transform="translate(80.44 211.27) scale(1.05 1)">1<tspan x="6.12" y="0">0</tspan></text><circle class="cls-7" cx="66.09" cy="26.59"/><text class="cls-8" transform="translate(80.44 158.82) scale(1.05 1)">2<tspan x="6.12" y="0">0</tspan></text><circle class="cls-7" cx="66.09" cy="26.59"/><text class="cls-8" transform="translate(80.44 107.29) scale(1.05 1)">3<tspan x="6.12" y="0">0</tspan></text><circle class="cls-7" cx="66.09" cy="26.59"/><text class="cls-8" transform="translate(80.44 54.85) scale(1.05 1)">4<tspan x="6.12" y="0">0</tspan></text><rect class="cls-10" width="395" height="395"/></svg>