<svg id="Layer_1" data-name="Layer 1" xmlns="http://www.w3.org/2000/svg" viewBox="0 0 395 395"><defs><style>.cls-1{font-size:11px;}.cls-1,.cls-10{fill:#010101;}.cls-1,.cls-10,.cls-11{font-family:Open Sans;}.cls-2{fill:#818181;}.cls-2,.cls-3,.cls-5,.cls-6,.cls-7,.cls-8{fill-rule:evenodd;}.cls-3{fill:#db7027;}.cls-12,.cls-4{fill:none;}.cls-4{stroke:#818181;stroke-linecap:square;stroke-miterlimit:10;stroke-width:0;}.cls-5{fill:#3bb54a;}.cls-6{fill:#c32026;}.cls-7{fill:#fceb03;}.cls-8{fill:#b3b3b3;}.cls-11,.cls-9{fill:#fff;}.cls-10,.cls-11{font-size:11.75px;}</style></defs><title>graph_05</title><text class="cls-1" transform="translate(89.64 325.35) rotate(-90)">Overdue<tspan x="15.93" y="12.4">Tasks</tspan><tspan x="-25.74" y="37.2">Tasks created</tspan><tspan x="7.1" y="49.6">by RRO</tspan><tspan x="-6.59" y="74.4">Tasks due</tspan><tspan x="-3.79" y="86.8">this week</tspan><tspan x="18.89" y="111.6">Total</tspan><tspan x="-8.79" y="136.4">Successful</tspan><tspan x="-4.19" y="148.8">Renewals</tspan><tspan x="14.13" y="173.6">Failed</tspan><tspan x="-4.19" y="186">Renewals</tspan><tspan x="-0.92" y="210.8">Payment</tspan><tspan x="-10.98" y="223.2">Reminders</tspan><tspan x="15.93" y="248">Tasks</tspan><tspan x="2.56" y="260.4">Pending</tspan></text><polygon class="cls-2" points="282.23 154.11 282.23 153.94 282.23 153.77 287.04 153.77 287.04 153.94 287.04 154.11 282.23 154.11 282.23 154.11"/><polygon class="cls-2" points="290.65 154.11 290.65 153.94 290.65 153.77 294.94 153.77 294.94 153.94 294.94 154.11 290.65 154.11 290.65 154.11"/><polygon class="cls-2" points="246.78 111.66 246.78 111.48 246.78 111.31 251.59 111.31 251.59 111.48 251.59 111.66 246.78 111.66 246.78 111.66"/><polygon class="cls-2" points="255.2 111.66 255.2 111.48 255.2 111.31 259.49 111.31 259.49 111.48 259.49 111.66 255.2 111.66 255.2 111.66"/><polygon class="cls-2" points="317.69 196.6 317.69 196.43 317.69 196.26 322.5 196.26 322.5 196.43 322.5 196.6 317.69 196.6 317.69 196.6"/><polygon class="cls-2" points="326.1 196.6 326.1 196.43 326.1 196.26 330.4 196.26 330.4 196.43 330.4 196.6 326.1 196.6 326.1 196.6"/><polygon class="cls-2" points="212.22 69.17 212.22 69 212.22 68.82 217.03 68.82 217.03 69 217.03 69.17 212.22 69.17 212.22 69.17"/><polygon class="cls-2" points="220.64 69.17 220.64 69 220.64 68.82 224.97 68.82 224.97 69 224.97 69.17 220.64 69.17 220.64 69.17"/><polygon class="cls-2" points="176.8 69.17 176.8 69 176.8 68.82 181.61 68.82 181.61 69 181.61 69.17 176.8 69.17 176.8 69.17"/><polygon class="cls-2" points="185.22 69.17 185.22 69 185.22 68.82 189.51 68.82 189.51 69 189.51 69.17 185.22 69.17 185.22 69.17"/><polygon class="cls-2" points="141.35 111.66 141.35 111.48 141.35 111.31 146.16 111.31 146.16 111.48 146.16 111.66 141.35 111.66 141.35 111.66"/><polygon class="cls-2" points="149.77 111.66 149.77 111.48 149.77 111.31 154.06 111.31 154.06 111.48 154.06 111.66 149.77 111.66 149.77 111.66"/><polygon class="cls-2" points="105.9 174.91 105.9 174.74 105.9 174.57 110.71 174.57 110.71 174.74 110.71 174.91 105.9 174.91 105.9 174.91"/><polygon class="cls-2" points="114.31 174.91 114.31 174.74 114.31 174.57 118.61 174.57 118.61 174.74 118.61 174.91 114.31 174.91 114.31 174.91"/><polygon class="cls-3" points="83.19 174.71 105.9 174.71 105.9 259.65 83.19 259.65 83.19 174.71 83.19 174.71"/><polyline class="cls-4" points="83.19 174.71 105.9 174.71 105.9 259.65 83.19 259.65 83.19 174.71"/><polygon class="cls-3" points="118.64 111.48 141.35 111.48 141.35 174.71 118.64 174.71 118.64 111.48 118.64 111.48"/><polyline class="cls-4" points="118.64 111.48 141.35 111.48 141.35 174.71 118.64 174.71 118.64 111.48"/><polygon class="cls-3" points="154.09 69.03 176.84 69.03 176.84 111.48 154.09 111.48 154.09 69.03 154.09 69.03"/><polyline class="cls-4" points="154.09 69.03 176.84 69.03 176.84 111.48 154.09 111.48 154.09 69.03"/><polygon class="cls-3" points="189.55 69.03 212.25 69.03 212.25 259.65 189.55 259.65 189.55 69.03 189.55 69.03"/><polyline class="cls-4" points="189.55 69.03 212.25 69.03 212.25 259.65 189.55 259.65 189.55 69.03"/><polygon class="cls-5" points="225 69.03 246.81 69.03 246.81 111.48 225 111.48 225 69.03 225 69.03"/><polyline class="cls-4" points="225 69.03 246.81 69.03 246.81 111.48 225 111.48 225 69.03"/><polygon class="cls-6" points="259.52 111.48 282.23 111.48 282.23 153.94 259.52 153.94 259.52 111.48 259.52 111.48"/><polyline class="cls-4" points="259.52 111.48 282.23 111.48 282.23 153.94 259.52 153.94 259.52 111.48"/><polygon class="cls-7" points="294.98 153.94 317.69 153.94 317.69 196.4 294.98 196.4 294.98 153.94 294.98 153.94"/><polyline class="cls-4" points="294.98 153.94 317.69 153.94 317.69 196.4 294.98 196.4 294.98 153.94"/><polygon class="cls-8" points="330.43 196.4 353.14 196.4 353.14 259.65 330.43 259.65 330.43 196.4 330.43 196.4"/><polyline class="cls-4" points="330.43 196.4 353.14 196.4 353.14 259.65 330.43 259.65 330.43 196.4"/><polygon class="cls-2" points="76.39 48.23 76.83 48.23 77.31 48.23 77.31 259.65 76.83 259.65 76.39 259.65 76.39 48.23 76.39 48.23"/><polygon class="cls-2" points="73.19 260.13 73.19 259.65 73.19 259.21 76.83 259.21 76.83 259.65 76.83 260.13 73.19 260.13 73.19 260.13"/><polygon class="cls-2" points="73.19 217.67 73.19 217.2 73.19 216.75 76.83 216.75 76.83 217.2 76.83 217.67 73.19 217.67 73.19 217.67"/><polygon class="cls-2" points="73.19 175.18 73.19 174.71 73.19 174.26 76.83 174.26 76.83 174.71 76.83 175.18 73.19 175.18 73.19 175.18"/><polygon class="cls-2" points="73.19 133.65 73.19 133.17 73.19 132.73 76.83 132.73 76.83 133.17 76.83 133.65 73.19 133.65 73.19 133.65"/><polygon class="cls-2" points="73.19 91.16 73.19 90.68 73.19 90.24 76.83 90.24 76.83 90.68 76.83 91.16 73.19 91.16 73.19 91.16"/><polygon class="cls-2" points="73.19 48.71 73.19 48.23 73.19 47.78 76.83 47.78 76.83 48.23 76.83 48.71 73.19 48.71 73.19 48.71"/><polygon class="cls-2" points="76.83 260.13 76.83 259.65 76.83 259.21 359.49 259.21 359.49 259.65 359.49 260.13 76.83 260.13 76.83 260.13"/><polygon class="cls-2" points="77.31 263.27 76.83 263.27 76.39 263.27 76.39 259.65 76.83 259.65 77.31 259.65 77.31 263.27 77.31 263.27"/><polygon class="cls-2" points="112.77 263.27 112.29 263.27 111.84 263.27 111.84 259.65 112.29 259.65 112.77 259.65 112.77 263.27 112.77 263.27"/><polygon class="cls-2" points="148.19 263.27 147.71 263.27 147.26 263.27 147.26 259.65 147.71 259.65 148.19 259.65 148.19 263.27 148.19 263.27"/><polygon class="cls-2" points="183.67 263.27 183.19 263.27 182.75 263.27 182.75 259.65 183.19 259.65 183.67 259.65 183.67 263.27 183.67 263.27"/><polygon class="cls-2" points="219.09 263.27 218.61 263.27 218.16 263.27 218.16 259.65 218.61 259.65 219.09 259.65 219.09 263.27 219.09 263.27"/><polygon class="cls-2" points="253.65 263.27 253.17 263.27 252.72 263.27 252.72 259.65 253.17 259.65 253.65 259.65 253.65 263.27 253.65 263.27"/><polygon class="cls-2" points="289.1 263.27 288.62 263.27 288.18 263.27 288.18 259.65 288.62 259.65 289.1 259.65 289.1 263.27 289.1 263.27"/><polygon class="cls-2" points="324.52 263.27 324.04 263.27 323.59 263.27 323.59 259.65 324.04 259.65 324.52 259.65 324.52 263.27 324.52 263.27"/><polygon class="cls-2" points="359.97 263.27 359.49 263.27 359.05 263.27 359.05 259.65 359.49 259.65 359.97 259.65 359.97 263.27 359.97 263.27"/><circle class="cls-9" cx="35.03" cy="22.92"/><text class="cls-10" transform="translate(87.76 220.61) scale(1.05 1)">4<tspan x="6.22" y="0">0</tspan></text><circle class="cls-9" cx="35.03" cy="22.92"/><text class="cls-10" transform="translate(123.21 146.53) scale(1.05 1)">3<tspan x="6.22" y="0">0</tspan></text><circle class="cls-9" cx="35.03" cy="22.92"/><text class="cls-10" transform="translate(194.08 167.3) scale(1.05 1)">9<tspan x="6.22" y="0">0</tspan></text><circle class="cls-9" cx="35.03" cy="22.92"/><text class="cls-10" transform="translate(334.97 231.48) scale(1.05 1)">3<tspan x="6.22" y="0">0</tspan></text><circle class="cls-9" cx="35.03" cy="22.92"/><text class="cls-10" transform="translate(299.52 178.16) scale(1.05 1)">2<tspan x="6.22" y="0">0</tspan></text><circle class="cls-9" cx="35.03" cy="22.92"/><text class="cls-11" transform="translate(264.06 135.68) scale(1.05 1)">2<tspan x="6.22" y="0">0</tspan></text><circle class="cls-9" cx="35.03" cy="22.92"/><text class="cls-11" transform="translate(229.54 93.21) scale(1.05 1)">2<tspan x="6.22" y="0">0</tspan></text><circle class="cls-9" cx="35.03" cy="22.92"/><text class="cls-10" transform="translate(158.63 93.21) scale(1.05 1)">2<tspan x="6.22" y="0">0</tspan></text><circle class="cls-9" cx="35.03" cy="22.92"/><text class="cls-10" transform="translate(61.38 263.1) scale(1.05 1)">0</text><circle class="cls-9" cx="35.03" cy="22.92"/><text class="cls-10" transform="translate(55.03 220.61) scale(1.05 1)">2<tspan x="6.22" y="0">0</tspan></text><circle class="cls-9" cx="35.03" cy="22.92"/><text class="cls-10" transform="translate(55.03 178.16) scale(1.05 1)">4<tspan x="6.22" y="0">0</tspan></text><circle class="cls-9" cx="35.03" cy="22.92"/><text class="cls-10" transform="translate(55.03 136.59) scale(1.05 1)">6<tspan x="6.22" y="0">0</tspan></text><circle class="cls-9" cx="35.03" cy="22.92"/><text class="cls-10" transform="translate(55.03 94.11) scale(1.05 1)">8<tspan x="6.22" y="0">0</tspan></text><circle class="cls-9" cx="35.03" cy="22.92"/><text class="cls-10" transform="translate(48.67 51.65) scale(1.05 1)">10<tspan x="12.45" y="0">0</tspan></text><rect class="cls-12" width="395" height="395"/></svg>