<svg id="Layer_1" data-name="Layer 1" xmlns="http://www.w3.org/2000/svg" viewBox="0 0 395 395"><defs><style>.cls-1{font-size:11px;}.cls-1,.cls-10{fill:#010101;}.cls-1,.cls-10,.cls-11{font-family:Open Sans;}.cls-2{fill:#818181;}.cls-2,.cls-3,.cls-5,.cls-6,.cls-7,.cls-8{fill-rule:evenodd;}.cls-3{fill:#db7027;}.cls-12,.cls-4{fill:none;}.cls-4{stroke:#818181;stroke-linecap:square;stroke-miterlimit:10;stroke-width:0;}.cls-5{fill:#3bb54a;}.cls-6{fill:#fceb03;}.cls-7{fill:#c32026;}.cls-8{fill:#b3b3b3;}.cls-11,.cls-9{fill:#fff;}.cls-10,.cls-11{font-size:11.56px;}</style></defs><title>graph_04</title><text class="cls-1" transform="translate(72.36 347.58) rotate(-90)">Overdue Tasks<tspan x="-22.34" y="37.2">Task Due this week</tspan><tspan x="5.5" y="49.6">- RRO created</tspan><tspan x="-21.07" y="86.8">Task due this week</tspan><tspan x="-3.18" y="99.2">- centrally creat</tspan><tspan x="50.22" y="136.4">Total</tspan><tspan x="22.54" y="173.6">Successful</tspan><tspan x="18.12" y="210.8">In Progress</tspan><tspan x="45.46" y="248">Failed</tspan><tspan x="-5.31" y="285.2">Tasks No Status</tspan><tspan x="26.99" y="297.6">/ Pending</tspan></text><polygon class="cls-2" points="128.87 93.9 128.87 93.73 128.87 93.56 133.6 93.56 133.6 93.73 133.6 93.9 128.87 93.9 128.87 93.9"/><polygon class="cls-2" points="137.15 93.9 137.15 93.73 137.15 93.56 141.88 93.56 141.88 93.73 141.88 93.9 137.15 93.9 137.15 93.9"/><polygon class="cls-2" points="87.74 176.58 87.74 176.41 87.74 176.24 92.47 176.24 92.47 176.41 92.47 176.58 87.74 176.58 87.74 176.58"/><polygon class="cls-2" points="96.02 176.58 96.02 176.41 96.02 176.24 100.75 176.24 100.75 176.41 100.75 176.58 96.02 176.58 96.02 176.58"/><polygon class="cls-2" points="169.09 52.14 169.09 51.97 169.09 51.8 173.82 51.8 173.82 51.97 173.82 52.14 169.09 52.14 169.09 52.14"/><polygon class="cls-2" points="177.37 52.14 177.37 51.97 177.37 51.8 182.1 51.8 182.1 51.97 182.1 52.14 177.37 52.14 177.37 52.14"/><polygon class="cls-2" points="210.22 52.14 210.22 51.97 210.22 51.8 214.96 51.8 214.96 51.97 214.96 52.14 210.22 52.14 210.22 52.14"/><polygon class="cls-2" points="218.51 52.14 218.51 51.97 218.51 51.8 223.24 51.8 223.24 51.97 223.24 52.14 218.51 52.14 218.51 52.14"/><polygon class="cls-2" points="250.48 93.9 250.48 93.73 250.48 93.56 255.21 93.56 255.21 93.73 255.21 93.9 250.48 93.9 250.48 93.9"/><polygon class="cls-2" points="258.76 93.9 258.76 93.73 258.76 93.56 263.49 93.56 263.49 93.73 263.49 93.9 258.76 93.9 258.76 93.9"/><polygon class="cls-2" points="290.73 135.69 290.73 135.52 290.73 135.36 295.47 135.36 295.47 135.52 295.47 135.69 290.73 135.69 290.73 135.69"/><polygon class="cls-2" points="299.01 135.69 299.01 135.52 299.01 135.36 303.75 135.36 303.75 135.52 303.75 135.69 299.01 135.69 299.01 135.69"/><polygon class="cls-2" points="331.87 176.58 331.87 176.41 331.87 176.24 336.6 176.24 336.6 176.41 336.6 176.58 331.87 176.58 331.87 176.58"/><polygon class="cls-2" points="340.15 176.58 340.15 176.41 340.15 176.24 344.88 176.24 344.88 176.41 344.88 176.58 340.15 176.58 340.15 176.58"/><polygon class="cls-3" points="62.66 176.38 87.7 176.38 87.7 259.93 62.66 259.93 62.66 176.38 62.66 176.38"/><polyline class="cls-4" points="62.66 176.38 87.7 176.38 87.7 259.93 62.66 259.93 62.66 176.38"/><polygon class="cls-3" points="102.91 93.73 128.87 93.73 128.87 176.38 102.91 176.38 102.91 93.73 102.91 93.73"/><polyline class="cls-4" points="102.91 93.73 128.87 93.73 128.87 176.38 102.91 176.38 102.91 93.73"/><polygon class="cls-3" points="144.05 51.97 169.09 51.97 169.09 93.73 144.05 93.73 144.05 51.97 144.05 51.97"/><polyline class="cls-4" points="144.05 51.97 169.09 51.97 169.09 93.73 144.05 93.73 144.05 51.97"/><polygon class="cls-3" points="184.3 51.97 210.22 51.97 210.22 259.93 184.3 259.93 184.3 51.97 184.3 51.97"/><polyline class="cls-4" points="184.3 51.97 210.22 51.97 210.22 259.93 184.3 259.93 184.3 51.97"/><polygon class="cls-5" points="225.4 51.97 250.45 51.97 250.45 93.73 225.4 93.73 225.4 51.97 225.4 51.97"/><polyline class="cls-4" points="225.4 51.97 250.45 51.97 250.45 93.73 225.4 93.73 225.4 51.97"/><polygon class="cls-6" points="265.66 93.73 290.7 93.73 290.7 135.52 265.66 135.52 265.66 93.73 265.66 93.73"/><polyline class="cls-4" points="265.66 93.73 290.7 93.73 290.7 135.52 265.66 135.52 265.66 93.73"/><polygon class="cls-7" points="305.91 135.52 331.83 135.52 331.83 176.38 305.91 176.38 305.91 135.52 305.91 135.52"/><polyline class="cls-4" points="305.91 135.52 331.83 135.52 331.83 176.38 305.91 176.38 305.91 135.52"/><polygon class="cls-8" points="347.04 176.38 372.06 176.38 372.06 259.93 347.04 259.93 347.04 176.38 347.04 176.38"/><polyline class="cls-4" points="347.04 176.38 372.06 176.38 372.06 259.93 347.04 259.93 347.04 176.38"/><polygon class="cls-2" points="55.09 51.97 55.53 51.97 56 51.97 56 259.93 55.53 259.93 55.09 259.93 55.09 51.97 55.09 51.97"/><polygon class="cls-2" points="51.95 260.4 51.95 259.93 51.95 259.49 55.53 259.49 55.53 259.93 55.53 260.4 51.95 260.4 51.95 260.4"/><polygon class="cls-2" points="51.95 218.64 51.95 218.17 51.95 217.73 55.53 217.73 55.53 218.17 55.53 218.64 51.95 218.64 51.95 218.64"/><polygon class="cls-2" points="51.95 176.85 51.95 176.38 51.95 175.94 55.53 175.94 55.53 176.38 55.53 176.85 51.95 176.85 51.95 176.85"/><polygon class="cls-2" points="51.95 135.99 51.95 135.52 51.95 135.09 55.53 135.09 55.53 135.52 55.53 135.99 51.95 135.99 51.95 135.99"/><polygon class="cls-2" points="51.95 94.2 51.95 93.73 51.95 93.3 55.53 93.3 55.53 93.73 55.53 94.2 51.95 94.2 51.95 94.2"/><polygon class="cls-2" points="51.95 52.44 51.95 51.97 51.95 51.54 55.53 51.54 55.53 51.97 55.53 52.44 51.95 52.44 51.95 52.44"/><polygon class="cls-2" points="55.53 260.4 55.53 259.93 55.53 259.49 380.13 259.49 380.13 259.93 380.13 260.4 55.53 260.4 55.53 260.4"/><polygon class="cls-2" points="56 263.49 55.53 263.49 55.09 263.49 55.09 259.93 55.53 259.93 56 259.93 56 263.49 56 263.49"/><polygon class="cls-2" points="96.25 263.49 95.78 263.49 95.34 263.49 95.34 259.93 95.78 259.93 96.25 259.93 96.25 263.49 96.25 263.49"/><polygon class="cls-2" points="137.35 263.49 136.88 263.49 136.44 263.49 136.44 259.93 136.88 259.93 137.35 259.93 137.35 263.49 137.35 263.49"/><polygon class="cls-2" points="177.61 263.49 177.14 263.49 176.7 263.49 176.7 259.93 177.14 259.93 177.61 259.93 177.61 263.49 177.61 263.49"/><polygon class="cls-2" points="218.74 263.49 218.27 263.49 217.83 263.49 217.83 259.93 218.27 259.93 218.74 259.93 218.74 263.49 218.74 263.49"/><polygon class="cls-2" points="259 263.49 258.52 263.49 258.08 263.49 258.08 259.93 258.52 259.93 259 259.93 259 263.49 259 263.49"/><polygon class="cls-2" points="299.22 263.49 298.75 263.49 298.31 263.49 298.31 259.93 298.75 259.93 299.22 259.93 299.22 263.49 299.22 263.49"/><polygon class="cls-2" points="340.35 263.49 339.88 263.49 339.44 263.49 339.44 259.93 339.88 259.93 340.35 259.93 340.35 263.49 340.35 263.49"/><polygon class="cls-2" points="380.61 263.49 380.13 263.49 379.69 263.49 379.69 259.93 380.13 259.93 380.61 259.93 380.61 263.49 380.61 263.49"/><circle class="cls-9" cx="14.39" cy="27.08"/><text class="cls-10" transform="translate(109.17 137.99) scale(1.05 1)">4<tspan x="6.12" y="0">0</tspan></text><circle class="cls-9" cx="14.39" cy="27.08"/><text class="cls-10" transform="translate(187.84 159.31) scale(1.05 1)">10<tspan x="12.25" y="0">0</tspan></text><circle class="cls-9" cx="14.39" cy="27.08"/><text class="cls-10" transform="translate(353.29 221.53) scale(1.05 1)">4<tspan x="6.12" y="0">0</tspan></text><circle class="cls-9" cx="14.39" cy="27.08"/><text class="cls-10" transform="translate(271.9 117.55) scale(1.05 1)">2<tspan x="6.12" y="0">0</tspan></text><circle class="cls-9" cx="14.39" cy="27.08"/><text class="cls-10" transform="translate(150.3 75.77) scale(1.05 1)">2<tspan x="6.12" y="0">0</tspan></text><circle class="cls-9" cx="14.39" cy="27.08"/><text class="cls-11" transform="translate(312.16 159.31) scale(1.05 1)">2<tspan x="6.12" y="0">0</tspan></text><circle class="cls-9" cx="14.39" cy="27.08"/><text class="cls-11" transform="translate(231.68 75.77) scale(1.05 1)">2<tspan x="6.12" y="0">0</tspan></text><circle class="cls-9" cx="14.39" cy="27.08"/><text class="cls-10" transform="translate(68.94 221.53) scale(1.05 1)">4<tspan x="6.12" y="0">0</tspan></text><circle class="cls-9" cx="14.39" cy="27.08"/><text class="cls-10" transform="translate(40.31 263.33) scale(1.05 1)">0</text><circle class="cls-9" cx="14.39" cy="27.08"/><text class="cls-10" transform="translate(34.06 221.53) scale(1.05 1)">2<tspan x="6.12" y="0">0</tspan></text><circle class="cls-9" cx="14.39" cy="27.08"/><text class="cls-10" transform="translate(34.06 179.77) scale(1.05 1)">4<tspan x="6.12" y="0">0</tspan></text><circle class="cls-9" cx="14.39" cy="27.08"/><text class="cls-10" transform="translate(34.06 138.88) scale(1.05 1)">6<tspan x="6.12" y="0">0</tspan></text><circle class="cls-9" cx="14.39" cy="27.08"/><text class="cls-10" transform="translate(34.06 97.1) scale(1.05 1)">8<tspan x="6.12" y="0">0</tspan></text><circle class="cls-9" cx="14.39" cy="27.08"/><text class="cls-10" transform="translate(27.8 55.33) scale(1.05 1)">10<tspan x="12.25" y="0">0</tspan></text><rect class="cls-12" width="395" height="395"/></svg>