<svg id="Layer_1" data-name="Layer 1" xmlns="http://www.w3.org/2000/svg" xmlns:xlink="http://www.w3.org/1999/xlink" viewBox="0 0 395 395"><defs><style>.cls-1,.cls-19,.cls-2{fill:none;}.cls-1{clip-rule:evenodd;}.cls-2,.cls-5,.cls-6,.cls-7,.cls-8{fill-rule:evenodd;}.cls-3{font-size:11px;}.cls-12,.cls-3{fill:#010101;}.cls-12,.cls-17,.cls-3{font-family:Open Sans;}.cls-4{clip-path:url(#clip-path);}.cls-5{fill:#db7027;}.cls-6{fill:#818181;}.cls-7{fill:#3bb54a;}.cls-8{fill:#b3b3b3;}.cls-9{clip-path:url(#clip-path-2);}.cls-10{clip-path:url(#clip-path-3);}.cls-11,.cls-17{fill:#fff;}.cls-12,.cls-17{font-size:12.96px;}.cls-13{clip-path:url(#clip-path-4);}.cls-14{clip-path:url(#clip-path-5);}.cls-15{clip-path:url(#clip-path-6);}.cls-16{clip-path:url(#clip-path-7);}.cls-18{clip-path:url(#clip-path-8);}</style><clipPath id="clip-path" transform="translate(-452.96 -802.54)"><polygon class="cls-1" points="547.58 839.4 777.07 839.4 777.07 1076.51 547.58 1076.51 547.58 839.4 547.58 839.4"/></clipPath><clipPath id="clip-path-2" transform="translate(-452.96 -802.54)"><polygon class="cls-1" points="515.92 814.49 785 814.49 785 1103.42 515.92 1103.42 515.92 814.49 515.92 814.49"/></clipPath><clipPath id="clip-path-3" transform="translate(-452.96 -802.54)"><polygon class="cls-1" points="561.43 1004.81 574.27 1004.81 574.27 1029.69 561.43 1029.69 561.43 1004.81 561.43 1004.81"/></clipPath><clipPath id="clip-path-4" transform="translate(-452.96 -802.54)"><polygon class="cls-1" points="599.03 917.13 611.87 917.13 611.87 942.01 599.03 942.01 599.03 917.13 599.03 917.13"/></clipPath><clipPath id="clip-path-5" transform="translate(-452.96 -802.54)"><polygon class="cls-1" points="636.63 859.33 649.47 859.33 649.47 884.21 636.63 884.21 636.63 859.33 636.63 859.33"/></clipPath><clipPath id="clip-path-6" transform="translate(-452.96 -802.54)"><polygon class="cls-1" points="674.23 947.01 687.07 947.01 687.07 971.89 674.23 971.89 674.23 947.01 674.23 947.01"/></clipPath><clipPath id="clip-path-7" transform="translate(-452.96 -802.54)"><polygon class="cls-1" points="711.82 888.22 724.67 888.22 724.67 913.1 711.82 913.1 711.82 888.22 711.82 888.22"/></clipPath><clipPath id="clip-path-8" transform="translate(-452.96 -802.54)"><polygon class="cls-1" points="749.4 1004.81 762.24 1004.81 762.24 1029.69 749.4 1029.69 749.4 1004.81 749.4 1004.81"/></clipPath></defs><title>graph_03</title><text class="cls-3" transform="translate(109.9 327.92) rotate(-90)">Overdue<tspan x="15.93" y="12.4">Tasks</tspan><tspan x="-25.74" y="39.6">Tasks created</tspan><tspan x="7.1" y="52">by RRO</tspan><tspan x="-6.59" y="76.4">Tasks due</tspan><tspan x="-3.79" y="88.8">this week</tspan><tspan x="18.89" y="120.4">Total</tspan><tspan x="15.93" y="149.6">Tasks</tspan><tspan x="-11.9" y="162">Completed</tspan><tspan x="-36.64" y="188.8">Tasks No Status</tspan><tspan x="-4.34" y="201.2">/ Pending</tspan></text><g class="cls-4"><polygon class="cls-5" points="102.52 156.44 126.27 156.44 126.27 273.01 102.52 273.01 102.52 156.44 102.52 156.44"/><path class="cls-6" d="M555,959a0.83,0.83,0,0,1,.06-0.25,0.66,0.66,0,0,1,.2-0.2,0.81,0.81,0,0,1,.25-0.06V959H555Z" transform="translate(-452.96 -802.54)"/><polygon class="cls-6" points="102.52 156.95 102.52 156.44 102.52 155.94 126.27 155.94 126.27 156.44 126.27 156.95 102.52 156.95 102.52 156.95"/><path class="cls-6" d="M579.23,958.47a0.81,0.81,0,0,1,.25.06,0.66,0.66,0,0,1,.2.2,0.83,0.83,0,0,1,.06.25h-0.5v-0.51h0Z" transform="translate(-452.96 -802.54)"/><polygon class="cls-6" points="125.76 156.44 126.27 156.44 126.77 156.44 126.77 273.01 126.27 273.01 125.76 273.01 125.76 156.44 125.76 156.44"/><path class="cls-6" d="M579.74,1075.55a0.83,0.83,0,0,1-.06.25,0.66,0.66,0,0,1-.2.2,0.81,0.81,0,0,1-.25.06v-0.51h0.5Z" transform="translate(-452.96 -802.54)"/><polygon class="cls-6" points="126.27 272.5 126.27 273.01 126.27 273.52 102.52 273.52 102.52 273.01 102.52 272.5 126.27 272.5 126.27 272.5"/><path class="cls-6" d="M555.48,1076.06a0.81,0.81,0,0,1-.25-0.06,0.66,0.66,0,0,1-.2-0.2,0.83,0.83,0,0,1-.06-0.25h0.5v0.51h0Z" transform="translate(-452.96 -802.54)"/><polygon class="cls-6" points="103.03 273.01 102.52 273.01 102.02 273.01 102.02 156.44 102.52 156.44 103.03 156.44 103.03 273.01 103.03 273.01"/><polygon class="cls-5" points="140.12 97.65 163.87 97.65 163.87 156.44 140.12 156.44 140.12 97.65 140.12 97.65"/><path class="cls-6" d="M592.58,900.19a0.83,0.83,0,0,1,.06-0.25,0.66,0.66,0,0,1,.2-0.2,0.81,0.81,0,0,1,.25-0.06v0.51h-0.5Z" transform="translate(-452.96 -802.54)"/><polygon class="cls-6" points="140.12 98.16 140.12 97.65 140.12 97.14 163.87 97.14 163.87 97.65 163.87 98.16 140.12 98.16 140.12 98.16"/><path class="cls-6" d="M616.83,899.68a0.81,0.81,0,0,1,.25.06,0.66,0.66,0,0,1,.2.2,0.83,0.83,0,0,1,.06.25h-0.5v-0.51h0Z" transform="translate(-452.96 -802.54)"/><polygon class="cls-6" points="163.36 97.65 163.87 97.65 164.37 97.65 164.37 156.44 163.87 156.44 163.36 156.44 163.36 97.65 163.36 97.65"/><path class="cls-6" d="M617.33,959a0.83,0.83,0,0,1-.06.25,0.66,0.66,0,0,1-.2.2,0.81,0.81,0,0,1-.25.06V959h0.5Z" transform="translate(-452.96 -802.54)"/><polygon class="cls-6" points="163.87 155.94 163.87 156.44 163.87 156.95 140.12 156.95 140.12 156.44 140.12 155.94 163.87 155.94 163.87 155.94"/><path class="cls-6" d="M593.08,959.49a0.81,0.81,0,0,1-.25-0.06,0.66,0.66,0,0,1-.2-0.2,0.83,0.83,0,0,1-.06-0.25h0.5v0.51h0Z" transform="translate(-452.96 -802.54)"/><polygon class="cls-6" points="140.62 156.44 140.12 156.44 139.62 156.44 139.62 97.65 140.12 97.65 140.62 97.65 140.62 156.44 140.62 156.44"/><polygon class="cls-5" points="177.72 39.85 201.47 39.85 201.47 97.65 177.72 97.65 177.72 39.85 177.72 39.85"/><path class="cls-6" d="M630.18,842.39a0.83,0.83,0,0,1,.06-0.25,0.66,0.66,0,0,1,.2-0.2,0.81,0.81,0,0,1,.25-0.06v0.51h-0.5Z" transform="translate(-452.96 -802.54)"/><polygon class="cls-6" points="177.72 40.36 177.72 39.85 177.72 39.34 201.47 39.34 201.47 39.85 201.47 40.36 177.72 40.36 177.72 40.36"/><path class="cls-6" d="M654.43,841.88a0.81,0.81,0,0,1,.25.06,0.66,0.66,0,0,1,.2.2,0.83,0.83,0,0,1,.06.25h-0.5v-0.51h0Z" transform="translate(-452.96 -802.54)"/><polygon class="cls-6" points="200.96 39.85 201.47 39.85 201.97 39.85 201.97 97.65 201.47 97.65 200.96 97.65 200.96 39.85 200.96 39.85"/><path class="cls-6" d="M654.93,900.19a0.83,0.83,0,0,1-.06.25,0.66,0.66,0,0,1-.2.2,0.81,0.81,0,0,1-.25.06v-0.51h0.5Z" transform="translate(-452.96 -802.54)"/><polygon class="cls-6" points="201.47 97.14 201.47 97.65 201.47 98.16 177.72 98.16 177.72 97.65 177.72 97.14 201.47 97.14 201.47 97.14"/><path class="cls-6" d="M630.68,900.7a0.81,0.81,0,0,1-.25-0.06,0.66,0.66,0,0,1-.2-0.2,0.83,0.83,0,0,1-.06-0.25h0.5v0.51h0Z" transform="translate(-452.96 -802.54)"/><polygon class="cls-6" points="178.22 97.65 177.72 97.65 177.21 97.65 177.21 39.85 177.72 39.85 178.22 39.85 178.22 97.65 178.22 97.65"/><polygon class="cls-5" points="215.32 39.85 239.07 39.85 239.07 273.01 215.32 273.01 215.32 39.85 215.32 39.85"/><path class="cls-6" d="M667.78,842.39a0.83,0.83,0,0,1,.06-0.25,0.66,0.66,0,0,1,.2-0.2,0.81,0.81,0,0,1,.25-0.06v0.51h-0.5Z" transform="translate(-452.96 -802.54)"/><polygon class="cls-6" points="215.32 40.36 215.32 39.85 215.32 39.34 239.07 39.34 239.07 39.85 239.07 40.36 215.32 40.36 215.32 40.36"/><path class="cls-6" d="M692,841.88a0.81,0.81,0,0,1,.25.06,0.66,0.66,0,0,1,.2.2,0.83,0.83,0,0,1,.06.25H692v-0.51h0Z" transform="translate(-452.96 -802.54)"/><polygon class="cls-6" points="238.56 39.85 239.07 39.85 239.57 39.85 239.57 273.01 239.07 273.01 238.56 273.01 238.56 39.85 238.56 39.85"/><path class="cls-6" d="M692.53,1075.55a0.83,0.83,0,0,1-.06.25,0.66,0.66,0,0,1-.2.2,0.81,0.81,0,0,1-.25.06v-0.51h0.5Z" transform="translate(-452.96 -802.54)"/><polygon class="cls-6" points="239.07 272.5 239.07 273.01 239.07 273.52 215.32 273.52 215.32 273.01 215.32 272.5 239.07 272.5 239.07 272.5"/><path class="cls-6" d="M668.28,1076.06A0.81,0.81,0,0,1,668,1076a0.66,0.66,0,0,1-.2-0.2,0.83,0.83,0,0,1-.06-0.25h0.5v0.51h0Z" transform="translate(-452.96 -802.54)"/><polygon class="cls-6" points="215.82 273.01 215.32 273.01 214.81 273.01 214.81 39.85 215.32 39.85 215.82 39.85 215.82 273.01 215.82 273.01"/><polygon class="cls-7" points="252.92 39.85 276.67 39.85 276.67 156.44 252.92 156.44 252.92 39.85 252.92 39.85"/><path class="cls-6" d="M705.38,842.39a0.83,0.83,0,0,1,.06-0.25,0.66,0.66,0,0,1,.2-0.2,0.81,0.81,0,0,1,.25-0.06v0.51h-0.5Z" transform="translate(-452.96 -802.54)"/><polygon class="cls-6" points="252.92 40.36 252.92 39.85 252.92 39.34 276.67 39.34 276.67 39.85 276.67 40.36 252.92 40.36 252.92 40.36"/><path class="cls-6" d="M729.63,841.88a0.81,0.81,0,0,1,.25.06,0.66,0.66,0,0,1,.2.2,0.83,0.83,0,0,1,.06.25h-0.5v-0.51h0Z" transform="translate(-452.96 -802.54)"/><polygon class="cls-6" points="276.16 39.85 276.67 39.85 277.17 39.85 277.17 156.44 276.67 156.44 276.16 156.44 276.16 39.85 276.16 39.85"/><path class="cls-6" d="M730.13,959a0.83,0.83,0,0,1-.06.25,0.66,0.66,0,0,1-.2.2,0.81,0.81,0,0,1-.25.06V959h0.5Z" transform="translate(-452.96 -802.54)"/><polygon class="cls-6" points="276.67 155.94 276.67 156.44 276.67 156.95 252.92 156.95 252.92 156.44 252.92 155.94 276.67 155.94 276.67 155.94"/><path class="cls-6" d="M705.88,959.49a0.81,0.81,0,0,1-.25-0.06,0.66,0.66,0,0,1-.2-0.2,0.83,0.83,0,0,1-.06-0.25h0.5v0.51h0Z" transform="translate(-452.96 -802.54)"/><polygon class="cls-6" points="253.42 156.44 252.92 156.44 252.41 156.44 252.41 39.85 252.92 39.85 253.42 39.85 253.42 156.44 253.42 156.44"/><polygon class="cls-8" points="290.52 156.44 314.27 156.44 314.27 273.01 290.52 273.01 290.52 156.44 290.52 156.44"/><path class="cls-6" d="M743,959a0.83,0.83,0,0,1,.06-0.25,0.66,0.66,0,0,1,.2-0.2,0.81,0.81,0,0,1,.25-0.06V959H743Z" transform="translate(-452.96 -802.54)"/><polygon class="cls-6" points="290.52 156.95 290.52 156.44 290.52 155.94 314.27 155.94 314.27 156.44 314.27 156.95 290.52 156.95 290.52 156.95"/><path class="cls-6" d="M767.23,958.47a0.81,0.81,0,0,1,.25.06,0.66,0.66,0,0,1,.2.2,0.83,0.83,0,0,1,.06.25h-0.5v-0.51h0Z" transform="translate(-452.96 -802.54)"/><polygon class="cls-6" points="313.76 156.44 314.27 156.44 314.77 156.44 314.77 273.01 314.27 273.01 313.76 273.01 313.76 156.44 313.76 156.44"/><path class="cls-6" d="M767.73,1075.55a0.83,0.83,0,0,1-.06.25,0.66,0.66,0,0,1-.2.2,0.81,0.81,0,0,1-.25.06v-0.51h0.5Z" transform="translate(-452.96 -802.54)"/><polygon class="cls-6" points="314.27 272.5 314.27 273.01 314.27 273.52 290.52 273.52 290.52 273.01 290.52 272.5 314.27 272.5 314.27 272.5"/><path class="cls-6" d="M743.48,1076.06a0.81,0.81,0,0,1-.25-0.06,0.66,0.66,0,0,1-.2-0.2,0.83,0.83,0,0,1-.06-0.25h0.5v0.51h0Z" transform="translate(-452.96 -802.54)"/><polygon class="cls-6" points="291.02 273.01 290.52 273.01 290.01 273.01 290.01 156.44 290.52 156.44 291.02 156.44 291.02 273.01 291.02 273.01"/></g><g class="cls-9"><polygon class="cls-6" points="95.09 39.85 95.59 39.85 96.1 39.85 96.1 273.01 95.59 273.01 95.09 273.01 95.09 39.85 95.09 39.85"/><polygon class="cls-6" points="91.64 273.52 91.64 273.01 91.64 272.5 95.59 272.5 95.59 273.01 95.59 273.52 91.64 273.52 91.64 273.52"/><polygon class="cls-6" points="91.64 215.71 91.64 215.21 91.64 214.7 95.59 214.7 95.59 215.21 95.59 215.71 91.64 215.71 91.64 215.71"/><polygon class="cls-6" points="91.64 156.95 91.64 156.44 91.64 155.94 95.59 155.94 95.59 156.44 95.59 156.95 91.64 156.95 91.64 156.95"/><polygon class="cls-6" points="91.64 99.15 91.64 98.64 91.64 98.13 95.59 98.13 95.59 98.64 95.59 99.15 91.64 99.15 91.64 99.15"/><polygon class="cls-6" points="91.64 40.36 91.64 39.85 91.64 39.34 95.59 39.34 95.59 39.85 95.59 40.36 91.64 40.36 91.64 40.36"/><polygon class="cls-6" points="95.59 273.52 95.59 273.01 95.59 272.5 321.19 272.5 321.19 273.01 321.19 273.52 95.59 273.52 95.59 273.52"/><polygon class="cls-6" points="96.1 276.99 95.59 276.99 95.09 276.99 95.09 273.01 95.59 273.01 96.1 273.01 96.1 276.99 96.1 276.99"/><polygon class="cls-6" points="133.7 276.99 133.19 276.99 132.69 276.99 132.69 273.01 133.19 273.01 133.7 273.01 133.7 276.99 133.7 276.99"/><polygon class="cls-6" points="171.3 276.99 170.79 276.99 170.29 276.99 170.29 273.01 170.79 273.01 171.3 273.01 171.3 276.99 171.3 276.99"/><polygon class="cls-6" points="208.9 276.99 208.39 276.99 207.89 276.99 207.89 273.01 208.39 273.01 208.9 273.01 208.9 276.99 208.9 276.99"/><polygon class="cls-6" points="246.5 276.99 245.99 276.99 245.49 276.99 245.49 273.01 245.99 273.01 246.5 273.01 246.5 276.99 246.5 276.99"/><polygon class="cls-6" points="284.1 276.99 283.59 276.99 283.09 276.99 283.09 273.01 283.59 273.01 284.1 273.01 284.1 276.99 284.1 276.99"/><polygon class="cls-6" points="321.7 276.99 321.19 276.99 320.69 276.99 320.69 273.01 321.19 273.01 321.7 273.01 321.7 276.99 321.7 276.99"/></g><g class="cls-10"><circle class="cls-11" cx="62.96" cy="11.95"/><text class="cls-12" transform="translate(111.44 219.58) scale(1.06 1)">2</text></g><g class="cls-13"><circle class="cls-11" cx="62.96" cy="11.95"/><text class="cls-12" transform="translate(149.04 131.91) scale(1.06 1)">1</text></g><g class="cls-14"><circle class="cls-11" cx="62.96" cy="11.95"/><text class="cls-12" transform="translate(186.64 74.1) scale(1.06 1)">1</text></g><g class="cls-15"><circle class="cls-11" cx="62.96" cy="11.95"/><text class="cls-12" transform="translate(224.24 161.81) scale(1.06 1)">4</text></g><g class="cls-16"><circle class="cls-11" cx="62.96" cy="11.95"/><text class="cls-17" transform="translate(261.8 103.02) scale(1.06 1)">2</text></g><g class="cls-18"><circle class="cls-11" cx="62.96" cy="11.95"/><text class="cls-12" transform="translate(299.41 219.58) scale(1.06 1)">2</text></g><g class="cls-9"><circle class="cls-11" cx="62.96" cy="11.95"/><text class="cls-12" transform="translate(78.8 278.37) scale(1.06 1)">0</text><circle class="cls-11" cx="62.96" cy="11.95"/><text class="cls-12" transform="translate(78.8 220.57) scale(1.06 1)">1</text><circle class="cls-11" cx="62.96" cy="11.95"/><text class="cls-12" transform="translate(78.8 161.81) scale(1.06 1)">2</text><circle class="cls-11" cx="62.96" cy="11.95"/><text class="cls-12" transform="translate(78.8 104) scale(1.06 1)">3</text><circle class="cls-11" cx="62.96" cy="11.95"/><text class="cls-12" transform="translate(78.8 45.21) scale(1.06 1)">4</text></g><polygon class="cls-6" points="201.07 39.48 201.07 39.29 201.07 39.1 206.35 39.1 206.35 39.29 206.35 39.48 201.07 39.48 201.07 39.48"/><polygon class="cls-6" points="210.31 39.48 210.31 39.29 210.31 39.1 215.06 39.1 215.06 39.29 215.06 39.48 210.31 39.48 210.31 39.48"/><polygon class="cls-6" points="163.19 98.3 163.19 98.11 163.19 97.92 168.47 97.92 168.47 98.11 168.47 98.3 163.19 98.3 163.19 98.3"/><polygon class="cls-6" points="172.42 98.3 172.42 98.11 172.42 97.92 177.14 97.92 177.14 98.11 177.14 98.3 172.42 98.3 172.42 98.3"/><polygon class="cls-6" points="238.99 39.48 238.99 39.29 238.99 39.1 244.27 39.1 244.27 39.29 244.27 39.48 238.99 39.48 238.99 39.48"/><polygon class="cls-6" points="248.23 39.48 248.23 39.29 248.23 39.1 252.94 39.1 252.94 39.29 252.94 39.48 248.23 39.48 248.23 39.48"/><polygon class="cls-6" points="276.88 156.1 276.88 155.91 276.88 155.72 282.16 155.72 282.16 155.91 282.16 156.1 276.88 156.1 276.88 156.1"/><polygon class="cls-6" points="286.11 156.1 286.11 155.91 286.11 155.72 290.86 155.72 290.86 155.91 290.86 156.1 286.11 156.1 286.11 156.1"/><polygon class="cls-6" points="125.3 156.1 125.3 155.91 125.3 155.72 130.58 155.72 130.58 155.91 130.58 156.1 125.3 156.1 125.3 156.1"/><polygon class="cls-6" points="134.54 156.1 134.54 155.91 134.54 155.72 139.25 155.72 139.25 155.91 139.25 156.1 134.54 156.1 134.54 156.1"/><rect class="cls-19" width="395" height="395"/></svg>