<svg id="Layer_1" data-name="Layer 1" xmlns="http://www.w3.org/2000/svg" viewBox="0 0 311.3 316.7">
    <defs>
        <style>.cls-1{font-size:14px;font-family:open sans;}.cls-2{fill:gray;}.cls-2,.cls-3,.cls-5,.cls-6,.cls-7,.cls-8{fill-rule:evenodd;}.cls-3{fill:#dc6e00;}.cls-4{fill:none;stroke:gray;stroke-linecap:square;stroke-miterlimit:10;stroke-width:0;}.cls-5{fill:#06c245;}.cls-6{fill:#c41300;}.cls-7{fill:#feec00;}.cls-8{fill:#b2b2b2;}.cls-11,.cls-9{fill:#fff;}.cls-10,.cls-11{font-size:11.75px;font-family:Arial;}</style>
    </defs>
    <title>Loan-Maintenance-rl</title>
    <text class="cls-1" transform="translate(40.96 289.89) rotate(-90)">O<tspan x="9.84" y="0">v</tspan>
        <tspan x="16.44" y="0">e</tspan>
        <tspan x="23.45" y="0">r</tspan>
        <tspan x="27.89" y="0">due</tspan>
        <tspan x="20.05" y="12.4">T</tspan>
        <tspan x="26.11" y="12.4">asks</tspan>
        <tspan x="-26.8" y="37.2">T</tspan>
        <tspan x="-20.73" y="37.2">asks c</tspan>
        <tspan x="12.91" y="37.2">r</tspan>
        <tspan x="17.35" y="37.2">e</tspan>
        <tspan x="24.36" y="37.2">a</tspan>
        <tspan x="31.05" y="37.2">t</tspan>
        <tspan x="35.6" y="37.2">ed</tspan>
        <tspan x="8.33" y="49.6">b</tspan>
        <tspan x="16.2" y="49.6">y R</tspan>
        <tspan x="33.29" y="49.6">R</tspan>
        <tspan x="40.87" y="49.6">O</tspan>
        <tspan x="-5.54" y="74.4">T</tspan>
        <tspan x="0.52" y="74.4">asks due</tspan>
        <tspan x="-4.44" y="86.8">this </tspan>
        <tspan x="19.75" y="86.8">w</tspan>
        <tspan x="29.92" y="86.8">eek</tspan>
        <tspan x="22.18" y="111.6">T</tspan>
        <tspan x="28.14" y="111.6">otal</tspan>
        <tspan x="-9.69" y="136.4">Su</tspan>
        <tspan x="4.93" y="136.4">cc</tspan>
        <tspan x="17.3" y="136.4">essful</tspan>
        <tspan x="-4.72" y="148.8">R</tspan>
        <tspan x="2.87" y="148.8">ene</tspan>
        <tspan x="24.67" y="148.8">w</tspan>
        <tspan x="34.92" y="148.8">als</tspan>
        <tspan x="16.09" y="173.6">F</tspan>
        <tspan x="22.27" y="173.6">ailed</tspan>
        <tspan x="-4.72" y="186">R</tspan>
        <tspan x="2.87" y="186">ene</tspan>
        <tspan x="24.67" y="186">w</tspan>
        <tspan x="34.92" y="186">als</tspan>
        <tspan x="-0.84" y="210.8">P</tspan>
        <tspan x="6.24" y="210.8">a</tspan>
        <tspan x="12.88" y="210.8">yme</tspan>
        <tspan x="38.16" y="210.8">n</tspan>
        <tspan x="45.88" y="210.8">t</tspan>
        <tspan x="-11.84" y="223.2">R</tspan>
        <tspan x="-4.26" y="223.2">eminders</tspan>
        <tspan x="20.05" y="248">T</tspan>
        <tspan x="26.11" y="248">asks</tspan>
        <tspan x="1.86" y="260.4">P</tspan>
        <tspan x="8.96" y="260.4">ending</tspan>
    </text>
    <polygon class="cls-2" points="233.56 112.55 233.56 112.38 233.56 112.2 238.37 112.2 238.37 112.38 238.37 112.55 233.56 112.55 233.56 112.55"/>
    <polygon class="cls-2" points="241.98 112.55 241.98 112.38 241.98 112.2 246.27 112.2 246.27 112.38 246.27 112.55 241.98 112.55 241.98 112.55"/>
    <polygon class="cls-2" points="198.11 70.09 198.11 69.92 198.11 69.75 202.92 69.75 202.92 69.92 202.92 70.09 198.11 70.09 198.11 70.09"/>
    <polygon class="cls-2" points="206.52 70.09 206.52 69.92 206.52 69.75 210.82 69.75 210.82 69.92 210.82 70.09 206.52 70.09 206.52 70.09"/>
    <polygon class="cls-2" points="269.01 155.03 269.01 154.86 269.01 154.69 273.82 154.69 273.82 154.86 273.82 155.03 269.01 155.03 269.01 155.03"/>
    <polygon class="cls-2" points="277.43 155.03 277.43 154.86 277.43 154.69 281.72 154.69 281.72 154.86 281.72 155.03 277.43 155.03 277.43 155.03"/>
    <polygon class="cls-2" points="163.55 27.6 163.55 27.43 163.55 27.26 168.36 27.26 168.36 27.43 168.36 27.6 163.55 27.6 163.55 27.6"/>
    <polygon class="cls-2" points="171.96 27.6 171.96 27.43 171.96 27.26 176.29 27.26 176.29 27.43 176.29 27.6 171.96 27.6 171.96 27.6"/>
    <polygon class="cls-2" points="128.13 27.6 128.13 27.43 128.13 27.26 132.94 27.26 132.94 27.43 132.94 27.6 128.13 27.6 128.13 27.6"/>
    <polygon class="cls-2" points="136.55 27.6 136.55 27.43 136.55 27.26 140.84 27.26 140.84 27.43 140.84 27.6 136.55 27.6 136.55 27.6"/>
    <polygon class="cls-2" points="92.68 70.09 92.68 69.92 92.68 69.75 97.49 69.75 97.49 69.92 97.49 70.09 92.68 70.09 92.68 70.09"/>
    <polygon class="cls-2" points="101.09 70.09 101.09 69.92 101.09 69.75 105.39 69.75 105.39 69.92 105.39 70.09 101.09 70.09 101.09 70.09"/>
    <polygon class="cls-2" points="57.22 133.35 57.22 133.18 57.22 133 62.03 133 62.03 133.18 62.03 133.35 57.22 133.35 57.22 133.35"/>
    <polygon class="cls-2" points="65.64 133.35 65.64 133.18 65.64 133 69.94 133 69.94 133.18 69.94 133.35 65.64 133.35 65.64 133.35"/>
    <polygon class="cls-3" points="34.52 133.14 57.22 133.14 57.22 218.09 34.52 218.09 34.52 133.14 34.52 133.14"/>
    <polyline class="cls-4" points="34.52 133.14 57.22 133.14 57.22 218.09 34.52 218.09 34.52 133.14"/>
    <polygon class="cls-3" points="69.97 69.92 92.68 69.92 92.68 133.14 69.97 133.14 69.97 69.92 69.97 69.92"/>
    <polyline class="cls-4" points="69.97 69.92 92.68 69.92 92.68 133.14 69.97 133.14 69.97 69.92"/>
    <polygon class="cls-3" points="105.42 27.46 128.16 27.46 128.16 69.92 105.42 69.92 105.42 27.46 105.42 27.46"/>
    <polyline class="cls-4" points="105.42 27.46 128.16 27.46 128.16 69.92 105.42 69.92 105.42 27.46"/>
    <polygon class="cls-3" points="140.87 27.46 163.58 27.46 163.58 218.09 140.87 218.09 140.87 27.46 140.87 27.46"/>
    <polyline class="cls-4" points="140.87 27.46 163.58 27.46 163.58 218.09 140.87 218.09 140.87 27.46"/>
    <polygon class="cls-5" points="176.33 27.46 198.14 27.46 198.14 69.92 176.33 69.92 176.33 27.46 176.33 27.46"/>
    <polyline class="cls-4" points="176.33 27.46 198.14 27.46 198.14 69.92 176.33 69.92 176.33 27.46"/>
    <polygon class="cls-6" points="210.85 69.92 233.56 69.92 233.56 112.38 210.85 112.38 210.85 69.92 210.85 69.92"/>
    <polyline class="cls-4" points="210.85 69.92 233.56 69.92 233.56 112.38 210.85 112.38 210.85 69.92"/>
    <polygon class="cls-7" points="246.31 112.38 269.01 112.38 269.01 154.83 246.31 154.83 246.31 112.38 246.31 112.38"/>
    <polyline class="cls-4" points="246.31 112.38 269.01 112.38 269.01 154.83 246.31 154.83 246.31 112.38"/>
    <polygon class="cls-8" points="281.76 154.83 304.46 154.83 304.46 218.09 281.76 218.09 281.76 154.83 281.76 154.83"/>
    <polyline class="cls-4" points="281.76 154.83 304.46 154.83 304.46 218.09 281.76 218.09 281.76 154.83"/>
    <polygon class="cls-2" points="27.71 6.66 28.16 6.66 28.64 6.66 28.64 218.09 28.16 218.09 27.71 218.09 27.71 6.66 27.71 6.66"/>
    <polygon class="cls-2" points="24.52 218.56 24.52 218.09 24.52 217.64 28.16 217.64 28.16 218.09 28.16 218.56 24.52 218.56 24.52 218.56"/>
    <polygon class="cls-2" points="24.52 176.11 24.52 175.63 24.52 175.19 28.16 175.19 28.16 175.63 28.16 176.11 24.52 176.11 24.52 176.11"/>
    <polygon class="cls-2" points="24.52 133.62 24.52 133.14 24.52 132.7 28.16 132.7 28.16 133.14 28.16 133.62 24.52 133.62 24.52 133.62"/>
    <polygon class="cls-2" points="24.52 92.09 24.52 91.61 24.52 91.16 28.16 91.16 28.16 91.61 28.16 92.09 24.52 92.09 24.52 92.09"/>
    <polygon class="cls-2" points="24.52 49.6 24.52 49.12 24.52 48.67 28.16 48.67 28.16 49.12 28.16 49.6 24.52 49.6 24.52 49.6"/>
    <polygon class="cls-2" points="24.52 7.14 24.52 6.66 24.52 6.22 28.16 6.22 28.16 6.66 28.16 7.14 24.52 7.14 24.52 7.14"/>
    <polygon class="cls-2" points="28.16 218.56 28.16 218.09 28.16 217.64 310.82 217.64 310.82 218.09 310.82 218.56 28.16 218.56 28.16 218.56"/>
    <polygon class="cls-2" points="28.64 221.71 28.16 221.71 27.71 221.71 27.71 218.09 28.16 218.09 28.64 218.09 28.64 221.71 28.64 221.71"/>
    <polygon class="cls-2" points="64.09 221.71 63.61 221.71 63.17 221.71 63.17 218.09 63.61 218.09 64.09 218.09 64.09 221.71 64.09 221.71"/>
    <polygon class="cls-2" points="99.51 221.71 99.03 221.71 98.58 221.71 98.58 218.09 99.03 218.09 99.51 218.09 99.51 221.71 99.51 221.71"/>
    <polygon class="cls-2" points="135 221.71 134.52 221.71 134.07 221.71 134.07 218.09 134.52 218.09 135 218.09 135 221.71 135 221.71"/>
    <polygon class="cls-2" points="170.42 221.71 169.94 221.71 169.49 221.71 169.49 218.09 169.94 218.09 170.42 218.09 170.42 221.71 170.42 221.71"/>
    <polygon class="cls-2" points="204.98 221.71 204.5 221.71 204.05 221.71 204.05 218.09 204.5 218.09 204.98 218.09 204.98 221.71 204.98 221.71"/>
    <polygon class="cls-2" points="240.43 221.71 239.95 221.71 239.5 221.71 239.5 218.09 239.95 218.09 240.43 218.09 240.43 221.71 240.43 221.71"/>
    <polygon class="cls-2" points="275.85 221.71 275.37 221.71 274.92 221.71 274.92 218.09 275.37 218.09 275.85 218.09 275.85 221.71 275.85 221.71"/>
    <polygon class="cls-2" points="311.3 221.71 310.82 221.71 310.37 221.71 310.37 218.09 310.82 218.09 311.3 218.09 311.3 221.71 311.3 221.71"/>
    <circle class="cls-9" cx="-13.65" cy="-18.65"/>
    <text class="cls-10" transform="translate(39.09 179.05) scale(1.05 1)">4<tspan x="6.04" y="0">0</tspan></text>
    <circle class="cls-9" cx="-13.65" cy="-18.65"/>
    <text class="cls-10" transform="translate(74.54 104.97) scale(1.05 1)">3<tspan x="6.04" y="0">0</tspan></text>
    <circle class="cls-9" cx="-13.65" cy="-18.65"/>
    <text class="cls-10" transform="translate(145.41 125.73) scale(1.05 1)">9<tspan x="6.04" y="0">0</tspan></text>
    <circle class="cls-9" cx="-13.65" cy="-18.65"/>
    <text class="cls-10" transform="translate(286.29 189.91) scale(1.05 1)">3<tspan x="6.04" y="0">0</tspan></text>
    <circle class="cls-9" cx="-13.65" cy="-18.65"/>
    <text class="cls-10" transform="translate(250.84 136.6) scale(1.05 1)">2<tspan x="6.04" y="0">0</tspan></text>
    <circle class="cls-9" cx="-13.65" cy="-18.65"/>
    <text class="cls-11" transform="translate(215.38 94.11) scale(1.05 1)">2<tspan x="6.04" y="0">0</tspan></text>
    <circle class="cls-9" cx="-13.65" cy="-18.65"/>
    <text class="cls-11" transform="translate(180.87 51.65) scale(1.05 1)">2<tspan x="6.04" y="0">0</tspan></text>
    <circle class="cls-9" cx="-13.65" cy="-18.65"/>
    <text class="cls-10" transform="translate(109.96 51.65) scale(1.05 1)">2<tspan x="6.04" y="0">0</tspan></text>
    <circle class="cls-9" cx="-13.65" cy="-18.65"/>
    <text class="cls-10" transform="translate(12.71 221.54) scale(1.05 1)">0</text>
    <circle class="cls-9" cx="-13.65" cy="-18.65"/>
    <text class="cls-10" transform="translate(6.36 179.05) scale(1.05 1)">2<tspan x="6.04" y="0">0</tspan></text>
    <circle class="cls-9" cx="-13.65" cy="-18.65"/>
    <text class="cls-10" transform="translate(6.36 136.6) scale(1.05 1)">4<tspan x="6.04" y="0">0</tspan></text>
    <circle class="cls-9" cx="-13.65" cy="-18.65"/>
    <text class="cls-10" transform="translate(6.36 95.03) scale(1.05 1)">6<tspan x="6.04" y="0">0</tspan></text>
    <circle class="cls-9" cx="-13.65" cy="-18.65"/>
    <text class="cls-10" transform="translate(6.36 52.54) scale(1.05 1)">8<tspan x="6.04" y="0">0</tspan></text>
    <circle class="cls-9" cx="-13.65" cy="-18.65"/>
    <text class="cls-10" transform="translate(0 10.08) scale(1.05 1)">10<tspan x="12.08" y="0">0</tspan></text>
</svg>