<svg id="Layer_1" data-name="Layer 1" xmlns="http://www.w3.org/2000/svg" xmlns:xlink="http://www.w3.org/1999/xlink" viewBox="0 0 376.82 378.91">
    <defs>
        <style>.cls-1,.cls-8{fill:none;}.cls-1{clip-rule:evenodd;}.cls-2{fill:#dc6e00;}.cls-2,.cls-3,.cls-4,.cls-5,.cls-6,.cls-7,.cls-8{fill-rule:evenodd;}.cls-3{fill:gray;}.cls-4{fill:#06c245;}.cls-5{fill:#feec00;}.cls-6{fill:#c41300;}.cls-7{fill:#b2b2b2;}.cls-9{clip-path:url(#clip-path);}.cls-10{clip-path:url(#clip-path-2);}.cls-11,.cls-19{fill:#fff;}.cls-12,.cls-19{font-size:12.96px;font-family:Calibri;}.cls-13{clip-path:url(#clip-path-3);}.cls-14{clip-path:url(#clip-path-4);}.cls-15{clip-path:url(#clip-path-5);}.cls-16{clip-path:url(#clip-path-6);}.cls-17{clip-path:url(#clip-path-7);}.cls-18{clip-path:url(#clip-path-8);}.cls-20{clip-path:url(#clip-path-9);}.cls-21{font-size:14px;font-family:open sans;}</style>
        <clipPath id="clip-path" transform="translate(-74.73 -2439)">
            <polygon class="cls-1" points="74.73 2439 451.55 2439 451.55 2727.93 74.73 2727.93 74.73 2439 74.73 2439"/>
        </clipPath>
        <clipPath id="clip-path-2" transform="translate(-74.73 -2439)">
            <polygon class="cls-1" points="124.7 2641.26 137.67 2641.26 137.67 2666.14 124.7 2666.14 124.7 2641.26 124.7 2641.26"/>
        </clipPath>
        <clipPath id="clip-path-3" transform="translate(-74.73 -2439)">
            <polygon class="cls-1" points="165.69 2559.57 178.66 2559.57 178.66 2584.45 165.69 2584.45 165.69 2559.57 165.69 2559.57"/>
        </clipPath>
        <clipPath id="clip-path-4" transform="translate(-74.73 -2439)">
            <polygon class="cls-1" points="206.68 2500.78 219.66 2500.78 219.66 2525.66 206.68 2525.66 206.68 2500.78 206.68 2500.78"/>
        </clipPath>
        <clipPath id="clip-path-5" transform="translate(-74.73 -2439)">
            <polygon class="cls-1" points="247.64 2582.47 260.62 2582.47 260.62 2607.35 247.64 2607.35 247.64 2582.47 247.64 2582.47"/>
        </clipPath>
        <clipPath id="clip-path-6" transform="translate(-74.73 -2439)">
            <polygon class="cls-1" points="330.62 2547.6 343.59 2547.6 343.59 2572.48 330.62 2572.48 330.62 2547.6 330.62 2547.6"/>
        </clipPath>
        <clipPath id="clip-path-7" transform="translate(-74.73 -2439)">
            <polygon class="cls-1" points="412.6 2653.24 425.57 2653.24 425.57 2678.11 412.6 2678.11 412.6 2653.24 412.6 2653.24"/>
        </clipPath>
        <clipPath id="clip-path-8" transform="translate(-74.73 -2439)">
            <polygon class="cls-1" points="371.61 2594.45 384.58 2594.45 384.58 2619.32 371.61 2619.32 371.61 2594.45 371.61 2594.45"/>
        </clipPath>
        <clipPath id="clip-path-9" transform="translate(-74.73 -2439)">
            <polygon class="cls-1" points="289.63 2500.78 302.6 2500.78 302.6 2525.66 289.63 2525.66 289.63 2500.78 289.63 2500.78"/>
        </clipPath>
    </defs>
    <title>Up-sell-Cross-sell-r</title>
    <polygon class="cls-2" points="42.97 167.39 68.98 167.39 68.98 261.06 42.97 261.06 42.97 167.39 42.97 167.39"/>
    <path class="cls-3" d="M117.19,2606.39a0.82,0.82,0,0,1,.06-0.25,0.66,0.66,0,0,1,.2-0.2,0.83,0.83,0,0,1,.25-0.06v0.51h-0.51Z" transform="translate(-74.73 -2439)"/>
    <polygon class="cls-3" points="42.97 167.9 42.97 167.39 42.97 166.88 68.98 166.88 68.98 167.39 68.98 167.9 42.97 167.9 42.97 167.9"/>
    <path class="cls-3" d="M143.71,2605.88a0.83,0.83,0,0,1,.25.06,0.66,0.66,0,0,1,.2.2,0.82,0.82,0,0,1,.06.25h-0.51v-0.51h0Z" transform="translate(-74.73 -2439)"/>
    <polygon class="cls-3" points="68.47 167.39 68.98 167.39 69.49 167.39 69.49 261.06 68.98 261.06 68.47 261.06 68.47 167.39 68.47 167.39"/>
    <path class="cls-3" d="M144.22,2700.06a0.82,0.82,0,0,1-.06.25,0.66,0.66,0,0,1-.2.2,0.83,0.83,0,0,1-.25.06v-0.51h0.51Z" transform="translate(-74.73 -2439)"/>
    <polygon class="cls-3" points="68.98 260.55 68.98 261.06 68.98 261.56 42.97 261.56 42.97 261.06 42.97 260.55 68.98 260.55 68.98 260.55"/>
    <path class="cls-3" d="M117.7,2700.56a0.83,0.83,0,0,1-.25-0.06,0.66,0.66,0,0,1-.2-0.2,0.82,0.82,0,0,1-.06-0.25h0.51v0.51h0Z" transform="translate(-74.73 -2439)"/>
    <polygon class="cls-3" points="43.48 261.06 42.97 261.06 42.46 261.06 42.46 167.39 42.97 167.39 43.48 167.39 43.48 261.06 43.48 261.06"/>
    <polygon class="cls-2" points="83.97 97.64 109.94 97.64 109.94 167.39 83.97 167.39 83.97 97.64 83.97 97.64"/>
    <path class="cls-3" d="M158.18,2536.65a0.82,0.82,0,0,1,.06-0.25,0.66,0.66,0,0,1,.2-0.2,0.83,0.83,0,0,1,.25-0.06v0.51h-0.51Z" transform="translate(-74.73 -2439)"/>
    <polygon class="cls-3" points="83.97 98.15 83.97 97.64 83.97 97.14 109.94 97.14 109.94 97.64 109.94 98.15 83.97 98.15 83.97 98.15"/>
    <path class="cls-3" d="M184.67,2536.14a0.83,0.83,0,0,1,.25.06,0.66,0.66,0,0,1,.2.2,0.82,0.82,0,0,1,.06.25h-0.51v-0.51h0Z" transform="translate(-74.73 -2439)"/>
    <polygon class="cls-3" points="109.43 97.64 109.94 97.64 110.45 97.64 110.45 167.39 109.94 167.39 109.43 167.39 109.43 97.64 109.43 97.64"/>
    <path class="cls-3" d="M185.18,2606.39a0.82,0.82,0,0,1-.06.25,0.66,0.66,0,0,1-.2.2,0.83,0.83,0,0,1-.25.06v-0.51h0.51Z" transform="translate(-74.73 -2439)"/>
    <polygon class="cls-3" points="109.94 166.88 109.94 167.39 109.94 167.9 83.97 167.9 83.97 167.39 83.97 166.88 109.94 166.88 109.94 166.88"/>
    <path class="cls-3" d="M158.69,2606.9a0.83,0.83,0,0,1-.25-0.06,0.66,0.66,0,0,1-.2-0.2,0.82,0.82,0,0,1-.06-0.25h0.51v0.51h0Z" transform="translate(-74.73 -2439)"/>
    <polygon class="cls-3" points="84.47 167.39 83.97 167.39 83.45 167.39 83.45 97.64 83.97 97.64 84.47 97.64 84.47 167.39 84.47 167.39"/>
    <polygon class="cls-2" points="124.96 50.83 150.93 50.83 150.93 97.64 124.96 97.64 124.96 50.83 124.96 50.83"/>
    <path class="cls-3" d="M199.17,2489.83a0.82,0.82,0,0,1,.06-0.25,0.66,0.66,0,0,1,.2-0.2,0.83,0.83,0,0,1,.25-0.06v0.51h-0.51Z" transform="translate(-74.73 -2439)"/>
    <polygon class="cls-3" points="124.96 51.34 124.96 50.83 124.96 50.32 150.93 50.32 150.93 50.83 150.93 51.34 124.96 51.34 124.96 51.34"/>
    <path class="cls-3" d="M225.66,2489.32a0.83,0.83,0,0,1,.25.06,0.66,0.66,0,0,1,.2.2,0.82,0.82,0,0,1,.06.25h-0.51v-0.51h0Z" transform="translate(-74.73 -2439)"/>
    <polygon class="cls-3" points="150.42 50.83 150.93 50.83 151.44 50.83 151.44 97.64 150.93 97.64 150.42 97.64 150.42 50.83 150.42 50.83"/>
    <path class="cls-3" d="M226.17,2536.65a0.82,0.82,0,0,1-.06.25,0.66,0.66,0,0,1-.2.2,0.83,0.83,0,0,1-.25.06v-0.51h0.51Z" transform="translate(-74.73 -2439)"/>
    <polygon class="cls-3" points="150.93 97.14 150.93 97.64 150.93 98.15 124.96 98.15 124.96 97.64 124.96 97.14 150.93 97.14 150.93 97.14"/>
    <path class="cls-3" d="M199.68,2537.15a0.83,0.83,0,0,1-.25-0.06,0.66,0.66,0,0,1-.2-0.2,0.82,0.82,0,0,1-.06-0.25h0.51v0.51h0Z" transform="translate(-74.73 -2439)"/>
    <polygon class="cls-3" points="125.47 97.64 124.96 97.64 124.45 97.64 124.45 50.83 124.96 50.83 125.47 50.83 125.47 97.64 125.47 97.64"/>
    <polygon class="cls-2" points="165.92 50.83 192.91 50.83 192.91 261.06 165.92 261.06 165.92 50.83 165.92 50.83"/>
    <path class="cls-3" d="M240.14,2489.83a0.82,0.82,0,0,1,.06-0.25,0.66,0.66,0,0,1,.2-0.2,0.83,0.83,0,0,1,.25-0.06v0.51h-0.51Z" transform="translate(-74.73 -2439)"/>
    <polygon class="cls-3" points="165.92 51.34 165.92 50.83 165.92 50.32 192.91 50.32 192.91 50.83 192.91 51.34 165.92 51.34 165.92 51.34"/>
    <path class="cls-3" d="M267.64,2489.32a0.83,0.83,0,0,1,.25.06,0.66,0.66,0,0,1,.2.2,0.82,0.82,0,0,1,.06.25h-0.51v-0.51h0Z" transform="translate(-74.73 -2439)"/>
    <polygon class="cls-3" points="192.41 50.83 192.91 50.83 193.43 50.83 193.43 261.06 192.91 261.06 192.41 261.06 192.41 50.83 192.41 50.83"/>
    <path class="cls-3" d="M268.15,2700.06a0.82,0.82,0,0,1-.06.25,0.66,0.66,0,0,1-.2.2,0.83,0.83,0,0,1-.25.06v-0.51h0.51Z" transform="translate(-74.73 -2439)"/>
    <polygon class="cls-3" points="192.91 260.55 192.91 261.06 192.91 261.56 165.92 261.56 165.92 261.06 165.92 260.55 192.91 260.55 192.91 260.55"/>
    <path class="cls-3" d="M240.65,2700.56a0.83,0.83,0,0,1-.25-0.06,0.66,0.66,0,0,1-.2-0.2,0.82,0.82,0,0,1-.06-0.25h0.51v0.51h0Z" transform="translate(-74.73 -2439)"/>
    <polygon class="cls-3" points="166.43 261.06 165.92 261.06 165.41 261.06 165.41 50.83 165.92 50.83 166.43 50.83 166.43 261.06 166.43 261.06"/>
    <polygon class="cls-4" points="207.9 50.83 233.91 50.83 233.91 97.64 207.9 97.64 207.9 50.83 207.9 50.83"/>
    <path class="cls-3" d="M282.12,2489.83a0.82,0.82,0,0,1,.06-0.25,0.66,0.66,0,0,1,.2-0.2,0.83,0.83,0,0,1,.25-0.06v0.51h-0.51Z" transform="translate(-74.73 -2439)"/>
    <polygon class="cls-3" points="207.9 51.34 207.9 50.83 207.9 50.32 233.91 50.32 233.91 50.83 233.91 51.34 207.9 51.34 207.9 51.34"/>
    <path class="cls-3" d="M308.63,2489.32a0.83,0.83,0,0,1,.25.06,0.66,0.66,0,0,1,.2.2,0.82,0.82,0,0,1,.06.25h-0.51v-0.51h0Z" transform="translate(-74.73 -2439)"/>
    <polygon class="cls-3" points="233.4 50.83 233.91 50.83 234.42 50.83 234.42 97.64 233.91 97.64 233.4 97.64 233.4 50.83 233.4 50.83"/>
    <path class="cls-3" d="M309.14,2536.65a0.82,0.82,0,0,1-.06.25,0.66,0.66,0,0,1-.2.2,0.83,0.83,0,0,1-.25.06v-0.51h0.51Z" transform="translate(-74.73 -2439)"/>
    <polygon class="cls-3" points="233.91 97.14 233.91 97.64 233.91 98.15 207.9 98.15 207.9 97.64 207.9 97.14 233.91 97.14 233.91 97.14"/>
    <path class="cls-3" d="M282.63,2537.15a0.83,0.83,0,0,1-.25-0.06,0.66,0.66,0,0,1-.2-0.2,0.82,0.82,0,0,1-.06-0.25h0.51v0.51h0Z" transform="translate(-74.73 -2439)"/>
    <polygon class="cls-3" points="208.41 97.64 207.9 97.64 207.39 97.64 207.39 50.83 207.9 50.83 208.41 50.83 208.41 97.64 208.41 97.64"/>
    <polygon class="cls-5" points="248.89 97.64 274.9 97.64 274.9 144.49 248.89 144.49 248.89 97.64 248.89 97.64"/>
    <path class="cls-3" d="M323.11,2536.65a0.82,0.82,0,0,1,.06-0.25,0.66,0.66,0,0,1,.2-0.2,0.83,0.83,0,0,1,.25-0.06v0.51h-0.51Z" transform="translate(-74.73 -2439)"/>
    <polygon class="cls-3" points="248.89 98.15 248.89 97.64 248.89 97.14 274.9 97.14 274.9 97.64 274.9 98.15 248.89 98.15 248.89 98.15"/>
    <path class="cls-3" d="M349.62,2536.14a0.83,0.83,0,0,1,.25.06,0.66,0.66,0,0,1,.2.2,0.82,0.82,0,0,1,.06.25h-0.51v-0.51h0Z" transform="translate(-74.73 -2439)"/>
    <polygon class="cls-3" points="274.39 97.64 274.9 97.64 275.41 97.64 275.41 144.49 274.9 144.49 274.39 144.49 274.39 97.64 274.39 97.64"/>
    <path class="cls-3" d="M350.13,2583.49a0.82,0.82,0,0,1-.06.25,0.66,0.66,0,0,1-.2.2,0.83,0.83,0,0,1-.25.06v-0.51h0.51Z" transform="translate(-74.73 -2439)"/>
    <polygon class="cls-3" points="274.9 143.98 274.9 144.49 274.9 145 248.89 145 248.89 144.49 248.89 143.98 274.9 143.98 274.9 143.98"/>
    <path class="cls-3" d="M323.62,2584a0.83,0.83,0,0,1-.25-0.06,0.66,0.66,0,0,1-.2-0.2,0.82,0.82,0,0,1-.06-0.25h0.51V2584h0Z" transform="translate(-74.73 -2439)"/>
    <polygon class="cls-3" points="249.4 144.49 248.89 144.49 248.38 144.49 248.38 97.64 248.89 97.64 249.4 97.64 249.4 144.49 249.4 144.49"/>
    <polygon class="cls-6" points="289.88 144.49 315.86 144.49 315.86 191.31 289.88 191.31 289.88 144.49 289.88 144.49"/>
    <path class="cls-3" d="M364.1,2583.49a0.82,0.82,0,0,1,.06-0.25,0.66,0.66,0,0,1,.2-0.2,0.83,0.83,0,0,1,.25-0.06v0.51H364.1Z" transform="translate(-74.73 -2439)"/>
    <polygon class="cls-3" points="289.88 145 289.88 144.49 289.88 143.98 315.86 143.98 315.86 144.49 315.86 145 289.88 145 289.88 145"/>
    <path class="cls-3" d="M390.59,2583a0.83,0.83,0,0,1,.25.06,0.66,0.66,0,0,1,.2.2,0.82,0.82,0,0,1,.06.25h-0.51V2583h0Z" transform="translate(-74.73 -2439)"/>
    <polygon class="cls-3" points="315.35 144.49 315.86 144.49 316.37 144.49 316.37 191.31 315.86 191.31 315.35 191.31 315.35 144.49 315.35 144.49"/>
    <path class="cls-3" d="M391.1,2630.31a0.82,0.82,0,0,1-.06.25,0.66,0.66,0,0,1-.2.2,0.83,0.83,0,0,1-.25.06v-0.51h0.51Z" transform="translate(-74.73 -2439)"/>
    <polygon class="cls-3" points="315.86 190.8 315.86 191.31 315.86 191.82 289.88 191.82 289.88 191.31 289.88 190.8 315.86 190.8 315.86 190.8"/>
    <path class="cls-3" d="M364.61,2630.82a0.83,0.83,0,0,1-.25-0.06,0.66,0.66,0,0,1-.2-0.2,0.82,0.82,0,0,1-.06-0.25h0.51v0.51h0Z" transform="translate(-74.73 -2439)"/>
    <polygon class="cls-3" points="290.39 191.31 289.88 191.31 289.37 191.31 289.37 144.49 289.88 144.49 290.39 144.49 290.39 191.31 290.39 191.31"/>
    <polygon class="cls-7" points="330.87 191.31 356.85 191.31 356.85 261.06 330.87 261.06 330.87 191.31 330.87 191.31"/>
    <path class="cls-3" d="M405.09,2630.31a0.82,0.82,0,0,1,.06-0.25,0.66,0.66,0,0,1,.2-0.2,0.83,0.83,0,0,1,.25-0.06v0.51h-0.51Z" transform="translate(-74.73 -2439)"/>
    <polygon class="cls-3" points="330.87 191.82 330.87 191.31 330.87 190.8 356.85 190.8 356.85 191.31 356.85 191.82 330.87 191.82 330.87 191.82"/>
    <path class="cls-3" d="M431.58,2629.8a0.83,0.83,0,0,1,.25.06,0.66,0.66,0,0,1,.2.2,0.82,0.82,0,0,1,.06.25h-0.51v-0.51h0Z" transform="translate(-74.73 -2439)"/>
    <polygon class="cls-3" points="356.34 191.31 356.85 191.31 357.36 191.31 357.36 261.06 356.85 261.06 356.34 261.06 356.34 191.31 356.34 191.31"/>
    <path class="cls-3" d="M432.09,2700.06a0.82,0.82,0,0,1-.06.25,0.66,0.66,0,0,1-.2.2,0.83,0.83,0,0,1-.25.06v-0.51h0.51Z" transform="translate(-74.73 -2439)"/>
    <polygon class="cls-3" points="356.85 260.55 356.85 261.06 356.85 261.56 330.87 261.56 330.87 261.06 330.87 260.55 356.85 260.55 356.85 260.55"/>
    <path class="cls-3" d="M405.6,2700.56a0.83,0.83,0,0,1-.25-0.06,0.66,0.66,0,0,1-.2-0.2,0.82,0.82,0,0,1-.06-0.25h0.51v0.51h0Z" transform="translate(-74.73 -2439)"/>
    <polygon class="cls-3" points="331.38 261.06 330.87 261.06 330.36 261.06 330.36 191.31 330.87 191.31 331.38 191.31 331.38 261.06 331.38 261.06"/>
    <polygon class="cls-8" points="34.98 24.91 367.81 24.91 367.81 262.01 34.98 262.01 34.98 24.91 34.98 24.91"/>
    <g class="cls-9">
        <polygon class="cls-3" points="35.47 27.9 35.98 27.9 36.49 27.9 36.49 261.06 35.98 261.06 35.47 261.06 35.47 27.9 35.47 27.9"/>
        <polygon class="cls-3" points="31.98 261.56 31.98 261.06 31.98 260.55 35.98 260.55 35.98 261.06 35.98 261.56 31.98 261.56 31.98 261.56"/>
        <polygon class="cls-3" points="31.98 214.75 31.98 214.24 31.98 213.73 35.98 213.73 35.98 214.24 35.98 214.75 31.98 214.75 31.98 214.75"/>
        <polygon class="cls-3" points="31.98 167.9 31.98 167.39 31.98 166.88 35.98 166.88 35.98 167.39 35.98 167.9 31.98 167.9 31.98 167.9"/>
        <polygon class="cls-3" points="31.98 122.07 31.98 121.56 31.98 121.05 35.98 121.05 35.98 121.56 35.98 122.07 31.98 122.07 31.98 122.07"/>
        <polygon class="cls-3" points="31.98 75.22 31.98 74.72 31.98 74.21 35.98 74.21 35.98 74.72 35.98 75.22 31.98 75.22 31.98 75.22"/>
        <polygon class="cls-3" points="31.98 28.41 31.98 27.9 31.98 27.39 35.98 27.39 35.98 27.9 35.98 28.41 31.98 28.41 31.98 28.41"/>
        <polygon class="cls-3" points="35.98 261.56 35.98 261.06 35.98 260.55 364.84 260.55 364.84 261.06 364.84 261.56 35.98 261.56 35.98 261.56"/>
        <polygon class="cls-3" points="36.49 265.04 35.98 265.04 35.47 265.04 35.47 261.06 35.98 261.06 36.49 261.06 36.49 265.04 36.49 265.04"/>
        <polygon class="cls-3" points="77.48 265.04 76.97 265.04 76.46 265.04 76.46 261.06 76.97 261.06 77.48 261.06 77.48 265.04 77.48 265.04"/>
        <polygon class="cls-3" points="118.47 265.04 117.96 265.04 117.45 265.04 117.45 261.06 117.96 261.06 118.47 261.06 118.47 265.04 118.47 265.04"/>
        <polygon class="cls-3" points="159.43 265.04 158.92 265.04 158.41 265.04 158.41 261.06 158.92 261.06 159.43 261.06 159.43 265.04 159.43 265.04"/>
        <polygon class="cls-3" points="201.41 265.04 200.9 265.04 200.39 265.04 200.39 261.06 200.9 261.06 201.41 261.06 201.41 265.04 201.41 265.04"/>
        <polygon class="cls-3" points="242.41 265.04 241.9 265.04 241.38 265.04 241.38 261.06 241.9 261.06 242.41 261.06 242.41 265.04 242.41 265.04"/>
        <polygon class="cls-3" points="283.4 265.04 282.89 265.04 282.38 265.04 282.38 261.06 282.89 261.06 283.4 261.06 283.4 265.04 283.4 265.04"/>
        <polygon class="cls-3" points="324.39 265.04 323.88 265.04 323.37 265.04 323.37 261.06 323.88 261.06 324.39 261.06 324.39 265.04 324.39 265.04"/>
        <polygon class="cls-3" points="365.35 265.04 364.84 265.04 364.33 265.04 364.33 261.06 364.84 261.06 365.35 261.06 365.35 265.04 365.35 265.04"/>
    </g>
    <g class="cls-10">
        <circle class="cls-11"/>
        <text class="cls-12" transform="translate(52.98 219.6) scale(1.07 1)">4</text>
    </g>
    <g class="cls-13">
        <circle class="cls-11"/>
        <text class="cls-12" transform="translate(93.97 137.88) scale(1.07 1)">3</text>
    </g>
    <g class="cls-14">
        <circle class="cls-11"/>
        <text class="cls-12" transform="translate(134.95 79.1) scale(1.07 1)">2</text>
    </g>
    <g class="cls-15">
        <circle class="cls-11"/>
        <text class="cls-12" transform="translate(175.92 160.82) scale(1.07 1)">9</text>
    </g>
    <g class="cls-16">
        <circle class="cls-11"/>
        <text class="cls-12" transform="translate(258.9 125.94) scale(1.07 1)">2</text>
    </g>
    <g class="cls-17">
        <circle class="cls-11"/>
        <text class="cls-12" transform="translate(340.85 231.54) scale(1.07 1)">3</text>
    </g>
    <g class="cls-18">
        <circle class="cls-11"/>
        <text class="cls-19" transform="translate(299.89 172.75) scale(1.07 1)">2</text>
    </g>
    <g class="cls-20">
        <circle class="cls-11"/>
        <text class="cls-19" transform="translate(217.91 79.1) scale(1.07 1)">2</text>
    </g>
    <circle class="cls-11"/>
    <text class="cls-12" transform="translate(18.98 266.42) scale(1.07 1)">0</text>
    <circle class="cls-11"/>
    <text class="cls-12" transform="translate(18.98 219.6) scale(1.07 1)">2</text>
    <circle class="cls-11"/>
    <text class="cls-12" transform="translate(18.98 172.75) scale(1.07 1)">4</text>
    <circle class="cls-11"/>
    <text class="cls-12" transform="translate(18.98 126.93) scale(1.07 1)">6</text>
    <circle class="cls-11"/>
    <text class="cls-12" transform="translate(18.98 80.08) scale(1.07 1)">8</text>
    <circle class="cls-11"/>
    <text class="cls-12" transform="translate(11.98 33.26) scale(1.07 1)">1<tspan x="6.53" y="0">0</tspan></text>
    <polygon class="cls-8" points="0 0 376.82 0 376.82 288.93 0 288.93 0 0 0 0"/>
    <text class="cls-21" transform="translate(54.27 352.37) rotate(-90)">O<tspan x="9.84" y="0">v</tspan>
        <tspan x="16.44" y="0">e</tspan>
        <tspan x="23.45" y="0">r</tspan>
        <tspan x="27.89" y="0">due</tspan>
        <tspan x="50.51" y="0"> </tspan>
        <tspan x="52.91" y="0">T</tspan>
        <tspan x="58.97" y="0">asks</tspan>
        <tspan x="-26.53" y="37.2">T</tspan>
        <tspan x="-20.47" y="37.2">ask </tspan>
        <tspan x="1.36" y="37.2">D</tspan>
        <tspan x="10.72" y="37.2">ue this </tspan>
        <tspan x="52.61" y="37.2">w</tspan>
        <tspan x="62.78" y="37.2">eek</tspan>
        <tspan x="4.51" y="49.6">- R</tspan>
        <tspan x="19.31" y="49.6">R</tspan>
        <tspan x="26.88" y="49.6">O c</tspan>
        <tspan x="45.77" y="49.6">r</tspan>
        <tspan x="50.2" y="49.6">e</tspan>
        <tspan x="57.22" y="49.6">a</tspan>
        <tspan x="63.91" y="49.6">t</tspan>
        <tspan x="68.46" y="49.6">ed</tspan>
        <tspan x="-25.06" y="86.8">T</tspan>
        <tspan x="-19" y="86.8">ask due this </tspan>
        <tspan x="52.61" y="86.8">w</tspan>
        <tspan x="62.78" y="86.8">eek</tspan>
        <tspan x="-5.92" y="99.2">- </tspan>
        <tspan x="1.34" y="99.2">c</tspan>
        <tspan x="7.53" y="99.2">e</tspan>
        <tspan x="14.55" y="99.2">n</tspan>
        <tspan x="22.26" y="99.2">t</tspan>
        <tspan x="26.89" y="99.2">r</tspan>
        <tspan x="31.4" y="99.2">ally c</tspan>
        <tspan x="60.59" y="99.2">r</tspan>
        <tspan x="65.03" y="99.2">e</tspan>
        <tspan x="72.04" y="99.2">a</tspan>
        <tspan x="78.73" y="99.2">t</tspan>
        <tspan x="55.03" y="136.4">T</tspan>
        <tspan x="61" y="136.4">otal</tspan>
        <tspan x="23.17" y="173.6">Su</tspan>
        <tspan x="37.79" y="173.6">cc</tspan>
        <tspan x="50.16" y="173.6">essful</tspan>
        <tspan x="19.52" y="210.8">I</tspan>
        <tspan x="23" y="210.8">n </tspan>
        <tspan x="33.74" y="210.8">P</tspan>
        <tspan x="40.96" y="210.8">r</tspan>
        <tspan x="45.4" y="210.8">o</tspan>
        <tspan x="53.09" y="210.8">g</tspan>
        <tspan x="60.83" y="210.8">r</tspan>
        <tspan x="65.27" y="210.8">ess</tspan>
        <tspan x="48.94" y="248">F</tspan>
        <tspan x="55.13" y="248">ailed</tspan>
        <tspan x="-6.01" y="285.2">T</tspan>
        <tspan x="0.06" y="285.2">asks No </tspan>
        <tspan x="47.29" y="285.2">S</tspan>
        <tspan x="54.15" y="285.2">t</tspan>
        <tspan x="58.79" y="285.2">a</tspan>
        <tspan x="65.48" y="285.2">tus</tspan>
        <tspan x="26.95" y="297.6">/ </tspan>
        <tspan x="34.72" y="297.6">P</tspan>
        <tspan x="41.82" y="297.6">ending</tspan>
    </text>
    <polygon class="cls-3" points="316.27 191.51 316.27 191.32 316.27 191.14 321.56 191.14 321.56 191.32 321.56 191.51 316.27 191.51 316.27 191.51"/>
    <polygon class="cls-3" points="325.54 191.51 325.54 191.32 325.54 191.14 330.83 191.14 330.83 191.32 330.83 191.51 325.54 191.51 325.54 191.51"/>
    <polygon class="cls-3" points="275.23 144.63 275.23 144.44 275.23 144.25 280.52 144.25 280.52 144.44 280.52 144.63 275.23 144.63 275.23 144.63"/>
    <polygon class="cls-3" points="284.49 144.63 284.49 144.44 284.49 144.25 289.79 144.25 289.79 144.44 289.79 144.63 284.49 144.63 284.49 144.63"/>
    <polygon class="cls-3" points="234.18 97.78 234.18 97.59 234.18 97.4 239.48 97.4 239.48 97.59 239.48 97.78 234.18 97.78 234.18 97.78"/>
    <polygon class="cls-3" points="243.45 97.78 243.45 97.59 243.45 97.4 248.75 97.4 248.75 97.59 248.75 97.78 243.45 97.78 243.45 97.78"/>
    <polygon class="cls-3" points="193.14 50.89 193.14 50.7 193.14 50.51 198.44 50.51 198.44 50.7 198.44 50.89 193.14 50.89 193.14 50.89"/>
    <polygon class="cls-3" points="202.41 50.89 202.41 50.7 202.41 50.51 207.71 50.51 207.71 50.7 207.71 50.89 202.41 50.89 202.41 50.89"/>
    <polygon class="cls-3" points="151.12 50.89 151.12 50.7 151.12 50.51 156.41 50.51 156.41 50.7 156.41 50.89 151.12 50.89 151.12 50.89"/>
    <polygon class="cls-3" points="160.38 50.89 160.38 50.7 160.38 50.51 165.68 50.51 165.68 50.7 165.68 50.89 160.38 50.89 160.38 50.89"/>
    <polygon class="cls-3" points="110.08 97.78 110.08 97.59 110.08 97.4 115.37 97.4 115.37 97.59 115.37 97.78 110.08 97.78 110.08 97.78"/>
    <polygon class="cls-3" points="119.34 97.78 119.34 97.59 119.34 97.4 124.64 97.4 124.64 97.59 124.64 97.78 119.34 97.78 119.34 97.78"/>
    <polygon class="cls-3" points="69.03 167.58 69.03 167.39 69.03 167.2 74.33 167.2 74.33 167.39 74.33 167.58 69.03 167.58 69.03 167.58"/>
    <polygon class="cls-3" points="78.3 167.58 78.3 167.39 78.3 167.2 83.6 167.2 83.6 167.39 83.6 167.58 78.3 167.58 78.3 167.58"/>
</svg>